<svg width="36" height="36" viewBox="0 0 36 36" fill="none" xmlns="http://www.w3.org/2000/svg">
<mask id="path-1-outside-1_5259_10808" maskUnits="userSpaceOnUse" x="1.52734" y="1.42773" width="20" height="32" fill="black">
<rect fill="white" x="1.52734" y="1.42773" width="20" height="32"/>
<path d="M7.17798 6.07564C7.18845 6.0473 7.1989 6.01896 7.20933 5.99063C7.28656 5.78093 7.85394 4.03195 8.22541 3.59246C8.47749 3.29423 8.78702 3.48081 9.07215 3.53783C9.55988 3.63538 10.0525 3.73198 10.5416 3.8219C11.1019 3.92489 11.8776 3.7003 12.3881 3.88745C13.4236 4.26715 13.895 6.86425 14.0488 7.50382C14.4253 9.07069 14.6027 10.1152 14.7239 11.3442C15.1036 12.3579 15.4532 13.1931 16.0427 14.4689C16.8825 16.2865 17.8739 17.9952 18.8451 19.7405C19.3684 20.6809 19.7405 21.6031 19.6864 22.7013C19.5767 24.9256 18.4643 26.6496 17.1312 28.2454C17.0916 28.4116 17.0475 28.5775 16.9987 28.7432C16.7188 29.6917 16.1094 30.1053 15.3635 30.2485C14.9447 30.3289 14.4828 30.3241 14.0121 30.2809C12.6949 30.528 11.3682 30.7967 10.05 30.9938C9.5666 31.0661 9.54473 30.924 9.1814 30.7152C8.76251 30.4746 8.31227 30.5758 7.90087 30.3726C7.56693 30.3631 7.24312 30.2974 6.93663 30.1384C6.6801 30.7016 6.41394 31.6798 5.95289 30.5568C4.92191 28.0456 4.44669 25.0519 4.21572 22.3462C4.17396 21.857 4.16964 21.3665 4.13924 20.8767C4.08589 20.0172 4.13787 20.9535 4.19387 21.2264C4.28346 21.6629 4.39061 22.0955 4.49746 22.5282C4.04506 19.7763 3.70993 16.9976 3.58204 14.2121L3.58118 14.1936C3.48848 12.1748 3.37978 9.80764 4.52164 8.01733C4.64899 7.81766 6.98435 5.54775 7.16563 6.03979C7.16994 6.0515 7.17406 6.06344 7.17798 6.07564Z"/>
</mask>
<path d="M11.9211 4.7933L12.237 4.11306L10.8765 3.48133L10.5606 4.16157L11.9211 4.7933ZM8.18171 11.0656L8.85388 11.3983L8.85388 11.3983L8.18171 11.0656ZM5.88734 15.2938L5.26269 14.8787L5.26269 14.8787L5.88734 15.2938ZM4.92588 12.2674L5.64215 12.4898L5.64215 12.4898L4.92588 12.2674ZM7.17798 6.07564L7.89196 5.84601L6.47446 5.8157L7.17798 6.07564ZM14.7239 11.3442L15.4703 11.2706L15.4263 11.0811L14.7239 11.3442ZM14.89 13.5511L14.1415 13.5981L14.1415 13.5981L14.89 13.5511ZM15.2123 18.6097L14.4732 18.7371L14.4732 18.7371L15.2123 18.6097ZM17.0096 23.4552L17.6947 23.1501L17.6947 23.1501L17.0096 23.4552ZM17.2827 26.7547L16.5768 26.5014L16.5768 26.5014L17.2827 26.7547ZM16.9003 26.7547L16.4091 27.3215L16.4091 27.3215L16.9003 26.7547ZM16.7091 27.2136L15.9827 27.027L15.9827 27.027L16.7091 27.2136ZM16.2557 28.8688L16.9682 29.1031L16.9682 29.1031L16.2557 28.8688ZM14.7698 30.1416L14.6375 29.4034L14.6375 29.4034L14.7698 30.1416ZM14.0121 30.2809L13.9436 31.0278L14.1504 31.0181L14.0121 30.2809ZM7.90087 30.3726L7.56874 31.045L7.87958 31.1223L7.90087 30.3726ZM7.65728 30.2072L8.15794 29.6488L8.15794 29.6488L7.65728 30.2072ZM7.0236 29.9668L7.67031 30.3467L7.67031 30.3467L7.0236 29.9668ZM6.93663 30.1384L6.59124 30.8042L7.61917 30.4493L6.93663 30.1384ZM4.49746 22.5282L5.22558 22.3483L3.7574 22.6498L4.49746 22.5282ZM4.61997 23.0291L5.34926 22.8541L5.34926 22.8541L4.61997 23.0291ZM4.59265 21.8928L5.34168 21.8545L5.34168 21.8545L4.59265 21.8928ZM4.51071 14.2449L5.2592 14.2924L5.2592 14.2924L4.51071 14.2449ZM4.8057 11.6228L4.0838 11.4194L4.0838 11.4194L4.8057 11.6228ZM6.25334 9.65616L6.79516 10.1748L6.79516 10.1748L6.25334 9.65616ZM8.33467 4.87076L7.69313 4.48227L7.69313 4.48227L8.33467 4.87076ZM9.96622 4.51409L10.1256 3.78121L10.1256 3.78121L9.96622 4.51409ZM9.97351 4.51567L9.81417 5.24855L9.81419 5.24856L9.97351 4.51567ZM12.7486 7.56938L12.0432 7.82416L12.0432 7.82416L12.7486 7.56938ZM14.9556 15.6652L14.23 15.8552L14.23 15.8552L14.9556 15.6652ZM16.6927 21.3902L15.9736 21.6031L15.9736 21.6031L16.6927 21.3902ZM17.1312 28.2454L17.7068 28.7262L17.8608 28.4189L17.1312 28.2454ZM15.3635 30.2485L15.9245 30.7463L15.9245 30.7463L15.3635 30.2485ZM11.8855 29.9778L11.9743 29.233L11.9743 29.233L11.8855 29.9778ZM9.74407 30.0979L9.89772 30.832L9.89772 30.832L9.74407 30.0979ZM6.35714 29.6937L5.81138 30.2081L5.81138 30.2081L6.35714 29.6937ZM5.29735 27.2901L4.55826 27.4175L4.55826 27.4175L5.29735 27.2901ZM4.69645 23.6955L5.43505 23.5653L5.43505 23.5653L4.69645 23.6955ZM6.56472 9.85283L5.83179 9.69374L5.83179 9.69374L6.56472 9.85283ZM5.08977 16.288L4.36128 16.1097L4.36128 16.1097L5.08977 16.288ZM5.00783 16.5775L4.30241 16.3228L4.30241 16.3228L5.00783 16.5775ZM4.93681 16.4683L4.18843 16.419L4.18843 16.419L4.93681 16.4683ZM6.24242 11.9341L6.91735 12.2612L6.91735 12.2612L6.24242 11.9341ZM7.85394 9.35025L8.48138 9.76113L8.48138 9.76113L7.85394 9.35025ZM9.15409 7.33994L9.72429 7.82714L9.72429 7.82714L9.15409 7.33994ZM10.0828 6.3621L10.6684 6.83062L10.6684 6.83062L10.0828 6.3621ZM9.96804 6.28562L9.48791 6.86179L9.48791 6.86179L9.96804 6.28562ZM11.1207 6.26923L10.8347 6.96255L10.8347 6.96255L11.1207 6.26923ZM13.2894 7.54206L12.6777 7.97601L12.6777 7.97601L13.2894 7.54206ZM14.1853 9.85829L14.8921 9.60724L14.8921 9.60724L14.1853 9.85829ZM13.7005 31.0535L13.2357 31.6422L14.413 32.5717L14.8778 31.983L13.7005 31.0535ZM10.5606 4.16157C10.4912 4.3112 10.422 4.46089 10.353 4.61058L11.7154 5.23819C11.7838 5.08971 11.8523 4.94141 11.9211 4.7933L10.5606 4.16157ZM10.353 4.61058C10.1748 4.99739 9.9981 5.38451 9.82217 5.77113L11.1875 6.39239C11.363 6.00672 11.5386 5.62197 11.7154 5.23819L10.353 4.61058ZM9.82217 5.77113C9.06042 7.44518 8.3158 9.10389 7.50954 10.7329L8.85388 11.3983C9.67374 9.74181 10.4307 8.05539 11.1875 6.39239L9.82217 5.77113ZM7.50954 10.7329C6.7898 12.187 6.1177 13.5921 5.26269 14.8787L6.51198 15.7089C7.43202 14.3244 8.151 12.8184 8.85388 11.3983L7.50954 10.7329ZM5.26269 14.8787C5.0486 15.2008 4.88949 15.3964 4.7621 15.4682L5.49878 16.7748C5.99063 16.4975 6.33293 15.9783 6.51198 15.7089L5.26269 14.8787ZM4.7621 15.4682C4.74787 15.4762 4.74026 15.4787 4.73897 15.4791L5.17888 16.9132C5.29572 16.8773 5.40244 16.8292 5.49878 16.7748L4.7621 15.4682ZM4.73897 15.4791C4.73829 15.4793 4.73931 15.479 4.7418 15.4786C4.74434 15.4782 4.74755 15.4779 4.75108 15.4779V16.9779C4.90252 16.9779 5.04587 16.954 5.17888 16.9132L4.73897 15.4791ZM4.75108 15.4779C4.79701 15.4779 4.85335 15.4858 4.91331 15.5086C4.97345 15.5314 5.02352 15.5641 5.0622 15.5988C5.13485 15.6641 5.15142 15.7214 5.14695 15.7087L3.73316 16.2099C3.78841 16.3658 3.88456 16.5573 4.05981 16.7147C4.25087 16.8864 4.49294 16.9779 4.75108 16.9779V15.4779ZM5.14695 15.7087C5.12807 15.6555 5.10276 15.478 5.12414 15.1401C5.14381 14.8294 5.19646 14.4654 5.26457 14.0979L3.78967 13.8246C3.71599 14.2223 3.65208 14.6513 3.62714 15.0454C3.60393 15.4122 3.60598 15.8512 3.73316 16.2099L5.14695 15.7087ZM5.26457 14.0979C5.40988 13.3137 5.61068 12.5911 5.64215 12.4898L4.20962 12.045C4.16133 12.2005 3.94612 12.9803 3.78967 13.8246L5.26457 14.0979ZM5.64215 12.4898C5.83921 11.8552 6.05558 11.2216 6.28361 10.5869L4.87195 10.0798C4.63879 10.7288 4.41491 11.3838 4.20962 12.045L5.64215 12.4898ZM6.28361 10.5869C6.79908 9.15211 7.34533 7.7867 7.88149 6.33557L6.47446 5.8157C5.9648 7.19511 5.38202 8.65998 4.87195 10.0798L6.28361 10.5869ZM13.9775 11.4178C14.0401 12.0528 14.0878 12.7422 14.1415 13.5981L15.6386 13.5042C15.5848 12.6468 15.5357 11.9344 15.4703 11.2706L13.9775 11.4178ZM14.1415 13.5981C14.1884 14.3456 14.1983 15.0282 14.2175 15.7302L15.717 15.6892C15.6984 15.01 15.6876 14.2864 15.6386 13.5042L14.1415 13.5981ZM14.2175 15.7302C14.2437 16.6855 14.2865 17.6537 14.4732 18.7371L15.9514 18.4823C15.7837 17.5092 15.7427 16.6291 15.717 15.6892L14.2175 15.7302ZM14.4732 18.7371C14.7974 20.6186 15.6353 22.2125 16.3244 23.7602L17.6947 23.1501C16.953 21.4841 16.2347 20.1261 15.9514 18.4823L14.4732 18.7371ZM16.3244 23.7602C16.4313 24.0003 16.5198 24.2288 16.5885 24.45L18.0209 24.0047C17.9311 23.7156 17.8199 23.4312 17.6947 23.1501L16.3244 23.7602ZM16.5885 24.45C16.7779 25.0593 16.8199 25.6185 16.6663 26.2121L18.1184 26.5879C18.3556 25.6713 18.2753 24.8231 18.0209 24.0047L16.5885 24.45ZM16.6663 26.2121C16.6419 26.3063 16.6122 26.4027 16.5768 26.5014L17.9887 27.008C18.0391 26.8675 18.0823 26.7275 18.1184 26.5879L16.6663 26.2121ZM16.5768 26.5014C16.5574 26.5556 16.5456 26.582 16.5415 26.5905C16.5338 26.6066 16.5513 26.5642 16.6013 26.5074C16.6464 26.4563 16.8087 26.2917 17.0906 26.2808C17.3759 26.2698 17.5536 26.425 17.606 26.4765C17.6376 26.5075 17.6577 26.5339 17.6665 26.546C17.6716 26.5529 17.6752 26.5583 17.6773 26.5615C17.6794 26.5647 17.6806 26.5666 17.6807 26.5668C17.6808 26.5669 17.6802 26.566 17.6788 26.5636C17.6774 26.5612 17.6755 26.558 17.6729 26.5534C17.6699 26.5481 17.6583 26.5278 17.6511 26.5153C17.625 26.4703 17.5385 26.3153 17.3915 26.1879L16.4091 27.3215C16.3441 27.2651 16.322 27.2133 16.3526 27.2663C16.3564 27.2729 16.3836 27.321 16.4034 27.3532C16.4224 27.384 16.4736 27.4667 16.5541 27.5458C16.6319 27.6223 16.8355 27.7918 17.1484 27.7797C17.4578 27.7678 17.6494 27.5868 17.7266 27.4992C17.8657 27.3414 17.9434 27.134 17.9887 27.008L16.5768 26.5014ZM17.3915 26.188C17.2937 26.1032 17.0868 25.9652 16.7961 25.9892C16.5028 26.0135 16.3217 26.1859 16.2407 26.2859C16.104 26.4546 16.0578 26.6524 16.0455 26.7018C16.0241 26.7878 16.0088 26.8782 15.9995 26.9327C15.994 26.9648 15.9903 26.987 15.9866 27.0067C15.9828 27.0274 15.9815 27.0317 15.9827 27.027L17.4355 27.4002C17.4555 27.3225 17.4706 27.2289 17.4781 27.1851C17.4889 27.1216 17.4954 27.0869 17.5009 27.0648C17.5034 27.0548 17.5021 27.0627 17.4949 27.0812C17.4905 27.0924 17.4661 27.1562 17.4062 27.2302C17.3457 27.3048 17.1874 27.462 16.9197 27.4841C16.6543 27.5061 16.4757 27.3791 16.4091 27.3215L17.3915 26.188ZM15.9827 27.027C15.7948 27.7586 15.7688 27.9484 15.5432 28.6346L16.9682 29.1031C17.2144 28.3541 17.2617 28.0768 17.4355 27.4002L15.9827 27.027ZM15.5432 28.6346C15.3955 29.0839 15.315 29.1768 15.2732 29.2125C15.2276 29.2514 15.1158 29.3177 14.6375 29.4034L14.9021 30.8799C15.3833 30.7936 15.8644 30.6799 16.2469 30.3535C16.6331 30.0239 16.8159 29.5663 16.9682 29.1031L15.5432 28.6346ZM14.6375 29.4034C14.3828 29.4491 14.1281 29.4961 13.8738 29.5438L14.1504 31.0181C14.402 30.9709 14.6525 30.9246 14.9022 30.8799L14.6375 29.4034ZM8.23299 29.7001C8.20892 29.6882 8.18464 29.6727 8.15794 29.6488L7.15662 30.7656C7.28839 30.8838 7.42688 30.975 7.56874 31.045L8.23299 29.7001ZM8.15794 29.6488C8.17083 29.6603 8.16525 29.6582 8.10651 29.579C8.07344 29.5344 7.97931 29.4017 7.86653 29.2974C7.75732 29.1965 7.45235 28.9571 7.02476 29.0613C6.658 29.1507 6.46347 29.4396 6.37688 29.587L7.67031 30.3467C7.68189 30.3269 7.67314 30.3472 7.63791 30.3812C7.6011 30.4168 7.51615 30.4855 7.37984 30.5187C7.06185 30.5962 6.85865 30.4085 6.84835 30.3989C6.83384 30.3855 6.83166 30.3809 6.84536 30.398C6.85907 30.4151 6.87396 30.4352 6.90166 30.4725C6.94119 30.5258 7.03607 30.6575 7.15662 30.7656L8.15794 29.6488ZM6.37688 29.587C6.32912 29.6683 6.28802 29.7531 6.2541 29.8275L7.61917 30.4493C7.64328 30.3963 7.65998 30.3642 7.67031 30.3467L6.37688 29.587ZM3.76934 22.708C3.81062 22.8751 3.85123 23.0397 3.89068 23.2041L5.34926 22.8541C5.30849 22.6842 5.26675 22.515 5.22558 22.3483L3.76934 22.708ZM3.89068 23.2041C3.89827 23.2358 3.90988 23.2811 3.92623 23.328C3.93392 23.3501 3.94945 23.3924 3.97472 23.4411C3.98236 23.4558 4.05925 23.6166 4.23941 23.7324C4.35346 23.8058 4.54595 23.8831 4.78232 23.8398C5.00889 23.7982 5.15166 23.668 5.22219 23.5844C5.34166 23.4427 5.37486 23.2941 5.37954 23.2754C5.40019 23.1928 5.40367 23.1192 5.40472 23.099C5.41029 22.9916 5.40276 22.8309 5.3956 22.7001C5.38756 22.5529 5.37611 22.3832 5.3658 22.2311C5.3552 22.0747 5.34611 21.9413 5.34168 21.8545L3.84363 21.9311C3.84887 22.0336 3.85909 22.1828 3.86924 22.3325C3.87967 22.4865 3.89042 22.6463 3.89784 22.7819C3.90155 22.8497 3.90422 22.908 3.90563 22.9541C3.90721 23.0059 3.90657 23.0243 3.90673 23.0213C3.90685 23.0189 3.90736 23.0096 3.90893 22.9957C3.91013 22.985 3.91392 22.9532 3.92434 22.9115C3.92725 22.8999 3.95841 22.7562 4.07557 22.6173C4.14493 22.5351 4.28648 22.4057 4.51175 22.3644C4.74682 22.3213 4.93793 22.3983 5.05054 22.4707C5.2278 22.5846 5.3015 22.7412 5.30564 22.7492C5.3274 22.7911 5.33912 22.8242 5.34266 22.8343C5.35071 22.8575 5.35271 22.8685 5.34926 22.8541L3.89068 23.2041ZM5.34168 21.8545C5.23976 19.8616 5.15003 17.923 5.1899 15.9747L3.69021 15.944C3.64911 17.9525 3.74183 19.9403 3.84363 21.9311L5.34168 21.8545ZM5.1899 15.9747C5.20136 15.4144 5.22355 14.854 5.2592 14.2924L3.76222 14.1974C3.72506 14.7827 3.70207 15.3646 3.69021 15.944L5.1899 15.9747ZM5.2592 14.2924C5.2654 14.1948 5.27089 14.0976 5.27605 14.0014L3.77819 13.9211C3.77319 14.0146 3.76799 14.1065 3.76222 14.1974L5.2592 14.2924ZM5.27605 14.0014C5.31976 13.185 5.34252 12.4832 5.52761 11.8261L4.0838 11.4194C3.843 12.2743 3.81827 13.1727 3.77819 13.9211L5.27605 14.0014ZM5.52761 11.8261C5.64386 11.4134 5.83452 11.1505 6.12023 10.8513L5.03532 9.81544C4.65163 10.2173 4.28974 10.6883 4.0838 11.4194L5.52761 11.8261ZM6.12023 10.8513C6.21377 10.7533 6.31373 10.6553 6.42901 10.5422C6.54157 10.4318 6.66659 10.3091 6.79516 10.1748L5.71153 9.13757C5.60148 9.25255 5.49236 9.35984 5.3786 9.47143C5.26757 9.58035 5.14906 9.69632 5.03532 9.81544L6.12023 10.8513ZM6.79516 10.1748C7.07553 9.88183 7.29757 9.56599 7.47892 9.24114L6.1692 8.50996C6.0407 8.74013 5.89168 8.94935 5.71153 9.13757L6.79516 10.1748ZM7.47892 9.24114C7.87653 8.52892 8.09186 7.74171 8.28447 7.06955C8.4866 6.36418 8.66745 5.76912 8.97621 5.25924L7.69313 4.48227C7.26522 5.18891 7.03793 5.97438 6.84251 6.65634C6.63757 7.37151 6.46593 7.97844 6.1692 8.50996L7.47892 9.24114ZM8.97621 5.25924C9.01408 5.1967 9.04064 5.18043 9.04751 5.17636C9.0568 5.17085 9.08025 5.15926 9.13682 5.15388C9.28279 5.13999 9.47466 5.17474 9.80688 5.24697L10.1256 3.78121C9.85136 3.7216 9.41778 3.62037 8.99475 3.66062C8.50298 3.70741 8.02057 3.94153 7.69313 4.48227L8.97621 5.25924ZM9.80688 5.24697L9.81417 5.24855L10.1328 3.7828L10.1256 3.78121L9.80688 5.24697ZM9.81419 5.24856C10.1629 5.32437 10.4298 5.43393 10.6429 5.56425L11.4254 4.28452C11.0504 4.0552 10.6225 3.88925 10.1328 3.78279L9.81419 5.24856ZM10.6429 5.56425C11.1395 5.86788 11.4609 6.35573 11.7894 7.15728L13.1774 6.58849C12.8105 5.69313 12.3348 4.84057 11.4254 4.28452L10.6429 5.56425ZM11.7894 7.15727C11.8739 7.36358 11.9568 7.58484 12.0432 7.82416L13.454 7.3146C13.3646 7.06696 13.2735 6.82317 13.1774 6.58849L11.7894 7.15727ZM12.0432 7.82416C12.98 10.4177 13.5065 13.0917 14.23 15.8552L15.6811 15.4753C14.9885 12.8298 14.4211 9.99216 13.454 7.3146L12.0432 7.82416ZM14.23 15.8552C14.234 15.8703 14.238 15.8855 14.242 15.9006L15.6926 15.5188C15.6887 15.5044 15.6849 15.4898 15.6811 15.4753L14.23 15.8552ZM14.242 15.9006C14.7486 17.8259 15.4283 19.7613 15.9736 21.6031L17.4119 21.1774C16.831 19.215 16.1971 17.436 15.6926 15.5189L14.242 15.9006ZM15.9736 21.6031C16.241 22.5063 16.4474 23.4145 16.5605 24.3203L18.049 24.1344C17.9235 23.1298 17.6968 22.1398 17.4119 21.1774L15.9736 21.6031ZM16.5605 24.3203C16.646 25.0047 16.678 25.6861 16.6433 26.3615L18.1413 26.4385C18.1811 25.6643 18.1439 24.8943 18.049 24.1344L16.5605 24.3203ZM16.6433 26.3615C16.6138 26.936 16.536 27.5066 16.4015 28.0718L17.8608 28.4189C18.0179 27.7588 18.1075 27.0974 18.1413 26.4385L16.6433 26.3615ZM14.0806 29.5341C13.7431 29.5031 13.3946 29.4502 13.036 29.3926C12.6866 29.3364 12.3164 29.2738 11.9743 29.233L11.7967 30.7225C12.0999 30.7586 12.428 30.8141 12.7981 30.8736C13.159 30.9316 13.5511 30.9918 13.9436 31.0278L14.0806 29.5341ZM11.9743 29.233C11.1124 29.1303 10.4008 29.1942 9.59042 29.3639L9.89772 30.832C10.5886 30.6874 11.1326 30.6433 11.7967 30.7225L11.9743 29.233ZM9.59042 29.3639C8.91327 29.5056 8.4044 29.6366 7.92216 29.6229L7.87958 31.1223C8.58901 31.1424 9.33625 30.9496 9.89772 30.832L9.59042 29.3639ZM7.28202 29.4727C7.15953 29.4091 7.03259 29.3168 6.90289 29.1793L5.81138 30.2081C6.05033 30.4616 6.31109 30.6588 6.59124 30.8042L7.28202 29.4727ZM6.90289 29.1793C6.45066 28.6995 6.17051 27.9402 6.03645 27.1626L4.55826 27.4175C4.71397 28.3206 5.06669 29.4181 5.81138 30.2081L6.90289 29.1793ZM6.03645 27.1626C5.83694 26.0055 5.64334 24.7466 5.43505 23.5653L3.95784 23.8258C4.17223 25.0417 4.34565 26.1844 4.55826 27.4175L6.03645 27.1626ZM5.43505 23.5653C5.36702 23.1795 5.3011 22.7932 5.23753 22.4065L3.7574 22.6498C3.82195 23.0425 3.88885 23.4345 3.95784 23.8258L5.43505 23.5653ZM6.46399 6.30526C6.50365 6.42858 6.51158 6.73458 6.43028 7.23699C6.35508 7.70173 6.22551 8.21524 6.1 8.68002L7.54812 9.07108C7.67558 8.59908 7.82266 8.02263 7.91102 7.4766C7.99328 6.96824 8.05169 6.34267 7.89196 5.84601L6.46399 6.30526ZM6.1 8.68002C5.99641 9.06362 5.88366 9.45477 5.83179 9.69374L7.29766 10.0119C7.33894 9.82173 7.42984 9.50911 7.54812 9.07108L6.1 8.68002ZM5.83179 9.69374C5.6399 10.5778 5.44482 11.4618 5.2453 12.3446L6.70839 12.6752C6.90903 11.7875 7.10504 10.8993 7.29766 10.0119L5.83179 9.69374ZM5.2453 12.3446C4.97339 13.5476 4.69326 14.7483 4.40178 15.9439L5.85909 16.2992C6.15292 15.094 6.43497 13.885 6.70839 12.6752L5.2453 12.3446ZM4.40178 15.9439C4.3883 15.9991 4.3748 16.0544 4.36128 16.1097L5.81826 16.4663C5.8319 16.4106 5.84551 16.3549 5.85909 16.2992L4.40178 15.9439ZM4.36128 16.1097C4.33598 16.213 4.32071 16.2721 4.30241 16.3228L5.71324 16.8323C5.76308 16.6943 5.79586 16.5578 5.81826 16.4663L4.36128 16.1097ZM4.30241 16.3228C4.29662 16.3388 4.29753 16.3342 4.30539 16.318C4.30947 16.3095 4.31895 16.2906 4.33432 16.2661C4.34759 16.245 4.37878 16.1977 4.43078 16.1459C4.4749 16.1019 4.59423 15.9933 4.78982 15.9498C5.0322 15.896 5.26284 15.9692 5.42366 16.1019C5.55296 16.2086 5.60997 16.3293 5.63018 16.3762C5.65468 16.433 5.66591 16.4797 5.67078 16.5023C5.68588 16.5722 5.6821 16.6158 5.68237 16.5813C5.68249 16.5669 5.68342 16.5444 5.68519 16.5175L4.18843 16.419C4.18572 16.4603 4.18286 16.5144 4.18242 16.5693C4.18214 16.6042 4.18103 16.7099 4.20459 16.8189C4.21157 16.8513 4.22528 16.9063 4.25265 16.9698C4.27574 17.0234 4.33602 17.1491 4.46904 17.2589C4.63357 17.3946 4.86836 17.469 5.11538 17.4141C5.3156 17.3696 5.44005 17.2578 5.4898 17.2082C5.58975 17.1085 5.64115 17.0012 5.65555 16.9715C5.67914 16.9227 5.69819 16.8739 5.71324 16.8323L4.30241 16.3228ZM5.68519 16.5175C5.69065 16.4346 5.69741 16.3515 5.70545 16.2682L4.2124 16.1241C4.20292 16.2222 4.19491 16.3206 4.18843 16.419L5.68519 16.5175ZM5.70545 16.2682C5.81758 15.1069 6.17634 13.9241 6.66387 12.8107L5.28982 12.2091C4.75788 13.4239 4.34376 14.7635 4.2124 16.1241L5.70545 16.2682ZM6.66387 12.8107C6.74516 12.6251 6.82985 12.4418 6.91735 12.2612L5.56749 11.6071C5.47191 11.8043 5.37912 12.0051 5.28982 12.2091L6.66387 12.8107ZM6.91735 12.2612C7.33776 11.3936 7.88718 10.6685 8.48138 9.76113L7.22651 8.93936C6.70122 9.74149 6.04403 10.6237 5.56749 11.6071L6.91735 12.2612ZM8.48138 9.76113C8.71079 9.41081 8.9277 9.02331 9.11607 8.70859C9.31505 8.37613 9.50505 8.08374 9.72429 7.82714L8.58388 6.85274C8.28158 7.20654 8.0403 7.5852 7.82899 7.93825C7.60707 8.30903 7.43467 8.62149 7.22651 8.93936L8.48138 9.76113ZM9.72429 7.82714C9.84415 7.68686 9.97944 7.55545 10.1486 7.38913C10.308 7.23234 10.4971 7.04475 10.6684 6.83062L9.49711 5.89358C9.38836 6.02951 9.25885 6.1603 9.09682 6.31964C8.94448 6.46945 8.75546 6.65193 8.58388 6.85274L9.72429 7.82714ZM10.6684 6.83062C10.6921 6.80096 10.732 6.74902 10.768 6.68326C10.7864 6.64964 10.8139 6.59449 10.835 6.52312C10.8552 6.4548 10.8815 6.33254 10.8573 6.18228C10.8302 6.01328 10.7456 5.85211 10.6085 5.7317C10.4855 5.6238 10.3579 5.58127 10.2835 5.56326C10.1506 5.53108 10.0376 5.54303 10.0217 5.54438C10.0026 5.546 9.98651 5.54796 9.97797 5.54903C9.97335 5.54961 9.96911 5.55017 9.96645 5.55052C9.96323 5.55094 9.96195 5.55111 9.96051 5.55129C9.95303 5.55225 9.96811 5.55002 9.9905 5.54903C9.99081 5.54902 10.2284 5.52628 10.4482 5.70945L9.48791 6.86179C9.61974 6.97164 9.75754 7.01473 9.84886 7.03261C9.93901 7.05025 10.0148 7.04943 10.057 7.04755C10.1009 7.0456 10.138 7.04081 10.1515 7.03908C10.1777 7.03572 10.1612 7.03793 10.1488 7.03898C10.1393 7.03979 10.1163 7.04153 10.086 7.04107C10.0583 7.04065 10.0012 7.03826 9.93051 7.02113C9.86165 7.00446 9.7385 6.96397 9.61891 6.85899C9.48507 6.74151 9.40265 6.58415 9.3763 6.42004C9.35296 6.27466 9.37862 6.15836 9.39671 6.09726C9.41571 6.0331 9.43944 5.98641 9.45243 5.96271C9.46657 5.93689 9.47893 5.91862 9.48515 5.90973C9.49185 5.90017 9.49637 5.8945 9.49711 5.89358L10.6684 6.83062ZM10.4482 5.70945C10.4015 5.67051 10.3879 5.65459 10.3917 5.65902C10.3942 5.66189 10.408 5.67801 10.4255 5.70645C10.4417 5.73302 10.4728 5.78914 10.4936 5.87057C10.5152 5.95519 10.5293 6.08289 10.4876 6.22923C10.4442 6.3814 10.3564 6.4978 10.2623 6.57613C10.1043 6.70773 9.94681 6.71971 9.93818 6.72063C9.89214 6.72558 9.90113 6.71755 10.0068 6.73638C10.092 6.75157 10.1979 6.77629 10.3126 6.8067L10.6971 5.35682C10.5617 5.32091 10.4118 5.28494 10.27 5.25966C10.1486 5.23802 9.9592 5.20973 9.77789 5.22922C9.70162 5.23742 9.49229 5.26536 9.30244 5.42345C9.19248 5.51503 9.09371 5.6473 9.04502 5.81821C8.99798 5.98328 9.01232 6.13257 9.04024 6.24186C9.09004 6.43678 9.2003 6.57447 9.25725 6.64032C9.3267 6.72061 9.40742 6.79471 9.48791 6.86179L10.4482 5.70945ZM10.3126 6.8067C10.452 6.84369 10.5901 6.88524 10.6963 6.91876C10.749 6.93541 10.7926 6.94967 10.823 6.95984C10.8383 6.96496 10.8495 6.96878 10.8564 6.97116C10.8747 6.9775 10.8572 6.97183 10.8347 6.96255L11.4067 5.57591C11.3441 5.55009 11.0156 5.44129 10.6971 5.35682L10.3126 6.8067ZM10.8347 6.96255C11.2779 7.14541 11.7185 7.30304 12.1155 7.52648L12.8512 6.21929C12.3491 5.93666 11.7628 5.72281 11.4067 5.57591L10.8347 6.96255ZM12.1155 7.52648C12.3965 7.68458 12.5785 7.83611 12.6777 7.97601L13.9011 7.10811C13.6179 6.70884 13.2183 6.42584 12.8512 6.21928L12.1155 7.52648ZM12.6777 7.97601C12.7895 8.13358 12.9452 8.50364 13.1093 8.97899C13.1855 9.19991 13.2559 9.41986 13.3181 9.61595C13.3777 9.80371 13.4351 9.98704 13.4786 10.1093L14.8921 9.60724C14.8597 9.51617 14.8132 9.36799 14.7479 9.16235C14.6853 8.96503 14.6101 8.72967 14.5272 8.48958C14.373 8.04293 14.1566 7.46824 13.9011 7.10811L12.6777 7.97601ZM13.4786 10.1093C13.6794 10.6746 13.8531 11.1574 14.0216 11.6073L15.4263 11.0811C15.2623 10.6435 15.0921 10.1703 14.8921 9.60724L13.4786 10.1093ZM16.5556 27.7645C15.9956 28.4348 15.4059 29.0707 14.8025 29.7507L15.9245 30.7463C16.4988 30.099 17.1282 29.4188 17.7068 28.7262L16.5556 27.7645ZM14.8025 29.7507C14.4273 30.1736 14.0532 30.6067 13.7005 31.0535L14.8778 31.983C15.2045 31.5692 15.5568 31.1607 15.9245 30.7463L14.8025 29.7507ZM7.17798 6.07564L5.75001 6.53489L8.58501 6.59551L7.17798 6.07564ZM7.20933 5.99063L8.61691 6.509L8.61692 6.509L7.20933 5.99063ZM8.22541 3.59246L9.37101 4.56076L9.37101 4.56076L8.22541 3.59246ZM9.07215 3.53783L8.77797 5.0087L8.77797 5.0087L9.07215 3.53783ZM10.5416 3.8219L10.2704 5.29718L10.2704 5.29718L10.5416 3.8219ZM12.3881 3.88745L11.8717 5.29577L11.8717 5.29577L12.3881 3.88745ZM14.0488 7.50382L12.5903 7.85436L12.5903 7.85436L14.0488 7.50382ZM14.7239 11.3442L13.2312 11.4914L13.3192 11.8703L14.7239 11.3442ZM14.0121 30.2809L14.1491 28.7872L13.7356 28.8066L14.0121 30.2809ZM10.05 30.9938L10.2718 32.4774L10.2718 32.4773L10.05 30.9938ZM9.1814 30.7152L9.92859 29.4146L9.92859 29.4146L9.1814 30.7152ZM7.90087 30.3726L8.56513 29.0277L7.94345 28.8732L7.90087 30.3726ZM6.93663 30.1384L7.62741 28.8069L5.57156 29.5167L6.93663 30.1384ZM5.95289 30.5568L7.3405 29.9871L7.3405 29.9871L5.95289 30.5568ZM4.21572 22.3462L2.72116 22.4738L2.72116 22.4738L4.21572 22.3462ZM4.13924 20.8767L5.63636 20.7838L5.63636 20.7838L4.13924 20.8767ZM4.19387 21.2264L2.7245 21.5279L2.7245 21.5279L4.19387 21.2264ZM4.49746 22.5282L3.04122 22.8878L5.97759 22.2848L4.49746 22.5282ZM17.1312 28.2454L15.98 27.2837L15.6719 27.8982L17.1312 28.2454ZM16.9987 28.7432L15.56 28.3187L15.56 28.3187L16.9987 28.7432ZM15.3635 30.2485L15.6463 31.7216L15.6463 31.7216L15.3635 30.2485ZM3.58204 14.2121L5.08046 14.1433L5.08046 14.1433L3.58204 14.2121ZM3.58118 14.1936L5.07961 14.1248L5.07961 14.1248L3.58118 14.1936ZM4.52164 8.01733L3.25697 7.21072L3.25697 7.21072L4.52164 8.01733ZM7.16563 6.03979L8.57315 5.52124L8.57314 5.52124L7.16563 6.03979ZM16.0427 14.4689L17.4043 13.8397L17.4043 13.8397L16.0427 14.4689ZM18.8451 19.7405L17.5343 20.4698L17.5344 20.4698L18.8451 19.7405ZM19.6864 22.7013L21.1845 22.7752L21.1845 22.7752L19.6864 22.7013ZM8.58501 6.59551C8.59566 6.56668 8.60629 6.53785 8.61691 6.509L5.80175 5.47225C5.7915 5.50008 5.78123 5.52792 5.77095 5.55577L8.58501 6.59551ZM8.61692 6.509C8.70105 6.28053 8.79663 5.9673 9.00836 5.41277C9.10133 5.16928 9.19521 4.93969 9.28064 4.7562C9.38483 4.53242 9.41926 4.50367 9.37101 4.56076L7.07982 2.62416C6.84582 2.901 6.67004 3.25568 6.56095 3.48999C6.4331 3.7646 6.31066 4.06776 6.2057 4.34266C6.02157 4.82492 5.79484 5.49103 5.80175 5.47226L8.61692 6.509ZM9.37101 4.56076C9.2781 4.67068 9.12404 4.79601 8.90908 4.86948C8.70678 4.93862 8.5408 4.93075 8.46632 4.92226C8.40502 4.91526 8.37464 4.90317 8.44332 4.92277C8.47289 4.93121 8.62974 4.97906 8.77797 5.0087L9.36632 2.06696C9.37199 2.0681 9.38323 2.07124 9.26669 2.03797C9.18926 2.01588 9.01228 1.96509 8.80645 1.9416C8.58744 1.91661 8.27899 1.91445 7.93885 2.0307C7.58604 2.15129 7.29876 2.36513 7.07982 2.62416L9.37101 4.56076ZM8.77797 5.0087C9.26884 5.10688 9.77015 5.20521 10.2704 5.29718L10.8128 2.34662C10.3348 2.25875 9.85091 2.16388 9.36632 2.06696L8.77797 5.0087ZM10.2704 5.29718C10.5557 5.34962 10.8253 5.35354 11.029 5.34888C11.2261 5.34437 11.4424 5.32837 11.5744 5.32036C11.7323 5.31079 11.8272 5.30816 11.8958 5.31123C11.9656 5.31436 11.942 5.32154 11.8717 5.29577L12.9044 2.47914C12.3089 2.26076 11.6726 2.30889 11.3927 2.32587C11.1969 2.33774 11.0823 2.34688 10.9604 2.34966C10.8452 2.3523 10.8077 2.34568 10.8128 2.34662L10.2704 5.29718ZM11.8717 5.29577C11.667 5.2207 11.6657 5.11802 11.7916 5.31903C11.8977 5.48839 12.0147 5.74824 12.1303 6.08504C12.3661 6.77212 12.4924 7.4471 12.5903 7.85436L15.5072 7.15329C15.4514 6.92098 15.2651 5.97761 14.9679 5.11133C14.8169 4.67144 14.6124 4.17086 14.334 3.72648C14.0755 3.31376 13.6269 2.74405 12.9044 2.47914L11.8717 5.29577ZM12.5903 7.85436C12.9536 9.3659 13.1178 10.3418 13.2312 11.4914L16.2167 11.197C16.0877 9.88862 15.8971 8.77548 15.5072 7.15329L12.5903 7.85436ZM13.7356 28.8066C12.3893 29.0592 11.11 29.3187 9.82815 29.5103L10.2718 32.4773C11.6265 32.2748 13.0005 31.9968 14.2886 31.7552L13.7356 28.8066ZM9.82816 29.5103C9.80298 29.5141 9.7973 29.514 9.80621 29.5135C9.81565 29.5129 9.84479 29.5118 9.88827 29.5155C9.93351 29.5194 9.98895 29.5279 10.0507 29.5447C10.1128 29.5615 10.1672 29.5828 10.2115 29.6037C10.2534 29.6235 10.2802 29.6401 10.2851 29.6432C10.2868 29.6443 10.2823 29.6415 10.2497 29.6192C10.1925 29.58 10.0775 29.5001 9.92859 29.4146L8.43421 32.0159C8.46695 32.0347 8.49095 32.0508 8.5551 32.0948C8.6008 32.126 8.74884 32.2306 8.92982 32.3161C9.41464 32.5452 9.87706 32.5364 10.2718 32.4774L9.82816 29.5103ZM9.92859 29.4146C9.44126 29.1346 8.95919 29.0741 8.74562 29.0443C8.46507 29.0051 8.51127 29.0011 8.56513 29.0277L7.23661 31.7175C7.70187 31.9473 8.17889 31.9942 8.33103 32.0155C8.55016 32.046 8.50266 32.0552 8.43422 32.0159L9.92859 29.4146ZM5.57156 29.5167C5.52796 29.6124 5.4868 29.711 5.45525 29.7866C5.42035 29.8703 5.39452 29.9323 5.36905 29.9896C5.29812 30.149 5.30719 30.0875 5.40373 29.9796C5.45889 29.918 5.64523 29.7234 5.98063 29.626C6.38592 29.5083 6.77463 29.5976 7.04816 29.7651C7.26856 29.9 7.36553 30.0528 7.37362 30.0653C7.39082 30.0917 7.37727 30.0767 7.3405 29.9871L4.56528 31.1265C4.64377 31.3177 4.73939 31.5178 4.8604 31.7035C4.97229 31.8751 5.1677 32.1314 5.4819 32.3237C5.84922 32.5486 6.32709 32.6494 6.81761 32.5069C7.23824 32.3847 7.5059 32.1292 7.63918 31.9803C7.89196 31.6978 8.04448 31.3564 8.11001 31.2091C8.15278 31.1129 8.19342 31.0149 8.22399 30.9417C8.2579 30.8604 8.28117 30.8052 8.3017 30.7602L5.57156 29.5167ZM7.3405 29.9871C6.39551 27.6854 5.93659 24.8697 5.71029 22.2187L2.72116 22.4738C2.95679 25.2341 3.4483 28.4059 4.56528 31.1265L7.3405 29.9871ZM5.71029 22.2187C5.66732 21.7153 5.67566 21.417 5.63636 20.7838L2.64212 20.9697C2.66363 21.3161 2.6806 21.9987 2.72116 22.4738L5.71029 22.2187ZM5.63636 20.7838C5.62228 20.5569 5.61657 20.4712 5.61463 20.4393C5.61435 20.4347 5.61477 20.4413 5.61523 20.4508C5.61537 20.4536 5.61572 20.461 5.61605 20.4706C5.61621 20.4754 5.61649 20.4841 5.61669 20.495C5.61681 20.5022 5.61727 20.5279 5.61641 20.5609C5.6158 20.5799 5.61292 20.6312 5.61022 20.6634C5.60242 20.7298 5.53988 20.9962 5.46098 21.1876C4.68044 21.9117 3.11168 21.6349 2.76137 21.1638C2.71392 21.0522 2.66307 20.8908 2.65199 20.844C2.63807 20.7807 2.6314 20.7294 2.63092 20.7259C2.62875 20.7101 2.62731 20.6977 2.62664 20.6919C2.62313 20.6611 2.62081 20.629 2.62316 20.6581C2.6244 20.6735 2.62716 20.7083 2.63068 20.7508C2.64087 20.8737 2.67412 21.2825 2.7245 21.5279L5.66324 20.9248C5.66569 20.9367 5.65815 20.894 5.6459 20.7781C5.63572 20.6818 5.62672 20.5789 5.62042 20.503C5.61728 20.4651 5.61509 20.4373 5.61347 20.4172C5.6131 20.4126 5.61264 20.4069 5.61219 20.4016C5.61198 20.399 5.61161 20.3947 5.61116 20.3897C5.61112 20.3893 5.60965 20.3724 5.60734 20.3521C5.60666 20.3461 5.60519 20.3335 5.60301 20.3177C5.60251 20.314 5.59583 20.2626 5.5819 20.1993C5.57082 20.1525 5.51996 19.991 5.4725 19.8794C5.12219 19.4083 3.55342 19.1315 2.77288 19.8556C2.69398 20.0471 2.63144 20.3135 2.62364 20.3799C2.62093 20.4121 2.61806 20.4635 2.61744 20.4825C2.61657 20.5156 2.61704 20.5414 2.61717 20.5487C2.61736 20.5598 2.61765 20.5686 2.61782 20.5736C2.61816 20.5837 2.61854 20.5916 2.61871 20.5951C2.61929 20.6073 2.62 20.6188 2.62016 20.6215C2.62173 20.6472 2.62953 20.7668 2.64212 20.9697L5.63636 20.7838ZM2.7245 21.5279C2.82114 21.9988 2.93579 22.461 3.04122 22.8878L5.9537 22.1685C5.84543 21.7301 5.74579 21.327 5.66324 20.9248L2.7245 21.5279ZM15.6719 27.8982C15.6385 28.0388 15.6012 28.179 15.56 28.3187L18.4374 29.1676C18.4939 28.9761 18.5448 28.7844 18.5904 28.5925L15.6719 27.8982ZM15.56 28.3187C15.4899 28.5562 15.4102 28.6328 15.3811 28.6577C15.3449 28.6887 15.2656 28.7399 15.0807 28.7754L15.6463 31.7216C16.2073 31.6139 16.8057 31.3867 17.3306 30.938C17.8626 30.4831 18.2276 29.8787 18.4374 29.1676L15.56 28.3187ZM15.0807 28.7754C14.8593 28.8179 14.5559 28.8245 14.1491 28.7872L13.875 31.7747C14.4097 31.8237 15.0301 31.8399 15.6463 31.7216L15.0807 28.7754ZM7.94345 28.8732C7.78188 28.8686 7.69054 28.8397 7.62741 28.8069L6.24585 31.4699C6.79569 31.7552 7.35199 31.8576 7.85829 31.872L7.94345 28.8732ZM5.97759 22.2848C5.53197 19.5742 5.20499 16.8557 5.08046 14.1433L2.08362 14.2809C2.21486 17.1395 2.55814 19.9783 3.01733 22.7715L5.97759 22.2848ZM5.08046 14.1433L5.07961 14.1248L2.08276 14.2624L2.08362 14.2809L5.08046 14.1433ZM5.07961 14.1248C4.98132 11.9843 4.9471 10.1397 5.78631 8.82393L3.25697 7.21072C1.81247 9.47554 1.99565 12.3652 2.08276 14.2624L5.07961 14.1248ZM5.78631 8.82393C5.72486 8.92027 5.66967 8.97816 5.69705 8.94701C5.70322 8.93999 5.72009 8.92134 5.75056 8.88935C5.8103 8.82663 5.89857 8.73746 6.009 8.63002C6.22999 8.41502 6.51514 8.1507 6.79687 7.91038C7.09449 7.65651 7.32852 7.48104 7.46136 7.40195C7.55323 7.34724 7.47239 7.41363 7.28329 7.4493C7.18394 7.46805 6.90643 7.50771 6.57197 7.37988C6.16712 7.22516 5.88597 6.90538 5.75812 6.55835L8.57314 5.52124C8.42263 5.1127 8.10199 4.753 7.64296 4.57756C7.2543 4.42903 6.90791 4.4672 6.72711 4.50131C6.37509 4.56772 6.08107 4.73228 5.92652 4.8243C5.56651 5.03867 5.17475 5.35089 4.84995 5.62795C4.50926 5.91856 4.17536 6.22841 3.91698 6.4798C3.78773 6.60555 3.67125 6.72263 3.57819 6.82034C3.53638 6.86423 3.36817 7.03636 3.25697 7.21072L5.78631 8.82393ZM5.75811 6.55835C5.75492 6.54968 5.75224 6.54183 5.75001 6.53489L8.60594 5.61638C8.59587 5.58506 8.58496 5.55331 8.57315 5.52124L5.75811 6.55835ZM13.3192 11.8703C13.7141 12.9245 14.0786 13.7944 14.681 15.0981L17.4043 13.8397C16.8277 12.5918 16.4931 11.7913 16.1286 10.8181L13.3192 11.8703ZM14.681 15.0981C15.5512 16.9813 16.5816 18.7576 17.5343 20.4698L20.1558 19.0111C19.1662 17.2327 18.2138 15.5916 17.4043 13.8397L14.681 15.0981ZM17.5344 20.4698C18.0053 21.3162 18.222 21.9423 18.1882 22.6275L21.1845 22.7752C21.259 21.2638 20.7315 20.0456 20.1558 19.0111L17.5344 20.4698ZM18.1882 22.6275C18.103 24.3548 17.25 25.7635 15.98 27.2837L18.2823 29.207C19.6786 27.5357 21.0504 25.4963 21.1845 22.7752L18.1882 22.6275Z" fill="white" mask="url(#path-1-outside-1_5259_10808)"/>
<path d="M21.6982 9.26601C22.2505 7.85116 22.6224 6.93978 23.0725 5.85385C23.129 5.89518 23.1952 5.93206 23.2729 5.96022C23.6375 6.09253 23.928 5.92071 24.0259 5.85162C24.1379 5.77248 24.2166 5.67857 24.2594 5.62417C24.3086 5.56153 24.3522 5.49608 24.388 5.43952C24.4445 5.34997 24.5038 5.24596 24.5512 5.16276C24.5617 5.1443 24.5717 5.12686 24.5808 5.11083C24.6089 5.06188 24.6323 5.02199 24.6526 4.98919C24.6625 4.97316 24.6704 4.96086 24.6766 4.95168C24.6824 4.94306 24.6852 4.93936 24.6852 4.93936L24.6851 4.93947C24.7053 4.91326 24.7249 4.88788 24.7439 4.86326C24.7539 4.85033 24.7637 4.8376 24.7734 4.82507C24.8602 4.85534 24.9531 4.89094 25.0493 4.93073C25.3025 5.03543 25.5263 5.14701 25.6298 5.20087C25.8134 5.29649 25.978 5.3852 26.129 5.471C26.1527 5.51077 26.1791 5.55043 26.2087 5.58946C26.4197 5.86802 26.7289 6.06195 27.0007 6.19895C27.2504 6.59108 27.5533 7.04459 27.8327 7.40495C27.9902 7.608 28.1683 7.81851 28.3437 7.96976C28.425 8.03986 28.5595 8.14524 28.7322 8.20792C28.9206 8.27632 29.2975 8.33179 29.6104 8.03629C29.6115 8.03527 29.6126 8.03424 29.6136 8.03322C29.6235 8.05623 29.633 8.07936 29.6421 8.10263C29.8404 8.60646 29.9051 9.21678 29.9641 10.0926C29.9958 10.563 30.0178 11.0521 30.0402 11.5509C30.0877 12.6105 30.1373 13.7144 30.2865 14.7788C30.4509 15.9512 30.8889 17.0001 31.2945 17.9715C31.3214 18.036 31.3482 18.1001 31.3747 18.1639C31.8308 19.2601 32.2109 20.3826 32.5625 21.5361C32.6599 21.8554 32.762 22.1568 32.8634 22.456C33.0144 22.9015 33.1637 23.3422 33.2932 23.83C33.4995 24.6074 33.5893 25.2996 33.473 25.8858C33.2351 27.0842 32.8565 28.3792 32.3768 29.5669C32.2004 29.4086 31.9818 29.3079 31.7345 29.2786C31.3872 29.2374 31.0713 29.3487 30.8641 29.4413C30.642 29.5405 30.4344 29.67 30.2799 29.7701C30.2153 29.812 30.164 29.8458 30.122 29.8734C30.0431 29.9255 29.9976 29.9555 29.9607 29.9751L30.3136 30.6369L29.9607 29.9751L29.9132 30.0005C29.3314 30.3108 28.8052 30.5916 28.2726 30.753C27.746 30.9126 27.2688 30.9366 26.7967 30.7595C26.797 30.7596 26.7762 30.7513 26.7255 30.7253C26.6784 30.7012 26.6191 30.6689 26.5466 30.6279C26.4036 30.5471 26.2297 30.4441 26.027 30.324L26.014 30.3163C25.6051 30.0741 25.0954 29.7724 24.5953 29.5144C24.1128 29.2654 23.5651 29.0171 23.0925 28.9281C23.0474 28.9195 22.9986 28.9116 22.9471 28.9053C22.8395 28.325 22.6864 27.7681 22.5416 27.2414C22.5252 27.1815 22.5088 27.122 22.4926 27.0629C22.5111 27.0099 22.5354 26.9316 22.5496 26.8379C22.6397 26.2432 22.6844 25.4196 22.71 24.9174C22.7257 24.6118 22.7518 24.2896 22.7798 23.9456L22.7826 23.9112C22.8112 23.5586 22.8411 23.1856 22.8597 22.8105C22.8965 22.066 22.8917 21.2649 22.7263 20.5119C22.5535 19.725 22.2584 18.9645 21.9656 18.2563C21.902 18.1024 21.8388 17.9517 21.7766 17.8034C21.5447 17.2506 21.3271 16.7317 21.1545 16.2092C20.6353 14.6381 20.4802 13.1651 20.4217 11.4479C20.416 11.2823 20.4105 11.1166 20.4049 10.9507C20.4605 10.961 20.521 10.9657 20.5863 10.9622C20.8703 10.9468 21.0484 10.786 21.1257 10.6968C21.2022 10.6085 21.2421 10.5222 21.2589 10.4832C21.2788 10.437 21.2917 10.3962 21.2992 10.3708C21.31 10.3338 21.3196 10.2932 21.3239 10.2742C21.3872 10.1097 21.4469 9.9453 21.5039 9.78843L21.5102 9.77093C21.5739 9.59559 21.6345 9.42932 21.6982 9.26601ZM28.4206 5.16762C28.5231 5.07491 28.5986 4.96659 28.6518 4.86014L28.9873 4.18932L27.6456 3.5185L27.5846 3.64053C27.4865 3.53785 27.3899 3.42689 27.3043 3.32587C27.3006 3.31668 27.2966 3.30693 27.2923 3.29699L27.2917 3.29566C27.2864 3.2831 27.2637 3.23015 27.2272 3.17319C27.2271 3.17312 27.227 3.17292 27.2268 3.17261C27.2208 3.16262 27.1425 3.03328 26.989 2.93794C26.9782 2.93125 26.9656 2.92387 26.9514 2.91619C26.872 2.82881 26.7899 2.74321 26.7068 2.66715C26.5609 2.53348 26.3578 2.37724 26.0917 2.29923C25.4741 2.11823 24.9654 2.45951 24.5997 2.78302C24.4373 2.92668 24.3005 3.06069 24.176 3.19404L24.241 3.037L22.8551 2.46326L22.5682 3.15623C22.3669 3.64251 22.1888 4.07093 22.0252 4.46469C21.4495 5.84976 21.052 6.80603 20.4486 8.34336C20.4393 8.28989 20.4296 8.22595 20.4185 8.14834C20.4169 8.13745 20.4153 8.12605 20.4136 8.11417C20.386 7.91827 20.34 7.59225 20.1954 7.30312C20.1839 7.27998 20.158 7.22983 20.1174 7.17492C20.0973 7.14771 20.0584 7.09845 19.9995 7.04776C19.9481 7.00352 19.8227 6.90673 19.6302 6.87468C19.3949 6.83548 19.1698 6.91096 19.0095 7.05178C18.8788 7.16652 18.8231 7.2952 18.8018 7.35082C18.7594 7.46193 18.7534 7.55859 18.7518 7.58316L18.7518 7.58445C18.7455 7.6841 18.7591 7.79521 18.7639 7.83413C18.7642 7.83644 18.7644 7.83849 18.7646 7.84028C18.7692 7.8777 18.7754 7.92467 18.7808 7.96486C18.7833 7.98427 18.7857 8.0021 18.7876 8.01651C18.7946 8.07082 18.7968 8.09406 18.7972 8.09806C18.7972 8.09856 18.7972 8.09876 18.7972 8.09868C18.8396 9.03105 18.8709 9.9633 18.9024 10.9008C18.909 11.0999 18.9157 11.2993 18.9225 11.499C18.9832 13.2793 19.1467 14.914 19.7302 16.6799C19.9231 17.2636 20.1703 17.8526 20.4051 18.412C20.4643 18.5533 20.5228 18.6926 20.5795 18.8296C20.8684 19.5282 21.1188 20.185 21.2613 20.8337C21.3837 21.3911 21.3962 22.0347 21.3615 22.7364C21.3443 23.0845 21.3163 23.435 21.2875 23.7898L21.284 23.8331C21.2566 24.1697 21.2288 24.5122 21.212 24.8408C21.186 25.3497 21.145 26.0769 21.071 26.5833C21.0694 26.5874 21.0674 26.5926 21.0648 26.5993L21.0635 26.6027C21.0582 26.6163 21.0496 26.6383 21.0414 26.661C21.0088 26.7509 20.9212 26.9989 21.0021 27.2981C21.0347 27.4189 21.0672 27.5373 21.0991 27.6537C21.2901 28.3505 21.4622 28.9783 21.5445 29.6421C21.5533 29.7128 21.5552 29.7988 21.5517 29.8866C21.5333 30.002 21.5211 30.0901 21.5142 30.1533C21.5115 30.1788 21.5057 30.2339 21.5061 30.2905C21.5062 30.3053 21.5068 30.3426 21.513 30.3888C21.5159 30.411 21.5228 30.4562 21.5397 30.5112L21.5399 30.512C21.5504 30.5461 21.5952 30.6922 21.7297 30.8251C21.8087 30.9033 21.9345 30.9919 22.1088 31.0271C22.2865 31.063 22.4448 31.0292 22.561 30.9778C22.7541 30.8924 22.852 30.7511 22.8737 30.7198L22.8744 30.7189C22.9321 30.6357 22.9596 30.5582 22.9648 30.5436L22.9653 30.5422C22.9774 30.5085 22.9865 30.4751 22.993 30.4478C23.2266 30.5203 23.5388 30.6572 23.9075 30.8474C24.3624 31.0821 24.8353 31.3615 25.2495 31.6068L25.2711 31.6197C25.4664 31.7354 25.6518 31.8452 25.8084 31.9337C25.9568 32.0176 26.128 32.1108 26.27 32.164C27.1394 32.49 27.9704 32.4119 28.7076 32.1885C29.3856 31.983 30.03 31.6387 30.5744 31.3479C30.6054 31.3313 30.6362 31.3149 30.6666 31.2987C30.7696 31.2437 30.9056 31.154 31.0136 31.0828C31.0435 31.063 31.0714 31.0446 31.0957 31.0288C31.1881 30.969 31.2733 30.9163 31.3517 30.8733C31.3686 30.9789 31.3889 31.0995 31.412 31.2084C31.4299 31.2925 31.4537 31.391 31.4863 31.4858C31.5111 31.5582 31.5716 31.7247 31.704 31.8693C31.7774 31.9496 31.9111 32.0649 32.1137 32.1149C32.3343 32.1693 32.5383 32.1224 32.6907 32.0399C32.9331 31.9086 33.0512 31.6869 33.094 31.6041C33.9423 29.9634 34.5897 27.9641 34.9443 26.1778C35.1277 25.2537 34.9684 24.2946 34.743 23.4453C34.6068 22.9319 34.4197 22.3757 34.253 21.8802C34.1563 21.5925 34.0664 21.3253 33.9973 21.0986C33.6374 19.918 33.2412 18.7452 32.7596 17.5877C32.7391 17.5384 32.7187 17.4894 32.6984 17.4407C32.2764 16.4279 31.9087 15.5453 31.772 14.5705C31.6324 13.5746 31.5889 12.5961 31.5437 11.5789C31.5208 11.0623 31.4974 10.5357 31.4607 9.99173C31.4035 9.14299 31.3338 8.30516 31.0379 7.55325C30.725 6.75827 30.1818 6.10507 29.2802 5.55169C29.0913 5.43574 28.8645 5.34059 28.6698 5.26375C28.5708 5.22464 28.4929 5.19496 28.4206 5.16762ZM31.2946 30.5418C31.2946 30.5416 31.2952 30.5437 31.2964 30.5484C31.2952 30.5443 31.2946 30.5419 31.2946 30.5418ZM21.5302 30.1162C21.5284 30.1262 21.5284 30.1243 21.5306 30.1142C21.5305 30.1151 21.5303 30.1157 21.5302 30.1162ZM31.7615 30.9152C31.7526 30.9325 31.7529 30.9275 31.7645 30.9094C31.7635 30.9113 31.7625 30.9133 31.7615 30.9152ZM32.9041 30.9961C32.9094 31.0085 32.9092 31.0109 32.9049 30.9985C32.9047 30.9977 32.9044 30.9969 32.9041 30.9961ZM20.608 10.0353L20.3707 9.94333L20.608 10.0353ZM21.3295 10.251C21.3295 10.2511 21.3291 10.2529 21.3282 10.2559C21.3291 10.2524 21.3295 10.2509 21.3295 10.251Z" stroke="white" stroke-width="1.5" stroke-linecap="square" stroke-linejoin="bevel"/>
<path d="M28.4495 21.2166C28.4766 21.6657 29.0207 25.4077 27.9032 25.4011C27.0911 25.3963 26.2301 22.6346 26.5266 23.3907C26.9822 24.5526 27.159 25.8915 27.7393 26.9962C27.9066 27.3145 27.8851 26.2848 27.8704 25.9255C27.8573 25.6036 27.6686 22.5158 27.6519 22.178C27.5221 19.5469 28.1103 22.5712 28.2419 23.0302C28.2749 23.1452 29.2019 26.8635 29.1269 24.8766C29.1099 24.4265 28.9589 22.5758 28.9302 22.1343C28.9111 21.8398 28.8288 20.9813 28.9521 21.2493C29.5498 22.5487 29.7684 24.1394 30.1648 25.5103C30.2621 25.8466 30.2848 26.7779 30.5035 26.5045C30.6796 26.2844 30.4853 25.9366 30.4161 25.6633C30.1874 24.7607 29.8524 26.4642 29.4874 26.4281C29.1613 26.3958 29.1051 24.5768 29.0613 25.6414C29.0292 26.4238 29.1163 28.7732 29.0941 27.9904C29.0429 26.1798 28.9089 24.3673 28.7882 22.5604C28.7577 22.1044 28.7982 20.7567 28.668 21.1947C28.4988 21.7638 28.6495 22.3819 28.6462 22.9756C28.6439 23.3831 28.6382 25.6059 28.6025 26.1112C28.5942 26.228 28.5594 26.5558 28.5096 26.4499C28.3802 26.1749 28.3831 25.8549 28.3402 25.554C28.0007 23.168 27.7859 20.7509 27.6847 18.3431C27.6755 18.1229 27.6736 17.9025 27.6683 17.6821C27.6663 17.5965 27.5863 17.4637 27.6629 17.4254C27.7354 17.3891 27.6882 17.5856 27.7011 17.6657C27.7392 17.9025 27.7755 18.1395 27.8158 18.3759C28.1622 20.4046 28.5346 22.4308 28.9302 24.4505C29.3682 26.6865 28.917 23.5753 28.8974 23.4017C28.6909 21.5686 28.5581 19.7278 28.3512 17.8952C28.3394 17.7907 28.2644 17.4847 28.2747 17.5893C28.3361 18.2145 28.5847 19.2929 28.6899 19.7525C29.2653 22.2682 29.8533 24.815 30.6237 27.2803C30.8476 27.9969 30.5843 25.7788 30.5363 25.0296C30.3847 22.6621 30.3243 20.2891 30.3178 17.917C30.3125 15.9829 30.4221 18.4013 30.438 18.6927C30.5788 21.2881 30.732 23.8808 30.9405 26.4718C30.9669 26.7996 30.9989 27.127 31.0225 27.4551C31.0316 27.5823 31.1561 27.7872 31.0389 27.8375C30.9288 27.8846 30.9205 27.629 30.8695 27.5206C30.7165 27.1954 30.5712 26.8666 30.427 26.5373C29.4291 24.2576 28.5047 21.9548 27.641 19.6214C27.5351 19.3353 27.3064 18.4762 27.2805 18.7801C27.2191 19.4986 27.4734 20.2094 27.5864 20.9216C27.9904 23.467 28.3232 26.0462 28.8537 28.5695C29.1042 29.7605 28.6648 26.1291 28.3512 24.9531" stroke="white" stroke-width="1.5" stroke-linecap="round"/>
<path d="M12.8954 19.0831C12.7667 20.4055 12.5841 21.8089 12.6114 23.1475C12.6241 23.7723 12.8454 25.5517 13.0648 24.9666C13.2473 24.4797 12.6494 22.3711 12.6004 22.044C12.5079 21.4259 12.4217 20.8067 12.3437 20.1866C12.276 19.6485 12.2068 19.1102 12.1634 18.5696C12.1448 18.3373 12.0304 18.0655 12.158 17.8704C12.2413 17.7429 12.3047 18.1399 12.3492 18.2856C12.5086 18.8077 13.0076 20.8957 13.1139 21.3447C13.7443 24.0076 12.9986 21.1651 12.9719 21.0661C12.5724 19.5853 12.2306 18.0745 11.7592 16.614C11.5734 16.0384 11.9982 17.8006 12.158 18.3839C12.5538 19.8292 12.9522 21.283 13.4089 22.7104C13.4723 22.9086 13.4872 23.1413 13.6275 23.295C13.9933 23.6956 13.528 22.2136 13.4417 21.678C13.2079 20.2272 12.9074 18.7803 12.7097 17.3241C12.5836 16.3953 13.274 19.1123 13.5182 20.0173C13.9507 21.62 14.3046 23.2571 14.7637 24.8519C14.9824 25.6114 14.5306 23.2738 14.5998 22.4865C14.6223 22.2311 14.6785 21.9639 14.8183 21.749C15.0856 21.3384 15.4318 21.8679 15.3755 21.1262C15.3439 20.7092 15.2044 20.3058 15.0751 19.908C14.8746 19.2915 14.3399 17.6421 14.0809 18.2364C13.8786 18.7004 13.959 19.2435 13.9552 19.7496C13.9481 20.7061 14.0104 21.6618 14.0481 22.6176C14.0869 23.603 14.1435 24.5876 14.1847 25.5729C14.2127 26.2429 14.2531 26.9127 14.2557 27.5833C14.2567 27.8571 14.4392 28.2776 14.1956 28.4027C13.9872 28.5096 13.9345 28.0108 13.8405 27.7963C13.3664 26.7141 12.4034 23.9601 12.0924 23.0874C11.7715 22.1868 11.4614 21.2824 11.1364 20.3833C10.953 19.8759 10.4627 18.3689 10.47 18.9083C10.4959 20.8263 10.8738 22.8162 10.9998 24.7317C11.0532 25.5433 11.1102 26.3551 11.1364 27.1681C11.1539 27.7086 11.179 28.2518 11.131 28.7905C11.1128 28.9947 11.1394 29.4217 10.9398 29.375C10.6516 29.3076 10.5827 28.8984 10.4536 28.6321C9.87148 27.4319 9.20821 25.4547 8.82019 24.2728C8.78484 24.1651 7.13418 19.9116 7.57467 19.4328C7.68443 19.3135 7.79324 19.6753 7.87513 19.8152C8.17476 20.327 8.71767 21.553 8.93491 22.0331C9.25261 22.7352 9.55495 23.8212 10.0329 24.4585C10.0657 24.5022 10.0444 24.3481 10.0329 24.2946C9.92434 23.7897 9.47201 22.2239 9.39378 21.9456C9.11961 20.9704 8.39861 18.0209 8.57983 19.0176C8.71864 19.7811 8.98795 20.5595 9.20259 21.301C9.36398 21.8586 9.66437 23.5233 9.75979 22.9508C9.86903 22.2954 9.54919 21.4727 9.35555 20.8531" stroke="white" stroke-width="1.5" stroke-linecap="round"/>
</svg>
