<svg width="24" height="24" viewBox="0 0 24 24" fill="none" xmlns="http://www.w3.org/2000/svg">
<path fill-rule="evenodd" clip-rule="evenodd" d="M4.26966 21.338L5.8806 21.923L5.87988 21.9226L6.20163 21.9773L9.33259 22.6728L8.00353 22.3495L9.32729 22.6615L12.118 22.8457L14.7712 22.6539L15.686 22.4569L16.1265 22.281L19.0899 21.6659L19.5653 21.4686L21.1961 20.2277L22.5692 18.326L23 16.4186L22.533 12.0658L21.6859 6.68492L20.3273 3.44603L19.5457 2.48635L17.2042 1.46621L14.613 1.24936L12.1434 1.17732L9.67264 1.15234L7.51724 1.46621L4.32939 2.35023L3.41062 2.80202L2.6685 3.28313L1.96656 4.33259L1.66284 6.00616L1.48944 6.78592L1.17702 9.943L1 10.7687L1.00072 13.9725L1.101 16.8784L1.98973 19.7107L4.26966 21.338ZM19.4667 7.51747L20.8098 11.2622L20.6216 16.1149L19.4346 18.6269L14.4606 19.8038L11.6677 19.9475L5.34628 19.5547L4.4789 18.7221L3.19558 14.9709L3.08951 13.0027L3.0258 10.3647L3.36392 6.97924L3.76647 5.64017L5.08056 4.69677L8.58951 3.93692L13.696 3.19045L15.686 3.14774L18.3184 4.0057L18.7477 4.68483L18.6192 5.05733L19.0899 6.68492L19.4667 7.51747ZM17.2424 12.8158L15.5478 16.0797L12.5906 17.346L10.9373 17.6157L9.55005 17.346L7.62924 15.8154L6.14717 12.8249L6.12581 9.81042L7.5152 7.97684L12.2032 6.64429L13.6306 6.98168L14.7398 7.98662L16.8322 11.2136L17.2424 12.8158ZM8.30474 11.6936L9.13628 13.8004L10.4091 14.4704L11.7522 14.8007L13.3023 13.5065L14.0538 12.6714L14.0846 10.9565L12.8275 9.57726L10.4091 9.21737L9.13628 9.83105L8.30438 11.6932L8.30474 11.6936ZM14.8984 6.19338L15.3772 6.73804H17.0102L17.4488 6.19338L17.6634 5.23585L16.716 4.52465L15.772 4.1476L14.8984 4.47759L14.4528 5.23585L14.8984 6.19338Z" fill="#0D0F11"/>
</svg>
