<svg width="24" height="24" viewBox="0 0 24 24" fill="none" xmlns="http://www.w3.org/2000/svg">
<path d="M5.82545 3.62645L7.34651 3.40054L9.17961 3.24191L10.8799 3.09691L12.3541 2.89555L14.7021 2.73828L15.8079 2.7651L18.5712 2.77737L21.2872 3.43054L22.1141 3.96326L22.8055 5.0537L23.562 8.14501L24 11.3304L23.9022 15.3826L23.879 15.5308L23.1367 18.1007L22.6704 18.6726L20.9046 19.3562L19.3795 19.5853L17.3344 19.7944L15.8629 20.0143L15.4936 20.0566L12.5888 20.3089L11.0109 20.4266L7.53392 20.6239L4.32985 20.4193L2.47583 20.0775L1.44419 19.6262L0.00363893 17.7812L0 13.0867L0.918371 11.355L2.33618 9.96498L2.76603 5.65096L4.48178 4.07371L5.82545 3.62645ZM9.72181 15.109L10.3741 14.9685L11.7605 14.1417L14.8381 12.1045L16.1386 11.3804L15.8461 11.08L13.8975 9.74862L12.3141 9.12772L11.5194 8.99726L9.20964 8.09592L9.46527 11.5986L9.72227 15.109H9.72181Z" fill="#151516"/>
</svg>
