<svg width="83" height="36" viewBox="0 0 83 36" fill="none" xmlns="http://www.w3.org/2000/svg">
<path fill-rule="evenodd" clip-rule="evenodd" d="M36.8856 24.1735C37.1118 24.3323 37.9779 25.9504 38.0817 26.2487L38.0902 26.2417L38.0979 26.2642L38.0984 26.2656C38.311 26.8756 38.3673 27.0369 38.091 27.6569C37.8303 27.8905 37.4962 28.0152 37.1605 28.1405L37.1591 28.1411C36.864 28.2511 36.5681 28.3618 36.3194 28.547C36.3 28.5609 36.2791 28.5725 36.2582 28.5841L36.2497 28.5896H36.2489C36.2466 28.5911 36.2419 28.5934 36.2419 28.5934L35.946 28.3634C35.9454 28.3636 35.9448 28.3638 35.9442 28.3641C35.9436 28.3643 35.943 28.3646 35.9425 28.3648C35.9414 28.3653 35.9406 28.3657 35.9406 28.3657L35.9375 28.3672C35.9336 28.3688 35.9298 28.3696 35.9259 28.3711C35.8965 28.3812 35.8941 28.382 35.8655 28.423L35.8624 28.4269L35.8603 28.4299C35.7909 28.529 35.7434 28.5969 35.6191 28.6329C35.5344 28.6047 35.488 28.5674 35.4489 28.5359L35.4472 28.5346C35.3689 28.471 35.3201 28.4315 35.056 28.5346C34.9491 28.4896 34.8771 28.4354 34.7919 28.3572C34.6602 28.3587 34.5378 28.4331 34.4154 28.5075C34.2574 28.6043 34.0993 28.7003 33.9204 28.6368L33.8213 28.4842L33.7632 28.4858L33.7585 28.5113C33.7581 28.5131 33.7578 28.5149 33.7575 28.5168C33.7573 28.5177 33.7571 28.5186 33.757 28.5196L33.7566 28.5222C33.7563 28.524 33.756 28.5259 33.7557 28.5277C33.7554 28.5295 33.755 28.5313 33.7546 28.533L33.7523 28.5446L33.7514 28.5496C33.7293 28.6685 33.7091 28.7774 33.6082 28.8607L33.4835 28.8831C33.3611 28.7646 33.255 28.6376 33.1481 28.5059L33.1078 28.5152C33.1073 28.5169 33.1068 28.5185 33.1063 28.5202L33.1044 28.5264C33.1037 28.5286 33.103 28.5308 33.1023 28.533C33.1018 28.5345 33.1013 28.5361 33.1009 28.5377L33.0954 28.557L33.0941 28.5616C33.0489 28.7132 33.0069 28.8542 32.9064 28.9823C32.7988 29.0187 32.7445 29.0272 32.6315 28.9823C32.5695 28.9575 32.5029 28.8971 32.4339 28.8343L32.4328 28.8333C32.3208 28.7322 32.2043 28.6269 32.0931 28.6593C31.8932 28.7174 31.7848 28.8979 31.6833 29.0675L31.6694 29.09L31.664 29.0985C31.241 29.1302 30.3665 29.1883 29.99 29.0962L29.9211 28.8971L29.8421 28.8677C29.7616 28.9383 29.7079 29.0341 29.6547 29.1291L29.6515 29.1349C29.588 29.2495 29.5252 29.3626 29.4183 29.43C29.3579 29.3835 29.3355 29.3278 29.3099 29.2612L29.3029 29.2449L29.3006 29.2379C29.1965 29.2318 29.0819 29.2756 28.9402 29.3297L28.9331 29.3324C28.6699 29.433 28.3155 29.5685 27.77 29.4912C27.7685 29.4947 27.7672 29.4981 27.7658 29.5014C27.7636 29.5069 27.7615 29.5122 27.7591 29.5176C27.7568 29.523 27.7552 29.5276 27.7529 29.533L27.7498 29.5416L27.749 29.5436C27.7031 29.6538 27.6809 29.707 27.5569 29.7817L27.0844 29.7949C27.0821 29.798 27.0782 29.8042 27.0782 29.8042L27.0759 29.8088L27.0736 29.8127L27.0705 29.8173C27.0682 29.8212 27.0651 29.8259 27.0627 29.8297C27.0372 29.8716 27.0116 29.9134 26.9628 29.925C26.8857 29.9427 26.7695 29.916 26.6424 29.8867L26.6406 29.8863C26.4942 29.8514 26.3323 29.8142 26.1967 29.8375C26.1052 29.8527 26.0211 29.9033 25.935 29.9552L25.9281 29.9593C25.843 30.0107 25.7548 30.0639 25.6545 30.0861C25.6111 30.0877 25.5561 30.0915 25.4949 30.0962L25.4925 30.0964C25.2105 30.1165 24.7842 30.147 24.6359 30.0234L24.5421 29.8166C24.4872 29.8328 24.4771 29.8514 24.4577 29.887L24.4571 29.8882C24.4518 29.898 24.4457 29.9093 24.4376 29.9219C24.2348 29.9581 24.0328 29.811 23.8454 29.6745L23.8426 29.6725C23.7683 29.6183 23.6962 29.5664 23.6281 29.5276L23.5801 29.3309C23.4453 29.334 23.3244 29.32 23.202 29.2596C23.0068 29.1636 22.9611 29.0373 22.8968 28.8413L22.9565 28.7367L22.9286 28.6438C22.5659 28.3244 22.6325 28.1093 22.7021 27.8843L22.7024 27.8831C22.7396 27.7631 22.7775 27.6406 22.752 27.4981C22.6694 27.3932 22.5831 27.3536 22.4806 27.3066L22.4658 27.2998C22.4399 27.2879 22.4132 27.2756 22.3848 27.2611C22.364 27.0135 22.3125 26.9395 22.2577 26.8609L22.257 26.8598C22.2176 26.8042 22.1756 26.7449 22.1424 26.6182L22.2748 26.6964C22.3616 26.4756 22.2818 25.4919 22.2237 25.2293C22.1795 25.0283 22.1243 24.8477 22.0702 24.6705L22.0649 24.653L22.0642 24.6506C21.9684 24.3377 21.8758 24.0354 21.8488 23.6576C21.8418 23.56 21.8914 23.4825 21.941 23.4051C21.9789 23.3462 22.0169 23.2873 22.0293 23.2191C22.0517 23.0983 22.0269 22.9627 22.0014 22.8249C21.9774 22.694 21.9534 22.5599 21.9681 22.4345C21.9882 22.2625 22.044 22.2199 22.161 22.1316L22.1617 22.13H22.1625C22.1686 22.1254 22.1751 22.1205 22.1816 22.1155L22.1919 22.1076C22.2212 21.9943 22.1677 21.9094 22.1099 21.8177L22.1091 21.8163C22.0564 21.7334 22.0006 21.6444 22.0006 21.5251L22.0409 21.4987C22.0703 21.4794 22.1431 21.4313 22.1586 21.4011C22.1896 21.3399 22.1927 21.082 22.1958 20.8047C22.1989 20.5119 22.2028 20.1958 22.24 20.0649C22.3174 19.7899 22.6931 19.5784 22.9216 19.4514C22.965 19.3817 22.9766 19.3228 22.9913 19.2423L22.9968 19.2105C23.0804 19.195 23.1393 19.2345 23.2013 19.2763C23.2547 19.3128 23.3105 19.3499 23.3856 19.3546C23.4776 19.2877 23.5188 19.1963 23.5576 19.1102L23.5599 19.1052L23.5631 19.098C23.596 19.0255 23.6269 18.9573 23.6862 18.9115C23.7613 18.8534 23.8426 18.8464 23.9263 18.8402L23.927 18.8402C24.0352 18.8317 24.1465 18.8229 24.2532 18.7L24.3733 18.5629L24.4073 18.6001C24.3771 18.7147 24.3508 18.8302 24.3283 18.9464C24.3686 18.9642 24.4104 18.9285 24.4701 18.8766C24.5599 18.7984 24.6924 18.6838 24.9287 18.6597C24.893 18.5916 24.8535 18.5296 24.8101 18.4661C24.8272 18.3491 24.9046 18.2895 24.9914 18.2236C25.0154 18.2058 25.0387 18.1872 25.0627 18.1663H25.0673L25.0735 18.1648L25.0766 18.1632H25.0805C25.0968 18.1593 25.1084 18.1555 25.1285 18.1431C25.1456 18.1322 25.1626 18.1206 25.1796 18.1074C25.2997 18.016 25.4182 17.8743 25.4523 17.7434C25.4473 17.7426 25.4422 17.7416 25.4372 17.7407C25.4322 17.7397 25.4271 17.7387 25.4221 17.738L25.4195 17.7373C25.4179 17.7369 25.4163 17.7365 25.4147 17.7362C25.4132 17.7358 25.4117 17.7355 25.4102 17.7352C25.408 17.7347 25.4057 17.7344 25.4035 17.7341L25.3927 17.7318L25.3826 17.7294H25.381L25.3803 17.7293C25.2885 17.7108 25.2204 17.697 25.1223 17.748L25.0743 17.8263C24.9961 17.8851 24.9093 17.8921 24.8287 17.8983L24.8271 17.8984C24.7193 17.9077 24.6224 17.916 24.5677 18.0455C24.4159 17.9022 23.9418 17.7356 23.7288 17.7395C23.6544 17.7411 23.601 17.8007 23.5576 17.8565C23.5328 17.889 23.5142 17.9355 23.4956 17.9827C23.4623 18.0672 23.4275 18.1547 23.3523 18.1648C23.2179 18.1829 23.0695 18.151 22.9186 18.1185L22.9 18.1145C22.762 18.0847 22.6235 18.0549 22.4933 18.0617C22.3508 18.0694 22.2311 18.1119 22.1123 18.154L22.1083 18.1555L22.1071 18.1559C21.9425 18.2146 21.7785 18.2731 21.5544 18.2399L21.5451 18.226C21.5413 18.2198 21.5374 18.2136 21.5335 18.2081L21.5327 18.207C21.476 18.1203 21.4517 18.0832 21.3453 18.0331L21.2368 18.0432C21.1911 18.1191 21.1911 18.1911 21.1911 18.2748V18.3096L21.1439 18.3855C21.0347 18.3879 20.9781 18.3499 20.9231 18.3119C20.8519 18.2632 20.7829 18.2159 20.6047 18.26L20.5405 18.2895C20.3267 18.3871 20.0796 18.4994 19.8518 18.5203L19.683 18.6334C19.6775 18.6322 19.6723 18.6311 19.6671 18.6299C19.6618 18.6288 19.6566 18.6276 19.6512 18.6264C19.4103 18.5807 19.0354 18.5536 18.796 18.6032C18.7082 18.6215 18.5947 18.6768 18.4787 18.7333L18.4649 18.74C18.3066 18.8168 18.1457 18.895 18.0384 18.8844C17.9665 18.8776 17.9094 18.8478 17.854 18.819L17.8492 18.8165C17.7574 18.7686 17.6708 18.7235 17.528 18.7876L17.6093 18.9115C17.6054 18.92 17.6016 18.9301 17.5985 18.9394C17.5923 18.9588 17.5853 18.9781 17.5729 18.9936C17.5494 19.0231 17.449 19.0682 17.3526 19.1114L17.3459 19.1144C17.2778 19.1447 17.2119 19.1741 17.1778 19.1958C16.7882 19.4429 16.3211 19.7489 15.9911 20.0672C15.9462 20.3678 15.9578 20.5583 16.0221 20.8535C16.0322 20.8999 16.0268 20.9294 16.012 20.9735C15.9245 20.9351 15.8766 20.8717 15.8222 20.7996L15.8207 20.7977L15.813 20.7876C15.8083 20.7822 15.8044 20.776 15.7998 20.7706L15.7239 20.7504C15.713 20.862 15.7161 20.9139 15.7696 21.0138L15.957 21.1261C15.9832 21.2702 15.9343 21.3744 15.8759 21.499L15.8749 21.501C15.868 21.5165 15.8602 21.5328 15.8525 21.5491L15.8835 21.5932C15.9478 21.6823 16.0887 21.8124 16.2313 21.9434L16.2369 21.9486C16.4148 22.1126 16.5925 22.2766 16.6201 22.3624C16.6401 22.4246 16.6342 22.4708 16.6295 22.507L16.6294 22.508C16.6201 22.5747 16.6155 22.6111 16.7867 22.6645L16.4543 23.0495C16.4605 23.0588 16.4667 23.0673 16.4729 23.0758C16.4748 23.0785 16.4767 23.0812 16.4785 23.0838C16.4809 23.0873 16.4833 23.0907 16.4857 23.094C16.49 23.1 16.4942 23.106 16.4985 23.1122L16.5031 23.1184C16.6039 23.2625 16.7061 23.4081 16.8471 23.5135C16.7379 23.57 16.6736 23.6049 16.624 23.7203V23.7288L16.6248 23.7381C16.6325 23.8272 16.6341 23.8419 16.7169 23.9078C16.8093 23.9809 16.9269 23.9753 17.0393 23.9699L17.0415 23.9697L17.0547 23.9682H17.081C17.0415 24.0193 16.9702 24.0348 16.9029 24.0488C16.8982 24.0498 16.8936 24.0508 16.889 24.0518C16.8855 24.0526 16.8819 24.0534 16.8784 24.0542C16.8693 24.0562 16.8604 24.0583 16.8517 24.0604C16.8988 24.2663 17.068 24.4638 17.2384 24.6628L17.2406 24.6654C17.4504 24.91 17.6612 25.1558 17.6527 25.4229C17.6524 25.4258 17.6522 25.4288 17.6521 25.4318C17.6517 25.4377 17.6514 25.4436 17.6504 25.4493V25.4648C17.7432 25.5591 17.8337 25.5828 17.9476 25.6126L17.9509 25.6135C17.9772 25.6197 18.0044 25.6267 18.0322 25.6352C18.0895 25.7095 18.0888 25.8125 18.088 25.9178C18.0872 26.003 18.0865 26.0891 18.1167 26.1635C18.4194 26.2463 18.4644 26.4591 18.5124 26.686L18.5129 26.6884C18.5446 26.8372 18.5773 26.9913 18.686 27.1186C18.7587 27.2036 18.8475 27.2092 18.9456 27.2154L18.9463 27.2154C18.9533 27.2159 18.9604 27.2164 18.9675 27.2168C18.9809 27.2177 18.9946 27.2185 19.0083 27.22C19.0625 27.2936 19.0602 27.3936 19.0571 27.4974C19.0547 27.5833 19.0524 27.6709 19.0819 27.7491C19.2128 27.7173 19.3375 27.6988 19.4707 27.6864C19.5304 27.7367 19.5396 27.818 19.5489 27.9033C19.5582 27.9854 19.5683 28.0729 19.6233 28.1418L19.7875 28.0264C19.9572 28.014 20.0966 28.0954 20.2407 28.1868C20.4552 28.3223 20.5459 28.4602 20.6024 28.7042L20.614 28.7553L20.6721 28.7832L20.7116 28.6872L20.7597 28.6732C20.7876 28.7259 20.8116 28.7809 20.824 28.8398C20.9997 29.6667 20.6895 29.7917 20.4664 29.8815C20.3696 29.9202 20.2887 29.9529 20.2709 30.0327C20.2586 30.087 20.257 30.1285 20.2555 30.1669L20.2554 30.1682C20.2531 30.2341 20.2507 30.2906 20.195 30.3844C19.9982 30.4835 19.8774 30.4308 19.7558 30.3774C19.6651 30.3371 19.5737 30.2976 19.4513 30.3216C19.4521 30.327 19.4529 30.3325 19.4529 30.3386C19.4529 30.34 19.453 30.3414 19.4531 30.3429C19.4532 30.3436 19.4533 30.3443 19.4534 30.345C19.4535 30.3457 19.4536 30.3464 19.4537 30.3472C19.4538 30.3484 19.454 30.3497 19.4541 30.351C19.4543 30.3526 19.4544 30.3542 19.4544 30.3557C19.4546 30.3571 19.4547 30.3586 19.4549 30.36C19.4551 30.362 19.4554 30.364 19.4557 30.366L19.4565 30.3721C19.4569 30.3751 19.4573 30.3782 19.4575 30.3813C19.4584 30.3862 19.459 30.3913 19.4596 30.3965C19.46 30.3998 19.4604 30.4031 19.4608 30.4065L19.4612 30.4094L19.4614 30.4107C19.4777 30.5439 19.4986 30.7151 19.4444 30.805C19.3328 30.8483 19.2275 30.8693 19.1105 30.8894C19.0764 30.9467 19.0423 31.0025 19.0059 31.0583C19.0034 31.0562 19.0012 31.0542 18.9991 31.0521C18.998 31.0511 18.9969 31.05 18.9959 31.049C18.9827 31.0358 18.9695 31.0234 18.9548 31.0118C18.844 30.9266 18.7643 30.9119 18.6333 30.9227C18.5861 31.0079 18.5357 31.0753 18.4691 31.1458C18.3258 31.1961 18.1438 31.2318 18.0013 31.1582C17.8401 31.0745 17.7789 30.8739 17.7263 30.6996C17.717 30.6671 17.7077 30.6361 17.6976 30.6067C17.6162 30.5391 17.5447 30.5476 17.4551 30.5584L17.4528 30.5586C17.4288 30.5617 17.404 30.5641 17.3769 30.5664C17.2383 30.4416 17.1073 29.8175 17.0152 29.3787L17.0136 29.3712V29.3704L17.0048 29.3288L17.0047 29.3281C16.9761 29.1932 16.952 29.0796 16.9331 29.0094C16.8517 28.9598 16.7727 28.9273 16.6836 28.8948C16.6178 28.7631 16.6147 28.6074 16.6124 28.4525L16.6121 28.4419C16.6099 28.3354 16.6077 28.2292 16.5837 28.1318C16.5434 27.9691 15.9299 26.7832 15.813 26.6135C15.7701 26.5514 15.6934 26.4682 15.6077 26.3752L15.5953 26.3618C15.4063 26.158 15.1817 25.9148 15.1817 25.7669L15.3002 25.6886L15.311 25.6158C15.2847 25.5895 15.2591 25.5631 15.2336 25.5368C15.201 25.5035 15.1677 25.4694 15.1344 25.4369C15.0037 25.3092 14.9172 25.1556 14.8311 25.0026L14.8292 24.9992L14.8222 24.9869C14.751 24.8608 14.6796 24.7345 14.5821 24.6235C14.4091 24.4258 14.3986 24.2243 14.3862 23.9882L14.3861 23.986C14.3838 23.9434 14.3815 23.9008 14.3784 23.8559C14.2049 23.6336 14.0437 23.4755 13.8183 23.3059L13.8193 23.2994C13.8221 23.2808 13.8248 23.2626 13.8268 23.2432C13.8315 23.2098 13.8361 23.1758 13.8416 23.1425C13.8423 23.1378 13.8431 23.1339 13.8447 23.1301V23.1262C13.8448 23.1257 13.8449 23.1252 13.845 23.1247C13.8452 23.1237 13.8454 23.1226 13.8456 23.1215C13.8459 23.1191 13.8462 23.1169 13.8462 23.1169L13.8485 23.1053L13.8501 23.0991L13.8517 23.0903C13.8597 23.046 13.8678 23.0016 13.8656 22.9565C13.8555 22.718 13.7006 22.6235 13.5348 22.5228C13.4481 22.4701 13.3598 22.4159 13.2869 22.3392L13.3357 22.295H13.3435C13.4101 22.2857 13.4744 22.2772 13.541 22.285C13.548 22.2857 13.5542 22.2865 13.5604 22.2888H13.5689L13.5875 22.2912C13.583 22.2603 13.5311 22.1872 13.4622 22.0902L13.4558 22.0812C13.3226 21.8945 13.1297 21.6227 13.077 21.3972C13.0507 21.2843 13.1056 21.1968 13.1628 21.1055L13.1658 21.1006L13.1686 21.096L13.1734 21.0881L13.178 21.0806C13.1898 21.0616 13.2015 21.0426 13.2118 21.0231C13.1718 20.9862 13.099 20.9989 13.0198 21.0127L13.0181 21.013C12.9554 21.0247 12.8888 21.0363 12.833 21.0247L12.8315 21.0223C12.8021 20.9868 12.7687 20.9463 12.7517 20.903C12.7099 20.7985 12.6998 20.7303 12.7517 20.635C12.8524 20.6211 12.9523 20.6133 13.0538 20.6079L13.0755 20.5459C12.9824 20.5013 12.8798 20.4899 12.7776 20.4786L12.7703 20.4778L12.7517 20.4747H12.7416L12.7315 20.4731C12.7222 20.4724 12.7137 20.4708 12.7044 20.47C12.6084 20.3533 12.565 20.2061 12.5212 20.058L12.519 20.0505C12.4899 19.9517 12.4607 19.8524 12.4155 19.762C12.3675 19.666 12.2954 19.5823 12.2234 19.4994L12.2141 19.4886C12.1699 19.4372 12.1255 19.3856 12.0878 19.3306C12.0173 19.2283 12.022 19.1509 12.0452 19.0393L12.2304 18.9285L12.2002 18.9192C12.194 18.9169 12.1885 18.9154 12.1823 18.9138C12.1751 18.9118 12.1676 18.9097 12.1601 18.9076L12.1558 18.9064L12.149 18.9045L12.1428 18.9022H12.1421C12.0576 18.8782 11.9786 18.855 11.905 18.824C11.7834 18.7721 11.6788 18.6977 11.5998 18.556C11.5936 18.5324 11.5871 18.5084 11.5804 18.484L11.5797 18.4814C11.5774 18.473 11.575 18.4645 11.5727 18.456C11.5162 18.2531 11.4565 18.0377 11.5456 17.8402C11.5786 17.7665 11.3961 17.596 11.2329 17.4436L11.2226 17.434C11.1197 17.3379 11.0261 17.2505 11.0026 17.2011C10.9976 17.1897 10.9998 17.1321 11.002 17.0757L11.0026 17.0617C11.0049 17.0199 11.0065 16.9796 11.0049 16.9633C10.9019 16.9107 10.8027 16.882 10.692 16.8533L10.6215 16.7325C10.5936 16.5753 10.6494 16.4281 10.7051 16.2817L10.7137 16.2584C10.7148 16.2557 10.7158 16.2528 10.7168 16.2499C10.7177 16.247 10.7187 16.2441 10.7199 16.2414L10.7245 16.2275C10.7268 16.2228 10.7284 16.2182 10.7299 16.2135L10.7323 16.2065L10.6881 16.1438H10.6463C10.551 16.1446 10.4201 16.1453 10.3612 16.0749C10.314 16.0183 10.2721 15.9292 10.2334 15.8463L10.2323 15.8439C10.2133 15.8038 10.1951 15.7651 10.1776 15.7325C9.94214 15.301 9.6842 14.9269 9.26513 14.6527C9.17631 14.4637 9.1109 14.2697 9.04543 14.0755L9.03971 14.0585C9.03456 14.0434 9.02941 14.0283 9.02426 14.0132C8.98455 13.8964 8.94467 13.7793 8.89873 13.6627L8.89409 13.6658L8.88789 13.6697C8.8724 13.6797 8.8569 13.6898 8.84064 13.6968C8.72599 13.7495 8.64234 13.7409 8.53157 13.6991L8.48354 13.5837C8.50368 13.5388 8.52382 13.4962 8.54861 13.4543L8.57185 13.4156C8.53389 13.3428 8.48586 13.2971 8.43784 13.2514L8.43263 13.2464C8.40022 13.2155 8.36732 13.1841 8.33791 13.1437C8.29075 13.0788 8.29761 12.9683 8.30456 12.8562C8.31386 12.7175 8.32242 12.5775 8.22869 12.5232C8.17524 12.493 8.08848 12.4752 8.00483 12.4582L7.99446 12.4561C7.94081 12.4452 7.88911 12.4348 7.84835 12.4202C7.80033 12.4039 7.69808 12.3513 7.68259 12.2963C7.66477 12.2312 7.66864 12.1723 7.67251 12.1142L7.67257 12.1135C7.67797 12.0308 7.68318 11.9513 7.62526 11.8609L7.39598 11.8346C7.31619 11.6812 7.29605 11.5488 7.27669 11.3791C7.21084 11.2637 7.06134 11.1917 6.93121 11.1297C6.90332 11.1165 6.87543 11.1034 6.84987 11.0902C6.81424 10.7772 6.72903 10.4852 6.64227 10.1901L6.62485 10.1296C6.5949 10.0258 6.56481 9.92151 6.53693 9.81517C6.07758 9.34498 5.60196 8.77176 5.30993 8.17763C5.3231 7.90806 5.29057 7.72371 5.15424 7.48977C5.06593 7.47893 4.99544 7.45956 4.9141 7.42393C4.80659 7.30797 4.78283 7.12882 4.76129 6.96648L4.76073 6.96226C4.75885 6.94908 4.75709 6.93603 4.75536 6.92317C4.75282 6.90427 4.75032 6.88571 4.74756 6.86775L4.72355 6.84064C4.5465 6.63973 4.4383 6.45871 4.31609 6.25425L4.31378 6.25038C4.27659 6.18842 4.23786 6.12412 4.19603 6.05596C4.06938 5.85131 4.01434 5.8376 3.79832 5.78379L3.78394 5.78019C3.77309 5.73526 3.8095 5.69653 3.84978 5.65393C3.88076 5.6214 3.9133 5.58654 3.92879 5.54548C3.84746 5.43239 3.72662 5.36345 3.60423 5.29373C3.50895 5.23951 3.4129 5.18451 3.33389 5.10782C3.47236 4.90592 3.06619 4.46685 2.76035 4.13624L2.75912 4.13491C2.61194 3.97611 2.488 3.8421 2.46089 3.77316C2.4456 3.73456 2.43852 3.67678 2.43193 3.623L2.43068 3.61281C2.42758 3.58648 2.42448 3.56091 2.42061 3.54C2.30132 3.64225 2.21921 3.70112 2.06196 3.70499C1.97318 3.6193 1.95365 3.49975 1.93435 3.38162L1.93415 3.38043C1.93028 3.35719 1.92641 3.33395 1.92253 3.31149C1.67078 3.14804 1.44382 2.97221 1.21143 2.78397C1.18587 2.84284 1.17348 2.86531 1.11848 2.89862C0.932683 2.83823 0.929478 2.78481 0.924835 2.70742L0.924713 2.70541C0.921644 2.65465 0.91793 2.59321 0.861308 2.51363C0.667654 2.42765 0.496463 2.32308 0.319076 2.20766C0.316447 2.20591 0.313755 2.20415 0.311037 2.20238C0.304146 2.19789 0.297081 2.19329 0.290415 2.18829H0.288866L0.275593 2.17999C0.21538 2.14234 0.153354 2.10356 0.101408 2.05738C0.0102588 1.97705 0.00230141 1.80197 -0.00388749 1.66579L-0.00393941 1.66465C-0.00471403 1.63754 -0.00626327 1.61198 -0.0078125 1.58951C0.0123251 1.57402 0.0332371 1.56008 0.0541492 1.54614C0.17344 1.46558 0.281894 1.39121 0.30126 1.22932C0.308231 1.17045 0.305907 1.12165 0.303584 1.07749L0.30354 1.07652C0.298913 0.973987 0.295456 0.897392 0.420551 0.773842C0.484069 0.711098 0.594065 0.675466 0.700188 0.641383C0.813158 0.605016 0.921768 0.570052 0.961233 0.50505L0.867505 0.379562C0.872899 0.374168 0.878293 0.368689 0.883715 0.363182C0.894642 0.352082 0.905692 0.340857 0.91708 0.329987C0.969754 0.278088 1.02243 0.225414 1.06503 0.167317L1.13552 0.224639L1.10454 0.18126C1.40044 0.299777 1.53677 0.258722 1.81021 0.175063H1.81099C1.81709 0.173205 1.82329 0.171256 1.82958 0.169278C1.84164 0.165484 1.85403 0.161586 1.86676 0.158022C1.87063 0.156473 1.87451 0.154923 1.87838 0.1526C1.88613 0.147952 1.8931 0.144079 1.90007 0.147952C1.91866 0.158796 1.92718 0.179711 1.93493 0.2014C1.9388 0.212245 1.94267 0.22309 1.9481 0.232385L1.94577 0.350901C2.02633 0.399702 2.14407 0.403575 2.23548 0.38421C2.31933 0.366677 2.41894 0.32814 2.52322 0.287792L2.53035 0.285035C2.72186 0.210901 2.92617 0.13181 3.06819 0.166543C3.0984 0.262595 3.12939 0.357873 3.16502 0.452376C3.22919 0.419526 3.25569 0.385922 3.29802 0.332245L3.2998 0.329987L3.30135 0.327663L3.69873 0.40435L3.75605 0.358648L3.77232 0.187457C3.83816 0.140206 3.89858 0.107672 3.97294 0.0766871L4.02097 0V0.00154923L4.02407 0.00697155C4.02717 0.0131685 4.03027 0.0193654 4.03414 0.0247877C4.11005 0.148726 4.29519 0.256398 4.43926 0.280411C4.54848 0.298228 4.71038 0.254074 4.85213 0.215344C4.91023 0.199077 4.96445 0.184359 5.01093 0.175063L5.04114 0.21302L4.93502 0.346254C5.04734 0.402801 5.21621 0.377239 5.41451 0.346254C5.72745 0.297453 6.11166 0.238582 6.45404 0.476389C6.70115 0.453151 6.92501 0.420617 7.16204 0.34393C7.17211 0.340831 7.18296 0.336184 7.1938 0.331536C7.23021 0.316044 7.27049 0.299002 7.29992 0.323015C7.33866 0.354 7.3557 0.389632 7.37506 0.431462L7.37739 0.436884L7.38048 0.443856L7.38436 0.451602C7.55942 0.473291 7.73913 0.458573 7.91807 0.443856C8.00483 0.436884 8.09236 0.429912 8.17834 0.426814C8.36038 0.518993 8.48586 0.514346 8.60438 0.509698L8.6054 0.509659C8.70573 0.505799 8.80076 0.502143 8.92042 0.558499C8.9568 0.549228 8.9912 0.536017 9.02484 0.523098L9.03352 0.519768C9.12415 0.484136 9.20626 0.452376 9.30076 0.502726C9.36505 0.53681 9.40921 0.584836 9.45181 0.631313C9.51146 0.696381 9.56878 0.75835 9.67335 0.776941L9.75004 0.704901C9.71312 0.633373 9.67773 0.616829 9.61884 0.589301L9.61758 0.588709C9.61173 0.585784 9.60553 0.582858 9.59899 0.57977C9.59168 0.57632 9.58392 0.572654 9.57575 0.568569C9.6199 0.561597 9.6656 0.553851 9.71286 0.54533L9.71689 0.544617C9.90868 0.510723 10.1184 0.473653 10.2938 0.52519L10.2961 0.527514L10.2988 0.52981C10.3469 0.571164 10.3804 0.59987 10.4108 0.659199C10.4844 0.804827 10.8353 1.00158 11.0653 1.13017L11.0909 1.14441C11.1347 1.16871 11.1733 1.19019 11.2032 1.2084L11.2629 1.20066L11.2675 1.18904L11.3775 1.15728L11.338 1.11855C11.4282 1.16174 11.477 1.23411 11.5248 1.30508L11.5255 1.306C11.5665 1.36797 11.6076 1.42839 11.6734 1.46712C11.7788 1.52832 11.9267 1.46945 12.0638 1.41445C12.1668 1.3734 12.2629 1.33544 12.3311 1.35093C12.4682 1.38269 12.6107 1.49424 12.7517 1.60501L12.7542 1.60696C12.892 1.71474 13.0282 1.8213 13.1568 1.85056C13.2691 1.87535 13.4124 1.83972 13.5581 1.80253L13.5589 1.80233C13.7585 1.75205 13.9634 1.70042 14.1042 1.80253C14.091 1.87922 14.0678 1.92647 14.0313 1.99309C14.063 2.02014 14.2019 2.03948 14.3849 2.06496L14.3861 2.06513C14.7161 2.11006 15.1863 2.1759 15.4195 2.34012C15.4311 2.32695 15.4419 2.31378 15.4528 2.29984C15.4961 2.24639 15.5403 2.19217 15.6131 2.18907C15.8253 2.18055 16.0445 2.37414 16.1971 2.50892L16.2127 2.52293C16.2816 2.52808 16.3548 2.53109 16.4301 2.53419C16.4453 2.53481 16.4606 2.53544 16.476 2.5361C16.7208 2.54539 16.9842 2.55624 17.1941 2.61666C17.2472 2.63141 17.3081 2.67639 17.37 2.72213L17.3792 2.72898C17.4621 2.79094 17.5458 2.85291 17.6109 2.84749C17.6519 2.84439 17.7464 2.77081 17.7766 2.74524C17.8107 2.71658 17.8432 2.68715 17.8758 2.65694L17.8835 2.64996C18.0717 2.6337 18.1841 2.72355 18.3243 2.84207C18.3955 2.90172 18.449 2.97298 18.5024 3.04812L19.2344 3.0791C19.4227 3.20537 19.6744 3.48965 19.8286 3.66394L19.837 3.6735C19.9023 3.74749 19.9485 3.79988 19.9634 3.80879C20.0583 3.86623 20.1866 3.89565 20.3168 3.92551L20.3212 3.92653C20.5017 3.96759 20.6861 4.01019 20.7945 4.12793C20.8811 4.22211 20.9093 4.34505 20.9376 4.46832L20.9386 4.47264C20.9665 4.59813 20.9952 4.72361 21.0835 4.82122C21.0982 4.80792 21.1179 4.78619 21.1392 4.76271L21.1423 4.75925C21.1973 4.69805 21.2655 4.62291 21.3089 4.62291C21.3304 4.62291 21.4017 4.65706 21.5031 4.70559L21.5165 4.712C21.7504 4.82431 22.13 5.00635 22.422 5.03733C22.7559 5.35648 23.1625 5.64463 23.611 5.77632C23.7156 5.75928 23.7907 5.72752 23.8829 5.67717C23.9845 5.73976 24.0687 5.83395 24.1526 5.92786L24.1564 5.93202C24.2996 6.09301 24.4416 6.25271 24.6645 6.25116C24.7458 6.18609 24.7691 6.11947 24.8008 6.02652L24.8047 6.01645L24.8078 6.00715C24.962 5.98547 25.2036 6.14194 25.4221 6.28447L25.433 6.29156C25.5482 6.36639 25.6564 6.43665 25.742 6.4727C25.8071 6.33947 25.8597 6.25813 25.9744 6.1613L26.0255 6.18377C26.0283 6.20461 26.0303 6.2275 26.0324 6.25124C26.0332 6.25998 26.034 6.26936 26.0348 6.27827C26.0441 6.39446 26.0557 6.52537 26.1285 6.59664C26.1773 6.56798 26.2285 6.52925 26.2811 6.48897L26.2829 6.48764C26.4234 6.3811 26.5762 6.26526 26.7382 6.30306C26.8141 6.3201 26.8381 6.33559 26.8776 6.40608C26.907 6.45953 26.921 6.52228 26.9334 6.58192L26.9357 6.59122C26.9361 6.59276 26.9364 6.5943 26.9367 6.59584C26.937 6.5974 26.9373 6.59897 26.9376 6.60053L26.9381 6.60277C26.9385 6.60512 26.939 6.60746 26.9396 6.60981C27 6.5899 27.0465 6.56788 27.0889 6.54777L27.0953 6.54474C27.1758 6.50601 27.244 6.47347 27.3757 6.46573C27.395 6.46728 27.4152 6.46883 27.4361 6.46883C27.4411 6.46883 27.4464 6.46902 27.4516 6.46921C27.4568 6.46941 27.462 6.4696 27.4671 6.4696C27.5399 6.4727 27.6119 6.482 27.6569 6.53622C27.6568 6.53611 27.6569 6.53631 27.6569 6.53622L27.6575 6.53697L27.6581 6.53793C27.6583 6.53812 27.6587 6.53876 27.6588 6.53893C27.6587 6.53881 27.659 6.53907 27.6588 6.53893C27.6604 6.54047 27.6615 6.54319 27.6631 6.54474L27.6639 6.54602C27.6645 6.54684 27.6651 6.54771 27.6657 6.54858C27.6667 6.54994 27.6677 6.55132 27.6685 6.55248C27.6956 6.59199 27.7126 6.64157 27.7281 6.68882C27.7288 6.69115 27.7296 6.69353 27.7304 6.69593C27.7311 6.69819 27.7319 6.70048 27.7327 6.70274L27.735 6.70951C27.7361 6.71275 27.7372 6.71603 27.7382 6.71903L27.8792 6.76241L28.0341 6.77325L28.0899 6.88247C28.1203 6.8757 28.1524 6.8677 28.1859 6.85937L28.2062 6.85432L28.2239 6.84994C28.3796 6.81043 28.5554 6.76705 28.6956 6.77712C28.9195 6.79417 29.2301 6.93127 29.5462 7.07148C29.825 7.19542 30.1077 7.3209 30.3386 7.36583C30.4411 7.38649 30.5648 7.36407 30.6873 7.34186L30.6918 7.34105L30.6941 7.34063C30.8537 7.31211 31.0107 7.28404 31.1155 7.34957C31.1871 7.39417 31.2532 7.45406 31.3179 7.51253L31.3193 7.51378C31.328 7.52148 31.3367 7.52925 31.3454 7.53703C31.363 7.5527 31.3807 7.56852 31.3983 7.5835C31.5199 7.59125 31.6446 7.57963 31.7685 7.56801C31.9095 7.55484 32.0489 7.54245 32.1806 7.55794C32.4494 7.5897 32.695 7.71519 32.939 7.84067C33.128 7.9375 33.317 8.03433 33.5161 8.087L33.5254 8.08932L33.5285 8.09087H33.5308L33.5362 8.09242L33.5409 8.09397C33.5765 8.10559 33.6098 8.11566 33.6439 8.09707C33.7097 8.06066 33.7601 8.03665 33.8352 8.02503C33.9049 8.11256 33.9762 8.19932 34.0482 8.2853C34.1471 8.28684 34.208 8.2459 34.2618 8.20977L34.2636 8.20862C34.3519 8.14897 34.4185 8.10404 34.5951 8.28608C34.6586 8.35189 34.7151 8.4239 34.7716 8.49591C34.8538 8.60049 34.9367 8.70592 35.0413 8.79113C35.1163 8.78494 35.1736 8.7579 35.2293 8.7316C35.2951 8.69984 35.3604 8.66951 35.4526 8.67416C35.4672 8.70763 35.475 8.74613 35.4826 8.78399L35.4851 8.79655L35.4853 8.79722C35.5015 8.88064 35.5171 8.96085 35.5866 8.99175C35.6765 8.9468 35.7312 8.89209 35.778 8.84534L35.7803 8.84303C35.8655 8.75627 35.9259 8.69585 36.1288 8.76247C36.1877 8.78183 36.2675 8.81669 36.3543 8.85542L36.3557 8.85607C36.5483 8.94114 36.7767 9.04206 36.9011 9.02506L36.85 8.84303C36.956 8.77777 37.106 8.79621 37.2376 8.81238L37.2412 8.81282C37.2722 8.81669 37.3016 8.82056 37.3295 8.82289C37.4976 8.83761 37.5921 8.91584 37.716 9.01887L37.7207 9.02274C37.8942 9.01344 38.0321 8.9933 38.1583 8.97471C38.424 8.93598 38.6386 8.905 39.0189 8.99253C39.0972 8.89957 39.1088 8.82289 39.1243 8.71754C39.1261 8.70472 39.1282 8.69137 39.1304 8.67731C39.132 8.66758 39.1336 8.65751 39.1351 8.64705H39.2126C39.2459 8.71289 39.2374 8.76789 39.2265 8.83373L39.2242 8.84535C39.2234 8.85077 39.2219 8.85542 39.2219 8.86007L39.2258 8.86239L39.2265 8.86287C39.2989 8.90753 39.3461 8.93667 39.4349 8.91274C39.4977 8.8957 39.5666 8.8562 39.6286 8.81979L39.6338 8.81665C39.6511 8.80624 39.6674 8.79647 39.6836 8.78803C39.7053 8.81514 39.7215 8.83838 39.7355 8.85852C39.7788 8.92204 39.8013 8.9538 39.9144 8.96852C39.916 8.96697 39.9198 8.96542 39.9198 8.96542L39.9229 8.96387L39.9252 8.96232L39.9283 8.96077C39.9307 8.95922 39.9353 8.9569 39.9353 8.9569L39.9407 8.9538L39.9469 8.94992C39.9508 8.9476 39.9555 8.94528 39.9593 8.94295L39.9603 8.94239C40.0142 8.91158 40.0689 8.88034 40.1266 8.90112C40.192 8.92494 40.2336 8.97086 40.2789 9.02074L40.28 9.02196L40.2893 9.03281C40.3513 9.02351 40.3776 8.99408 40.4032 8.96542L40.4041 8.96442C40.4324 8.93301 40.4598 8.9027 40.5364 8.905C40.7401 8.91042 41.1522 9.11569 41.5581 9.31864C42.0423 9.56032 42.5187 9.79813 42.6294 9.69123L42.6534 9.60835C42.655 9.60929 42.6572 9.61048 42.6593 9.61156C42.6602 9.61206 42.6611 9.61253 42.6619 9.61294L42.6633 9.61363L42.6651 9.61455L42.6689 9.6161L42.6728 9.61842L42.6751 9.61997C42.677 9.62092 42.679 9.62175 42.6808 9.62255C42.6835 9.6237 42.686 9.6248 42.6883 9.62616L42.6896 9.6268C42.7284 9.64582 42.7559 9.65927 42.7712 9.71137C42.7867 9.76405 42.7906 9.81052 42.7929 9.86552C42.8858 9.92904 42.9943 9.98171 43.102 10.0336C43.236 10.0987 43.37 10.1638 43.4753 10.2505C43.6931 10.4299 43.8933 10.7148 44.0859 10.9887L44.0919 10.9972C44.2019 11.1545 44.3096 11.3079 44.4165 11.4357L44.4219 11.4961L44.2267 11.4643C44.2577 11.6247 44.3429 11.7819 44.4242 11.9307L44.4413 11.9624C44.4443 11.9678 44.4472 11.9731 44.45 11.9784L44.4508 11.9798C44.4535 11.9848 44.4562 11.9899 44.4591 11.9949L44.4846 12.0437L44.48 12.0499L44.479 12.0513C44.087 12.5609 43.5096 13.3119 42.827 13.3986C42.7952 13.4032 42.7634 13.4032 42.7317 13.4032C42.717 13.3815 42.703 13.3606 42.6906 13.3397C42.6387 13.2576 42.5946 13.1879 42.4931 13.1483C42.3441 13.2572 42.3136 13.4075 42.2827 13.5596L42.2824 13.5612C42.2599 13.6735 42.2367 13.7866 42.1662 13.885C42.143 13.8788 42.1197 13.8718 42.0965 13.8649C41.971 13.8277 41.8401 13.7897 41.7224 13.8486C41.7148 13.8651 41.7077 13.8823 41.7004 13.8997C41.6964 13.9092 41.6924 13.9188 41.6883 13.9284C41.6379 14.05 41.5821 14.1825 41.4714 14.246C41.3296 14.2382 41.2924 14.2073 41.1933 14.0973C41.1685 14.0701 41.1453 14.0423 41.122 14.0136L41.1197 14.0105C41.0879 14.0477 41.0732 14.0949 41.0601 14.1406C41.0376 14.2158 41.0167 14.2855 40.9206 14.294C40.8625 14.2987 40.7967 14.2909 40.7308 14.2824C40.6216 14.2684 40.5109 14.2553 40.4264 14.301L40.39 14.4257C40.2426 14.488 40.0638 14.5041 39.8947 14.5193L39.885 14.5202C39.8781 14.5208 39.8713 14.5214 39.8645 14.5221L39.8439 14.5239C39.808 14.5271 39.7729 14.5302 39.7386 14.5341C39.7157 14.5589 39.6927 14.5836 39.6697 14.6084L39.6689 14.6093C39.6461 14.6338 39.6233 14.6583 39.6007 14.6829L39.5865 14.6981C39.4765 14.8163 39.3656 14.9355 39.249 15.0454C39.0399 15.0795 38.8811 15.1569 38.7192 15.2359C38.6053 15.2917 38.4907 15.3475 38.3566 15.3893C38.2038 15.4367 38.0524 15.4637 37.9026 15.4905L37.8965 15.4916C37.6494 15.5349 37.4062 15.5783 37.163 15.7108L37.0677 15.8216H37.0661L37.0639 15.821C36.9146 15.7856 36.7888 15.7558 36.6339 15.7728C36.2239 15.7943 35.8292 15.8953 35.4323 15.9968L35.4239 15.9989C35.1559 16.0679 34.8871 16.1368 34.6129 16.1817L34.6059 16.3212C34.5122 16.3909 34.4239 16.4134 34.3062 16.3948C34.2545 16.3873 34.1971 16.3581 34.1478 16.3331L34.1427 16.3305C34.135 16.3266 34.1272 16.3227 34.1203 16.3189C33.9272 16.3358 33.7303 16.4749 33.5569 16.5975L33.5532 16.6C33.5091 16.6318 33.4665 16.662 33.4254 16.6891C33.3596 16.7364 33.293 16.7774 33.224 16.8185L33.2189 16.8215L33.2158 16.8233C33.2121 16.8255 33.2084 16.8278 33.2046 16.83C33.2013 16.8319 33.1979 16.8337 33.1946 16.8355C33.1915 16.8344 33.1884 16.8334 33.1854 16.8324L33.1834 16.8318L33.1817 16.8313L33.1799 16.8307C33.1786 16.8303 33.1773 16.8298 33.176 16.8293L33.1481 16.82L33.1422 16.818L33.1354 16.8157L33.1297 16.8137C33.1245 16.812 33.1194 16.8102 33.114 16.8084L33.0846 16.7983C33.0831 16.7978 33.0816 16.7973 33.0801 16.7968L33.0783 16.7962L33.0753 16.7952C33.0722 16.7943 33.0691 16.7933 33.066 16.7921L33.0451 16.7852C33.0398 16.7835 33.0346 16.7819 33.0293 16.7802C33.0256 16.779 33.0219 16.7777 33.0182 16.7765C33.0148 16.7753 33.0113 16.7741 33.0079 16.7728L32.9991 16.7698C32.9959 16.7688 32.9926 16.7677 32.9894 16.7665C32.9816 16.7639 32.9739 16.7611 32.9661 16.7581L32.956 16.7542C32.8584 16.7186 32.7717 16.7325 32.6787 16.7542C32.6717 16.7565 32.6648 16.7581 32.6578 16.7596L32.6392 16.7643L32.6222 16.7689C32.6207 16.7693 32.6193 16.7697 32.6178 16.77C32.6166 16.7703 32.6154 16.7706 32.6141 16.7708C32.6133 16.771 32.6123 16.7712 32.6115 16.7714C32.6108 16.7715 32.6101 16.7717 32.6094 16.7719C32.6083 16.7721 32.6071 16.7724 32.6059 16.7728L32.5997 16.7712L32.5958 16.7697L32.5865 16.7666H32.585L32.5741 16.7635L32.5703 16.7619H32.5687C32.482 16.7364 32.4564 16.7286 32.4053 16.6256C32.3766 16.5675 32.3766 16.5164 32.3805 16.4529C32.4277 16.3979 32.4595 16.37 32.5261 16.3359L32.4912 16.3026C32.3087 16.3365 32.2096 16.4493 32.1316 16.5381L32.1303 16.5396C32.0505 16.631 31.9924 16.6969 31.8878 16.6256C31.8677 16.6117 31.8483 16.5969 31.8305 16.5822L31.8271 16.5796C31.7781 16.5411 31.7336 16.5062 31.6647 16.5001L31.6523 16.5249C31.619 16.5931 31.5888 16.6434 31.5361 16.6984C31.4951 16.6837 31.4447 16.6636 31.389 16.6411H31.3882C31.1496 16.5443 30.8088 16.4064 30.6391 16.4862C30.5841 16.5125 30.5198 16.5505 30.4532 16.5907C30.3324 16.6636 30.2015 16.7418 30.0985 16.7619C30.0388 16.7739 29.9841 16.765 29.929 16.756L29.9226 16.755L29.9195 16.7545C29.8485 16.743 29.7766 16.7314 29.6949 16.7612C29.6616 16.7728 29.6461 16.7968 29.629 16.8239C29.6073 16.8588 29.5826 16.8975 29.5152 16.9184C29.4152 16.875 29.3316 16.8317 29.2456 16.7635C29.2348 16.7736 29.2237 16.7836 29.2127 16.7937C29.2017 16.8037 29.1905 16.8139 29.1798 16.8239C29.1349 16.8649 29.0899 16.906 29.0465 16.9486C28.8893 17.1043 28.0171 17.3809 27.7738 17.3824C27.7591 17.3824 27.7382 17.3793 27.7219 17.3762L27.7157 17.3747H27.7111L27.6251 17.2724L27.5748 17.3042V17.3344C27.5755 17.4008 27.5402 17.4879 27.5061 17.5719L27.5035 17.5784C27.4624 17.6783 27.4245 17.772 27.4516 17.8162C27.4756 17.8224 27.5112 17.8286 27.5515 17.8356L27.5561 17.8364C27.6553 17.8541 27.7799 17.8763 27.8242 17.9045C27.8811 17.9407 27.9141 17.9727 27.9392 17.9971L27.9427 18.0005C28.0039 18.061 28.0202 18.0765 28.244 18.0091C28.2347 17.9378 28.1913 17.889 28.1487 17.8418C28.0852 17.7713 28.024 17.7023 28.0767 17.5629C28.1317 17.614 28.1642 17.6644 28.2022 17.7279C28.3052 17.7426 28.4036 17.7596 28.5043 17.7868C28.5353 17.8518 28.5299 17.8983 28.5221 17.9641L28.5206 17.9758L28.5879 18.0238L28.6484 17.9967L28.6437 17.8317C28.8086 17.8402 28.9649 17.9307 29.1173 18.0189L29.1211 18.021C29.2787 18.1118 29.4326 18.2004 29.5888 18.1942C29.6407 18.1206 29.6461 18.037 29.6515 17.951C29.6519 17.9478 29.6522 17.9445 29.6525 17.9411C29.6528 17.9371 29.653 17.9331 29.653 17.9293C29.653 17.9254 29.6534 17.9217 29.6538 17.9181C29.6542 17.9144 29.6546 17.9107 29.6546 17.9068C29.8072 17.9076 30.0466 18.1578 30.1992 18.3181H30.1999C30.2278 18.3476 30.2534 18.3739 30.2743 18.3948C30.2751 18.3879 30.2756 18.3807 30.2762 18.3735C30.2768 18.3664 30.2774 18.3592 30.2782 18.3522C30.2782 18.3498 30.2783 18.3474 30.2785 18.3451C30.2786 18.3445 30.2787 18.3439 30.2787 18.3434L30.279 18.3417C30.2794 18.3393 30.2799 18.3369 30.2805 18.3344V18.322C30.2913 18.1951 30.3023 18.067 30.3688 17.9572C30.4329 17.9989 30.487 18.0499 30.5404 18.1001C30.6155 18.1714 30.691 18.2422 30.7948 18.2856C30.9025 18.3311 31.0347 18.338 31.1652 18.3448L31.1736 18.3453L31.1783 18.3455C31.3277 18.3532 31.4737 18.3606 31.5772 18.4235C31.8228 18.5714 33.152 19.8651 33.2209 20.0812C33.2307 20.1104 33.2107 20.1367 33.1918 20.1616L33.19 20.1641C33.1745 20.1834 33.1605 20.2012 33.1621 20.2183C33.1628 20.2206 33.2047 20.2632 33.2078 20.2655C33.269 20.3252 33.3402 20.3724 33.4107 20.4189C33.4634 20.4538 33.5161 20.4886 33.5649 20.5289C33.7269 20.6632 33.8374 20.9043 33.9355 21.1182L33.9367 21.1207C33.9653 21.185 33.994 21.2462 34.0219 21.302C34.5486 21.398 35.0211 22.0332 35.3999 22.5437L35.4025 22.5471C35.5038 22.6837 35.5982 22.811 35.6858 22.9163C35.7322 22.9728 35.7926 23.0223 35.853 23.0719C35.9235 23.13 35.9941 23.1882 36.0405 23.2556C36.0676 23.2951 36.0862 23.3423 36.1033 23.3872L36.1048 23.3903C36.1259 23.4039 36.1489 23.4171 36.1728 23.4308C36.1858 23.4383 36.1991 23.4459 36.2125 23.4539H36.2133C36.3481 23.5298 36.5007 23.6165 36.5518 23.7389C36.4906 23.8644 36.3721 23.9488 36.2582 24.0247L36.2667 24.0294L36.2768 24.0348L36.2791 24.0364L36.2853 24.0395C36.2863 24.0399 36.2874 24.0403 36.2885 24.0408C36.2896 24.0413 36.2907 24.0419 36.2917 24.0423L36.2941 24.0435L36.2954 24.0441L36.3008 24.0472L36.3047 24.0495C36.3958 24.0947 36.5307 24.1104 36.6497 24.1242L36.654 24.1247L36.6561 24.1249C36.7582 24.1364 36.8479 24.1465 36.8856 24.1735ZM17.1182 15.2026C17.1159 15.1523 17.0826 15.1321 17.0438 15.1089L17.0431 15.1066C17.0121 15.088 16.9772 15.0671 16.9524 15.026L16.954 15.0245C16.9772 15.0051 17.0005 14.985 17.0229 14.9641C17.1205 14.8711 17.1352 14.8331 17.1383 14.7046C17.0221 14.4551 16.8548 14.2692 16.6248 14.1197C16.5303 14.1104 16.5039 14.1523 16.4737 14.2011C16.4497 14.2398 16.4226 14.2832 16.3575 14.3095C16.3289 14.2932 16.3025 14.277 16.2762 14.2568C16.1216 14.1385 16.1066 13.9855 16.0896 13.8117L16.0895 13.8106C16.0872 13.7866 16.0849 13.7626 16.0818 13.7378C16.0051 13.7495 15.9865 13.7928 15.9648 13.844L15.9631 13.8478C15.9473 13.8832 15.93 13.9219 15.8904 13.9563C15.7597 13.9586 15.7053 13.9205 15.6159 13.8578L15.6139 13.8563C15.606 13.8511 15.598 13.8455 15.5897 13.8397C15.5808 13.8335 15.5716 13.8271 15.562 13.8207C15.476 13.8432 15.4721 13.8486 15.4303 13.9113L15.429 13.9134L15.4265 13.9172C15.4246 13.9202 15.4226 13.9233 15.4206 13.9264L15.4171 13.9315C15.1351 13.5806 14.8268 13.4673 14.4908 13.3437L14.4806 13.3399C14.3064 13.2757 14.1246 13.2088 13.9345 13.1042C13.8478 13.0562 13.7726 12.9927 13.6983 12.9291L13.6942 12.9257C13.6088 12.8533 13.5239 12.7812 13.4225 12.7355C13.3308 12.7852 13.2941 12.8417 13.238 12.928L13.2358 12.9315V12.9338C13.2347 12.938 13.2335 12.9421 13.2323 12.9462C13.2312 12.9502 13.23 12.9543 13.2288 12.9586C13.2072 13.036 13.1824 13.091 13.1413 13.16C13.0832 13.2568 13.0484 13.4133 13.0824 13.5256C13.1131 13.6268 13.2015 13.7273 13.2912 13.8293L13.2939 13.8323C13.3706 13.9191 13.4473 14.0058 13.4899 14.0942C13.4922 14.1158 13.4938 14.1391 13.4953 14.1623C13.5023 14.2677 13.51 14.3823 13.5813 14.4567C13.6014 14.4505 13.62 14.4435 13.6371 14.4365L13.639 14.4358C13.7093 14.4091 13.7602 14.3897 13.8416 14.4334C14.0174 14.5279 14.1297 14.7905 14.2444 15.0601C14.3846 15.3885 14.5294 15.727 14.7982 15.7813C14.8647 15.7563 14.9179 15.7086 14.9693 15.6624L14.9733 15.6589L14.9748 15.6575C15.0362 15.6022 15.0947 15.5496 15.17 15.538C15.1935 15.579 15.1934 15.6553 15.1933 15.7256L15.1933 15.7379L15.1933 15.7388C15.1925 15.8097 15.1918 15.8719 15.2142 15.8789C15.3435 15.7728 15.4729 15.6659 15.5984 15.5543C15.6279 15.5517 15.6612 15.5474 15.6965 15.5429L15.7206 15.5398C15.8966 15.5174 16.12 15.489 16.2491 15.5489C16.2793 15.5628 16.3064 15.5822 16.3327 15.6016C16.3614 15.6225 16.3901 15.6426 16.4226 15.6566C16.5721 15.5597 16.6999 15.4993 16.8719 15.4513C16.9214 15.3304 16.9764 15.2871 17.0833 15.2228L17.1182 15.2026ZM26.2416 17.7093C26.2959 17.5947 26.3935 17.5668 26.5011 17.5366V17.5358L26.5103 17.5332C26.5322 17.5271 26.5546 17.5208 26.577 17.5133L26.56 17.4645C26.3671 17.4157 26.2533 17.4823 26.1169 17.5621L26.1156 17.5629C25.9803 17.6417 25.8232 17.7333 25.5453 17.7387C25.5445 17.827 25.5662 17.8991 25.5879 17.9711L25.5887 17.974C25.6055 18.0303 25.622 18.086 25.6274 18.1485C25.639 18.1539 25.6498 18.1601 25.6599 18.1663L25.6808 18.1779L25.6818 18.1785C25.7665 18.227 25.8323 18.2647 25.9442 18.2639C26.1076 18.1531 26.1378 18.0416 26.1727 17.9115C26.189 17.8487 26.2076 17.7821 26.2416 17.7093ZM29.7917 25.4191C29.7987 25.3393 29.8049 25.2587 29.8111 25.1774V25.1789L29.8162 25.1146C29.8291 24.9519 29.842 24.7896 29.8591 24.6274C29.8457 24.6118 29.8317 24.5959 29.8176 24.5798L29.8038 24.5641C29.7972 24.5566 29.7906 24.549 29.784 24.5414C29.6833 24.4275 29.5764 24.3052 29.5105 24.1773C29.464 24.0867 29.43 23.9814 29.3959 23.876C29.3502 23.7343 29.3037 23.5917 29.2262 23.4817C29.2009 23.4457 29.1643 23.4294 29.1297 23.414L29.1286 23.4136C29.0746 23.3897 29.0264 23.3683 29.0411 23.2772C29.0512 23.2153 29.0798 23.1471 29.1069 23.0836L29.1124 23.0704L29.117 23.0588L29.1186 23.0565V23.0541C29.1204 23.0499 29.1224 23.0452 29.1241 23.041C29.1268 23.0347 29.1294 23.0284 29.1317 23.0224C29.1178 23.0069 29.1038 22.9906 29.0899 22.9744C29.0287 22.9046 28.9667 22.8342 28.8893 22.7846L28.866 22.9256L28.9234 23.0038L28.9024 23.0611C28.8114 23.0673 28.7333 23.0312 28.66 22.9972L28.6592 22.9968L28.6579 22.9962C28.5423 22.9423 28.4395 22.8943 28.3153 23.0317C28.2758 23.1835 28.3494 23.333 28.4168 23.4693L28.4245 23.4856C28.4276 23.491 28.4307 23.4972 28.4338 23.5034C28.3896 23.5848 28.3439 23.6537 28.2889 23.7281C28.1481 23.9176 28.1681 24.1907 28.1859 24.4345L28.1859 24.4353C28.1898 24.4864 28.1929 24.536 28.1952 24.5832C28.4532 24.7436 28.6275 24.8644 28.6995 25.1704C28.701 25.1774 28.7018 25.1836 28.7041 25.1905V25.1929L28.7057 25.1991C28.7785 25.2386 28.8157 25.2471 28.8986 25.2494C29.2441 25.2324 29.4741 25.2951 29.7917 25.4191Z" fill="black"/>
<path d="M82.8964 15.5001L82.8865 15.4878C82.8084 15.3904 82.7301 15.2927 82.6632 15.1879L82.8135 15.2003C82.8607 15.1562 82.8809 15.129 82.8995 15.0655C82.9932 14.7379 82.9599 14.2049 82.7864 13.9082C82.758 13.7854 82.6178 13.6657 82.5067 13.5708L82.5037 13.5682V13.5666C82.4866 13.5535 82.4719 13.5403 82.4579 13.5279H82.4564C82.4564 13.5279 82.4517 13.5225 82.4494 13.5202L82.4332 13.5062C82.4347 13.5023 82.4363 13.4985 82.4378 13.4962L82.4394 13.4923L82.4406 13.4885L82.4417 13.4855C82.4428 13.4822 82.4438 13.4794 82.4448 13.476C82.4452 13.4741 82.4457 13.4723 82.4462 13.4701C82.4465 13.4686 82.4468 13.467 82.4471 13.4652C82.4479 13.4636 82.4479 13.4621 82.4479 13.4605C82.448 13.4602 82.4481 13.46 82.4482 13.4597C82.4483 13.4592 82.4486 13.4582 82.4487 13.4577C82.4489 13.457 82.4491 13.4561 82.4494 13.4551V13.4535C82.4843 13.2754 82.4556 13.0678 82.3572 12.9152C82.2643 12.8424 82.1558 12.8424 82.0458 12.8432C81.9707 12.8432 81.894 12.8431 81.8212 12.8207C81.7556 12.7996 81.7113 12.7483 81.6675 12.6977L81.664 12.6936C81.6113 12.6309 81.5586 12.5697 81.4711 12.5643C81.4641 12.6046 81.4626 12.6394 81.4657 12.6805L81.4688 12.727C81.4517 12.7285 81.4331 12.7293 81.4145 12.7301C81.3549 12.7324 81.2906 12.7355 81.2364 12.7502C81.1287 12.7796 81.0876 12.8579 81.0419 12.9454L81.04 12.9492L81.039 12.9513L81.037 12.9555C81.0347 12.9602 81.0322 12.9649 81.0296 12.9694C81.0241 12.9795 81.0187 12.9903 81.0125 13.0004C80.9978 12.9268 80.9869 12.8997 80.932 12.8478C80.7484 12.7897 80.691 12.7804 80.5075 12.8664C80.418 12.908 80.3033 12.8392 80.1953 12.7744L80.1937 12.7734L80.1834 12.7673C80.126 12.7331 80.0716 12.7006 80.0241 12.6882C80.0133 12.6975 80.0024 12.7076 79.9916 12.7177L79.9776 12.7308L79.9699 12.737L79.9693 12.7376C79.9083 12.7939 79.8465 12.851 79.7793 12.8951C79.7118 12.9388 79.585 12.8586 79.4599 12.7796L79.4563 12.7773L79.4542 12.776C79.3728 12.7245 79.2931 12.6741 79.2317 12.6588C79.1875 12.7595 79.1418 12.8602 79.0961 12.9609C78.7599 12.7974 78.7065 12.8602 78.622 12.9601L78.6212 12.9612C78.5663 13.026 78.4988 13.106 78.3316 13.1491L78.3304 13.1495L78.329 13.1499C78.3277 13.1503 78.3264 13.1506 78.3251 13.1509C78.3229 13.1514 78.3208 13.1518 78.3184 13.1522H78.313L78.3122 13.1538H78.3052C78.3393 13.0531 78.3393 12.9834 78.3238 12.8772C78.3184 12.8726 78.313 12.8679 78.3083 12.8641C78.2634 12.8253 78.2402 12.806 78.1697 12.8075C77.9396 12.8114 77.7661 12.971 77.6081 13.1181V13.1197L77.6069 13.1211L77.6056 13.1227C77.6048 13.1236 77.604 13.1245 77.6034 13.1251L77.6003 13.129L77.5964 13.1352L77.5918 13.1422L77.5825 13.1545L77.5771 13.1623L77.5758 13.1641C77.5232 13.2396 77.4949 13.2803 77.3842 13.3102C77.3005 13.2599 77.2184 13.2119 77.1301 13.1693C76.9662 13.2152 76.808 13.2697 76.6507 13.3239L76.6297 13.3312C76.3896 13.414 76.1495 13.4969 75.8946 13.5512C75.8148 13.6836 75.7203 13.7967 75.6204 13.9144L75.5786 13.9199C75.4562 13.9338 75.381 13.9354 75.2679 13.8749V13.8292C75.27 13.8292 75.272 13.8288 75.274 13.8284L75.2753 13.8281C75.2758 13.828 75.2764 13.8279 75.2769 13.8278C75.2776 13.8277 75.2782 13.8277 75.2788 13.8277L75.2881 13.8261C75.2974 13.8246 75.3059 13.823 75.3152 13.8215C75.3795 13.8114 75.4438 13.8006 75.5042 13.7742C75.2656 13.727 74.9473 13.7123 74.7311 13.8502L74.7133 13.8618L74.6947 13.8742L74.6483 13.9044C74.3469 14.0996 74.2563 14.1577 73.8202 14.1492C73.8023 14.1492 73.7845 14.1485 73.7664 14.1478L73.7549 14.1474C73.7493 14.1472 73.7437 14.147 73.7381 14.1468L73.7349 14.1467C73.5957 14.1413 73.4537 14.1358 73.3407 14.2165C73.3391 14.2437 73.3384 14.2692 73.3376 14.2948C73.3376 14.3072 73.3368 14.3196 73.3361 14.3312C73.3322 14.4156 73.3237 14.4908 73.2679 14.5682L73.1873 14.6054L73.1137 14.4877C73.0107 14.4977 72.9147 14.5705 72.8178 14.6441L72.8167 14.645C72.6544 14.7679 72.4889 14.8932 72.2826 14.7293C72.2586 14.71 72.2493 14.6991 72.2338 14.6805L72.2291 14.6743L72.2245 14.6689C72.161 14.7177 72.106 14.8293 72.0525 14.9377C71.9898 15.0654 71.9293 15.1887 71.8596 15.1964C71.8543 15.1785 71.8501 15.1617 71.8461 15.1455L71.8441 15.1376C71.8217 15.0501 71.8046 14.9834 71.7264 14.9129C71.612 14.9444 71.535 15.023 71.4567 15.1028L71.4528 15.1067C71.3658 15.1953 71.277 15.2857 71.1346 15.3157C70.9355 15.3576 70.8371 15.3901 70.6807 15.521C70.649 15.5478 70.6149 15.5728 70.5811 15.5976L70.5683 15.607L70.5552 15.6171L70.5436 15.6256L70.5374 15.6302C70.5296 15.6364 70.5219 15.6418 70.5134 15.648C70.4816 15.6519 70.4467 15.6535 70.4103 15.6558C70.2686 15.6643 70.1028 15.6744 70.0168 15.7735C69.9296 15.8738 69.8771 16.0799 69.8348 16.2461L69.8332 16.2522V16.2553C69.8294 16.2701 69.8255 16.2848 69.8224 16.2987C69.8213 16.3036 69.8199 16.3085 69.8186 16.3134L69.8172 16.3188L69.8161 16.3231L69.8152 16.3265L69.8146 16.3289L69.8115 16.3413L69.8092 16.3483C69.8084 16.3522 69.8069 16.356 69.8061 16.3599C69.8046 16.3646 69.8038 16.3692 69.8023 16.3739L69.6582 16.2065C69.5478 16.2251 69.4936 16.2974 69.4289 16.3837L69.4281 16.3847C69.4235 16.3917 69.4188 16.3979 69.4142 16.4048C69.0966 16.827 68.8665 16.92 68.6186 17.0191C68.4575 17.0834 68.2886 17.1516 68.0841 17.315C67.9881 17.3917 67.9192 17.4955 67.8502 17.5993C67.7821 17.7023 67.7131 17.8053 67.6178 17.8813L67.592 17.8813C67.5904 17.8813 67.5888 17.8812 67.5872 17.8812C67.5863 17.8812 67.5853 17.8812 67.5843 17.8811C67.5815 17.881 67.5788 17.8808 67.576 17.8805H67.569L67.5605 17.8797H67.5535L67.5517 17.8795C67.5462 17.8788 67.5413 17.8782 67.5357 17.8782H67.5311L67.5299 17.8781C67.3939 17.8688 67.2503 17.859 67.1376 17.9347C67.1362 17.937 67.1351 17.9395 67.134 17.9422C67.1332 17.944 67.1323 17.946 67.1314 17.9479C67.1298 17.9517 67.1283 17.9564 67.1259 17.9603L67.1236 17.9665L67.1198 17.9765C67.0973 18.0354 67.0694 18.1082 67.0121 18.1198C66.9617 18.1307 66.9176 18.133 66.8765 18.1346L66.8746 18.1347C66.8002 18.1385 66.7325 18.142 66.6426 18.195C66.6069 18.2531 66.586 18.3298 66.5651 18.408C66.5272 18.5474 66.4877 18.6923 66.3622 18.745C66.359 18.7446 66.3559 18.7439 66.353 18.7433C66.3505 18.7428 66.3476 18.7422 66.3451 18.7419L66.3351 18.7403L66.3227 18.738L66.3165 18.7364H66.3157L66.3148 18.7363C66.2217 18.7178 66.1837 18.7103 66.0818 18.7574C66.0807 18.7587 66.0797 18.7601 66.0787 18.7616L66.0775 18.7635C66.0766 18.765 66.0756 18.7666 66.0746 18.7679L66.0739 18.7689L66.0732 18.7697L66.0709 18.7728L66.0686 18.7767L66.0655 18.7821L66.0632 18.786C66.0608 18.7895 66.0587 18.7928 66.0566 18.7961C66.0545 18.7994 66.0523 18.8027 66.05 18.8062L66.0376 18.8255L66.0366 18.8271C65.9641 18.9405 65.8898 19.0566 65.7642 19.1083L65.5752 19.092C65.5264 19.2121 65.538 19.288 65.548 19.3476C65.5674 19.4713 65.5763 19.5283 65.0198 19.7651C64.9237 19.8062 64.8424 19.8317 64.7363 19.8317C64.6757 19.7512 64.653 19.6555 64.63 19.5581L64.6294 19.5552C64.6092 19.4677 64.5883 19.3794 64.5403 19.3004C64.4241 19.2415 64.3087 19.1818 64.194 19.1199L64.2227 19.061L64.4458 19.023C64.4969 18.9417 64.5015 18.8859 64.4721 18.7899C64.4582 18.7434 64.4303 18.6969 64.4039 18.6536L64.3993 18.6466L64.3954 18.6396L64.3923 18.6342C64.4419 18.549 64.4806 18.5087 64.5635 18.4545C64.6154 18.487 64.6479 18.5149 64.6867 18.5621C64.6952 18.5211 64.7006 18.4816 64.7045 18.4398C64.7118 18.3681 64.7398 18.2524 64.7709 18.1238L64.7765 18.1005C64.8408 17.8379 64.9167 17.5273 64.8718 17.4126C64.8624 17.3887 64.8401 17.3608 64.8177 17.3326L64.8129 17.3266L64.8122 17.3258C64.783 17.2896 64.7533 17.2528 64.7479 17.2236C64.7466 17.2179 64.7783 17.1875 64.8246 17.1433C64.8345 17.1338 64.8452 17.1236 64.8563 17.1128C64.9795 16.9966 65.1662 16.82 65.191 16.7395C65.2163 16.6587 65.1722 16.5718 65.1223 16.4736L65.1212 16.4715C65.0577 16.3475 64.9857 16.2065 65.0298 16.0361C65.0748 16.0129 65.1073 16.0206 65.1375 16.0284L65.1383 16.0286C65.1713 16.0362 65.2029 16.0436 65.246 16.009C65.1878 15.9715 65.1326 15.965 65.0677 15.9574L65.0655 15.9571H65.0585L65.0469 15.9548C65.043 15.9463 65.0391 15.9377 65.0345 15.93L65.0339 15.9289C65.0201 15.9029 65.006 15.8762 65.0167 15.8479C65.0562 15.7449 65.1476 15.6643 65.2374 15.5853C65.3381 15.4962 65.4357 15.4095 65.4543 15.2971C65.3921 15.2562 65.3188 15.2538 65.2482 15.2516L65.2436 15.2514C65.1615 15.2491 65.0848 15.2468 65.0376 15.1871L65.1995 15.0748C65.1971 15.0338 65.1948 14.9857 65.1933 14.9331V14.9315C65.1848 14.7053 65.1724 14.3978 65.0879 14.253C65.0811 14.2535 65.0744 14.2542 65.0677 14.2551C65.0657 14.2553 65.0637 14.2556 65.0617 14.2558C65.0575 14.2564 65.0533 14.257 65.0492 14.2575C65.0432 14.2584 65.0373 14.2592 65.0314 14.2599C64.9601 14.27 64.8997 14.2785 64.837 14.222C64.7516 14.1459 64.6854 14.0316 64.6185 13.9164L64.617 13.9137C64.5124 13.7332 64.4055 13.5488 64.2211 13.4931L64.1011 13.5852C64.0275 13.5512 63.9887 13.4807 63.9516 13.4117V13.4102L63.95 13.4094C63.9485 13.4063 63.9461 13.4024 63.9446 13.3993C63.9433 13.3968 63.942 13.3943 63.9407 13.3919C63.9398 13.3904 63.939 13.3889 63.938 13.3873C63.9369 13.3854 63.9358 13.3835 63.9345 13.3815L63.933 13.3784C63.933 13.3784 63.9314 13.3753 63.9299 13.3738C63.8214 13.4226 63.7145 13.4721 63.6069 13.5225C63.5596 13.4931 63.5402 13.4512 63.5232 13.414C63.5031 13.3699 63.486 13.3327 63.4287 13.3319C63.2598 13.5225 63.1475 13.6488 62.8865 13.7022C62.7943 13.8068 62.761 13.8502 62.7703 13.9981C62.7734 14.0454 62.7819 14.0942 62.7912 14.143C62.8113 14.2491 62.8315 14.3568 62.7873 14.4482L62.5859 14.4776C62.5767 14.5764 62.6497 14.6752 62.7284 14.7816L62.7292 14.7828C62.8315 14.9199 62.9422 15.0694 62.8981 15.2476C62.7996 15.2804 62.7154 15.2779 62.6144 15.2748L62.6099 15.2747H62.6022L62.5573 15.3312C62.5813 15.4009 62.6146 15.4249 62.6471 15.4482C62.6843 15.4745 62.7191 15.5001 62.7354 15.5915C62.7284 15.6034 62.7152 15.6221 62.699 15.645L62.6936 15.6527C62.6456 15.7208 62.5789 15.8154 62.5758 15.8479C62.5643 15.9869 62.6053 16.1282 62.6468 16.271L62.6479 16.2747C62.7044 16.4668 62.761 16.6612 62.6928 16.8557C62.7114 16.9781 62.6657 17.085 62.62 17.1919C62.5735 17.2995 62.5278 17.4072 62.5495 17.5288C62.5665 17.6256 62.63 17.6899 62.6904 17.751C62.774 17.8355 62.8532 17.9153 62.8036 18.071C62.7452 18.0331 62.7157 17.981 62.6832 17.9236L62.6812 17.92L62.675 17.9091C62.6727 17.9053 62.6703 17.9006 62.668 17.896L62.6525 17.8999C62.5325 17.9316 62.5224 17.9347 62.4457 18.0432L62.4418 18.1578L62.7362 18.2151L62.7408 18.226C62.7686 18.2952 62.7756 18.3129 62.7447 18.3886C62.7197 18.4496 62.6704 18.5036 62.6244 18.5539L62.6169 18.5621L62.6092 18.5707L62.6006 18.58L62.596 18.5846L62.5929 18.5885L62.5898 18.5916C62.6316 18.8023 62.6471 19.0339 62.6618 19.267C62.682 19.5823 62.7029 19.8991 62.7912 20.1679C62.8112 20.2296 62.852 20.3097 62.8959 20.396L62.8965 20.3972C62.9987 20.5985 63.1196 20.8365 63.0484 20.9635L62.9043 21.0518C62.8981 21.1814 62.9234 21.3387 62.9497 21.5014L62.95 21.5034C62.9941 21.7768 63.0406 22.0657 62.9453 22.264L62.7912 22.9535H62.7904L62.8005 22.9635L62.8028 22.9658L62.804 22.9671C62.8047 22.9678 62.8056 22.9687 62.8066 22.9697C62.8083 22.9716 62.8103 22.9737 62.8113 22.9751C62.8485 23.0851 62.871 23.1796 62.857 23.2966C62.8386 23.4533 62.7935 23.6116 62.7482 23.7706L62.747 23.7745C62.706 23.9171 62.6649 24.0604 62.6425 24.2045C62.6347 24.2556 62.6324 24.3129 62.6301 24.3718L62.63 24.3736C62.6254 24.4861 62.6205 24.6039 62.5758 24.6917C62.5301 24.7808 62.4697 24.8637 62.4093 24.9434L62.4333 25.0077L62.6603 25.0883C62.6657 25.1792 62.6404 25.2157 62.599 25.2756L62.5983 25.2765C62.597 25.278 62.5959 25.2796 62.5947 25.2813C62.5937 25.2828 62.5926 25.2844 62.5916 25.2859L62.5912 25.2866L62.5896 25.2889C62.5889 25.2899 62.5882 25.291 62.5875 25.292C62.5867 25.293 62.586 25.294 62.5853 25.2951C62.5845 25.2962 62.5837 25.2973 62.583 25.2985C62.5809 25.3015 62.5789 25.3046 62.5768 25.3077C62.574 25.312 62.5711 25.3163 62.5681 25.3207C62.5196 25.3427 62.4741 25.3565 62.4315 25.3694L62.4287 25.3703C62.3187 25.4028 62.2304 25.4291 62.1816 25.5686C62.1808 25.5703 62.1801 25.5721 62.1795 25.574C62.179 25.5755 62.1785 25.5769 62.1781 25.5784C62.1775 25.5802 62.1769 25.582 62.1763 25.5838C62.176 25.5847 62.1757 25.5855 62.1754 25.5864C62.1715 25.598 62.1684 25.6096 62.1653 25.6212L62.163 25.6298L62.1607 25.6375C62.1754 25.6654 62.1924 25.6948 62.211 25.7266L62.2129 25.7299C62.3056 25.8921 62.4215 26.0949 62.3884 26.2556C62.3562 26.3113 62.3149 26.3669 62.2732 26.4233L62.266 26.433L62.2646 26.4349C62.169 26.5644 62.07 26.6986 62.0545 26.8443C62.0499 26.8924 62.0421 26.9404 62.0344 26.9892V26.9908C62.029 27.0217 62.0243 27.0527 62.0204 27.0845C62.0104 27.2015 61.9553 27.2596 61.8831 27.3356L61.8818 27.337L61.8764 27.3432L61.8702 27.3502C61.8655 27.3548 61.8609 27.3595 61.857 27.3649L61.8485 27.3572C61.8957 27.6445 61.95 28.0241 61.7695 28.2704C61.7498 28.2981 61.7171 28.3114 61.6849 28.3245L61.6788 28.327L61.6672 28.3316C61.6657 28.3316 61.6641 28.3332 61.6618 28.3339L61.6587 28.3355C61.6587 28.3355 61.6525 28.3378 61.6494 28.3394C61.5836 28.3068 61.5448 28.2813 61.4922 28.227C61.3657 28.436 61.3191 28.7003 61.2728 28.9625L61.2722 28.966C61.2172 29.2805 61.1622 29.5919 60.9716 29.7987C60.9662 29.7979 60.961 29.7973 60.956 29.7968C60.9536 29.7966 60.9512 29.7963 60.9488 29.7961L60.943 29.7956L60.9416 29.7955C60.9112 29.7925 60.8853 29.7899 60.8601 29.7662C60.8554 29.7623 60.8515 29.7585 60.8477 29.7546L60.847 29.754C60.8071 29.7163 60.7761 29.6872 60.7175 29.6779L60.6897 29.7259L60.867 30.0265C60.8051 30.1016 60.7137 30.1574 60.623 30.2124C60.4782 30.3007 60.3341 30.389 60.3062 30.5571L60.3767 30.6555C60.3273 30.8363 60.1961 31.0024 60.0717 31.1601L60.0707 31.1613C60.0243 31.2202 59.9786 31.2783 59.9383 31.3356C59.9414 31.3379 59.9445 31.341 59.9476 31.3441C59.9489 31.3454 59.9502 31.3467 59.9516 31.3479L59.9534 31.3495C59.9552 31.3512 59.9573 31.3531 59.9592 31.3549L59.9623 31.358L59.9634 31.3591C60.0162 31.4088 60.0484 31.4391 60.0645 31.5153C60.0188 31.5819 59.9615 31.6539 59.9019 31.7283L59.8993 31.7315C59.7792 31.8816 59.6513 32.0416 59.5951 32.1931C59.5579 32.2938 59.5277 32.4688 59.4967 32.6517L59.4958 32.6574C59.4511 32.9191 59.404 33.1954 59.3271 33.2884C59.2845 33.3395 59.1939 33.3813 59.0963 33.4255C58.9925 33.4728 58.8825 33.5231 58.8166 33.592L58.8422 33.6354L58.8453 33.6401L58.8473 33.6435C58.9083 33.7472 58.9569 33.8297 58.9584 33.9569C58.9228 34.022 58.8709 34.0627 58.8215 34.1014L58.8182 34.1041L58.8164 34.1054C58.7543 34.1537 58.6956 34.1994 58.6749 34.2869C58.6779 34.2894 58.6808 34.2919 58.6835 34.2943L58.6874 34.2977L58.6929 34.3024C58.6984 34.3073 58.7037 34.3119 58.7088 34.3161C58.7102 34.3173 58.7115 34.3183 58.7128 34.3194L58.7135 34.32C58.7757 34.3745 58.7977 34.3938 58.9073 34.3938C58.9104 34.3903 58.9133 34.3866 58.9162 34.3829C58.9191 34.3792 58.922 34.3756 58.9251 34.3721C58.9615 34.3279 58.9971 34.2838 59.0258 34.2334C59.0537 34.3039 59.0746 34.3752 59.0947 34.4449C59.1574 34.6578 59.2157 34.8555 59.4557 34.9724C59.5827 35.0344 59.7214 35.0142 59.8484 34.9639C60.137 34.8486 60.3768 34.5372 60.5842 34.2678L60.5851 34.2667C60.6347 34.2024 60.6827 34.1405 60.7284 34.0839C60.7354 34.0026 60.7315 33.9507 60.7144 33.8709C60.687 33.7452 60.7038 33.5909 60.7206 33.437L60.7215 33.4281C60.7424 33.2387 60.7631 33.051 60.7036 32.9158L60.7063 32.914L60.7102 32.9113L60.7189 32.9054L60.7222 32.9031L60.7253 32.9011L60.7385 32.8926L60.7501 32.8848L60.7516 32.8838C60.8494 32.8191 60.9441 32.7565 61.0127 32.6579C60.9652 32.5889 60.9011 32.5723 60.8278 32.5532L60.8252 32.5525C60.8217 32.5516 60.8182 32.5507 60.8146 32.5498C60.8 32.546 60.784 32.5419 60.7687 32.537C60.7904 32.4324 60.8299 32.3991 60.9197 32.3441C60.9685 32.3139 61.0266 32.3062 61.0839 32.2992L61.1351 32.2922H61.1366C61.2605 32.2713 61.2993 32.2643 61.3891 32.1799L61.4372 31.9483C61.472 31.9258 61.5084 31.9034 61.5472 31.8801C61.699 31.788 61.8686 31.6849 61.9608 31.5486L61.8617 31.5966L61.8688 31.5664C61.9279 31.3134 62.0424 30.824 61.9422 30.6028C62.3954 30.3108 62.7873 29.9583 62.9113 29.4114C62.9562 29.2155 63.012 28.7259 62.967 28.5384C62.9879 28.5229 63.0096 28.5075 63.0329 28.4912C63.0422 28.485 63.0522 28.478 63.0615 28.471C63.062 28.4708 63.0624 28.4705 63.0628 28.4702L63.0635 28.4695C63.064 28.4689 63.0646 28.4683 63.0654 28.4679C63.2219 28.3603 63.4016 28.2363 63.4473 28.062C63.414 27.9428 63.3938 27.8227 63.3737 27.7003C63.4821 27.5974 63.5927 27.3111 63.705 27.0209L63.7052 27.0202L63.7077 27.0138C63.8107 26.7479 63.9144 26.48 64.0197 26.3447C64.0682 26.2824 64.1129 26.2774 64.1751 26.2705L64.1762 26.2704C64.1809 26.2704 64.1847 26.2696 64.1894 26.2688C64.1926 26.2686 64.1958 26.2682 64.1991 26.2679C64.2032 26.2674 64.2074 26.2668 64.2116 26.2662L64.2204 26.2649C64.225 26.2192 64.2281 26.1728 64.2304 26.1255C64.2389 25.9737 64.2482 25.8172 64.3265 25.6894C64.4015 25.5664 64.5267 25.55 64.6567 25.533C64.7055 25.5268 64.7548 25.5198 64.8029 25.5081C64.8339 25.4082 64.7951 25.3331 64.7517 25.2494C64.7347 25.2169 64.7169 25.1828 64.7029 25.1456L64.7742 25.0929C64.892 25.0806 64.9593 25.1154 65.0562 25.1743L65.091 25.1952L65.1592 25.1216C65.177 25.0225 65.1391 24.945 65.0995 24.8652L65.0975 24.8611C65.0672 24.7988 65.0359 24.7349 65.0322 24.6576L65.0872 24.6166L65.184 24.6932C65.3164 24.6545 65.6937 24.3323 65.7363 24.1944C65.7556 24.131 65.7564 24.0745 65.7572 24.0204C65.758 23.9437 65.7588 23.8706 65.8122 23.7877C65.8868 23.7777 65.9133 23.8029 65.944 23.8321L65.9447 23.8326C65.9694 23.8566 65.9966 23.883 66.0546 23.8946C66.1641 23.8052 66.2015 23.6729 66.2384 23.5418L66.239 23.5398L66.2444 23.5181L66.2475 23.5065L66.2506 23.4965L66.253 23.4879C66.2545 23.4825 66.2561 23.4779 66.2576 23.4732L66.2684 23.4686L66.2801 23.4639C66.3141 23.45 66.3505 23.4353 66.3854 23.4283C66.6068 23.3836 66.7744 23.2659 66.9479 23.144L66.9501 23.1425C67.0345 23.0828 67.1205 23.0224 67.215 22.9682C67.8123 22.6281 68.7325 22.2648 69.418 22.2547C69.5218 22.2052 69.6249 22.1231 69.7225 22.0448C69.7604 22.0138 69.7976 21.9844 69.834 21.9573C70.0625 22.0371 70.2996 22.1021 70.535 22.1664C70.621 22.1897 70.7062 22.2129 70.7914 22.2369C71.123 21.972 71.3399 22.0154 71.5854 22.065L71.5897 22.0658C71.7434 22.0966 71.9088 22.1297 72.1207 22.0898C72.1524 22.0045 72.1687 21.9271 72.1819 21.8372C72.2913 21.8112 72.4053 21.8472 72.5216 21.8839L72.5258 21.8853L72.5285 21.8861C72.6175 21.9145 72.708 21.9434 72.8 21.9457C72.8852 21.8969 72.9154 21.814 72.9472 21.7257C72.9604 21.6893 72.9743 21.6513 72.9929 21.6149C73.0417 21.601 73.0727 21.6242 73.1068 21.6505C73.1401 21.6769 73.1773 21.7048 73.2377 21.7009C73.3144 21.6955 73.3763 21.6622 73.4391 21.6281C73.5204 21.5839 73.6033 21.5398 73.721 21.5537L73.8256 21.7358L73.9069 21.7536C73.9581 21.6924 73.9774 21.6436 74.0022 21.5669L74.0107 21.5398C74.1564 21.6103 74.3051 21.8109 74.4693 22.0332L74.4734 22.0387C74.6784 22.3154 74.9073 22.6243 75.1858 22.7536C75.3871 22.8472 75.5094 22.8033 75.6471 22.7537C75.816 22.6925 76.0077 22.6235 76.3958 22.7885C76.5236 22.7459 76.6235 22.6994 76.7389 22.6304C76.7939 22.515 76.7823 22.419 76.7684 22.3043V22.2974L76.7676 22.2927C76.7676 22.2887 76.767 22.285 76.7663 22.2812L76.7659 22.2789C76.7657 22.2776 76.7655 22.2763 76.7653 22.2749C76.7649 22.2705 76.7644 22.266 76.7638 22.2614C76.7632 22.2562 76.7626 22.2508 76.7622 22.2455V22.2385L76.7606 22.2315V22.2276L76.7599 22.223V22.2168C76.8389 22.168 76.9644 22.185 77.0782 22.2005C77.1216 22.2067 77.1634 22.2121 77.2006 22.2137C77.2099 22.1641 77.1541 22.0921 77.0984 22.02L77.0943 22.0148C77.057 21.9662 77.0203 21.9186 77.0046 21.8783L77.086 21.8481L77.2153 21.9844H77.227C77.2299 21.9844 77.2329 21.9844 77.2361 21.9844C77.253 21.9846 77.273 21.9847 77.2866 21.9821C77.5701 21.931 78.0883 21.5847 78.2634 21.3585L78.2177 21.2485C78.2772 21.1543 78.3944 21.1055 78.5187 21.0538L78.5198 21.0533C78.6685 20.9921 78.8289 20.9255 78.9156 20.7721C78.921 20.7698 78.9257 20.7667 78.9303 20.7644C78.9954 20.7303 79.014 20.7171 79.0558 20.6528C79.0589 20.6482 79.062 20.6435 79.0651 20.6381C79.0996 20.6209 79.1327 20.5978 79.165 20.5752L79.1681 20.5731L79.1767 20.5676L79.1829 20.563L79.2038 20.549C79.4416 20.4956 79.6314 20.4119 79.8444 20.295C80.0148 20.1865 80.2573 20.0068 80.3231 19.8132C80.5516 19.7194 80.7824 19.5994 80.9962 19.477C81.1876 19.367 81.4695 19.1741 81.53 18.951C81.7011 18.8836 81.8971 18.6946 82.0079 18.549C82.097 18.432 82.1086 18.3607 82.0916 18.2205L82.0993 18.2136L82.1029 18.21C82.1407 18.173 82.1822 18.1323 82.2085 18.0865C82.2651 17.9897 82.2689 17.8782 82.2465 17.772C82.4014 17.6845 82.5478 17.6001 82.6841 17.4862L82.6741 17.432C82.5989 17.4095 82.5586 17.3956 82.4998 17.3414C82.6849 17.0625 82.6779 16.8286 82.6702 16.576C82.6663 16.4381 82.6624 16.2948 82.6888 16.136V16.1299L82.6888 16.1273C82.6887 16.1206 82.6886 16.1148 82.6934 16.112C82.7182 16.0942 82.7368 16.088 82.7554 16.0818L82.756 16.0816C82.7814 16.0732 82.8053 16.0652 82.8398 16.023L82.7872 15.8998C82.8034 15.7658 82.8445 15.7162 82.9173 15.6302L82.9258 15.6202C82.9312 15.614 82.9367 15.6078 82.9421 15.6008L82.9467 15.5954L82.9506 15.5907C82.9506 15.5907 82.956 15.5837 82.9583 15.5806C82.9482 15.5674 82.9378 15.5544 82.9272 15.5414L82.9169 15.5288L82.9084 15.5183C82.9041 15.513 82.8998 15.5077 82.8956 15.5024L82.8964 15.5001Z" fill="black"/>
<path d="M61.8477 27.3579L61.8369 27.3479L61.8431 27.3285L61.8477 27.3579Z" fill="black"/>
<path fill-rule="evenodd" clip-rule="evenodd" d="M58.8761 27.5616L58.8788 27.5623C58.9531 27.5799 59.0319 27.5986 59.1054 27.5802L59.11 27.5477L59.1105 27.5442C59.1212 27.472 59.1309 27.4058 59.1782 27.3463L59.2564 27.3672L59.275 27.5322L59.3525 27.5733C59.612 27.5121 59.6073 27.4362 59.6003 27.3355C59.5957 27.2657 59.5903 27.1844 59.6724 27.0876C59.7421 27.0062 59.8746 26.9303 59.9799 26.9249L59.9939 27.0535L60.0434 27.0481C60.0845 26.9915 60.1248 26.935 60.1643 26.8769C60.258 26.7375 60.3432 26.5686 60.3091 26.3958L60.1867 26.4532L60.1891 26.4439L60.1914 26.4361C60.1938 26.427 60.1958 26.4179 60.198 26.4085C60.1986 26.4058 60.1992 26.4032 60.1999 26.4005C60.2015 26.3958 60.2022 26.3912 60.2038 26.3858V26.3827L60.2069 26.3765C60.3223 26.014 60.4795 25.5422 60.832 25.3664L60.88 25.3431C60.8932 25.2587 60.8661 25.2308 60.8374 25.2022C60.8126 25.1774 60.7871 25.1518 60.7871 25.0875C60.7871 24.9461 60.8199 24.8509 60.8504 24.7625L60.8521 24.7575C60.9025 24.6135 60.9466 24.4864 60.8382 24.2068C60.9172 24.1588 61.0016 24.1045 61.0713 24.0441C61.1581 23.9682 61.2123 23.9116 61.2193 23.7947C61.1635 23.7668 61.1186 23.7381 61.069 23.6994C61.0799 23.5886 61.1163 23.5119 61.1542 23.4345L61.1563 23.4302C61.1913 23.3572 61.2265 23.2837 61.2387 23.1796C61.2046 23.1386 61.1728 23.1037 61.1294 23.0727L61.0907 23.0456C61.0985 22.6436 61.2658 22.1021 61.4137 21.625L61.4215 21.5999C61.4736 21.431 61.5233 21.2701 61.5617 21.1277C61.5201 21.05 61.4618 21.0212 61.4025 20.9919L61.4013 20.9913C61.3463 20.9642 61.2906 20.9363 61.2456 20.8697L61.2859 20.7907L61.4873 20.7977C61.5234 20.7293 61.4917 20.6609 61.4571 20.5864L61.4563 20.5847C61.4246 20.5181 61.3913 20.446 61.4021 20.3647H61.423L61.4239 20.3647C61.4845 20.3678 61.5116 20.3692 61.5748 20.3376C61.6384 19.8426 61.588 19.3406 61.5369 18.8433L61.5368 18.8424C61.5221 18.6955 61.5074 18.5487 61.4951 18.4033C61.5477 18.3584 61.5989 18.3119 61.6492 18.2639C61.6492 18.1099 61.5765 18.0684 61.4942 18.0215L61.4927 18.0207C61.4346 17.9882 61.3719 17.9525 61.3246 17.8735C61.2925 17.8199 61.3594 17.7437 61.4305 17.6626L61.4331 17.6597L61.4339 17.6588C61.4879 17.5979 61.5432 17.5355 61.5594 17.4792L61.5559 17.4738C61.5519 17.4676 61.5484 17.4622 61.5454 17.4568C61.5331 17.4352 61.5259 17.4227 61.492 17.4188C61.4797 17.4174 61.4669 17.4164 61.4536 17.4152C61.4442 17.4144 61.4345 17.4136 61.4246 17.4126C61.3316 17.4056 61.2224 17.3963 61.1519 17.3568C61.0446 17.2966 60.9642 17.0739 60.877 16.8324L60.8761 16.8301L60.8746 16.8258C60.7728 16.5435 60.6622 16.237 60.4888 16.1345L60.4261 16.291C60.2526 16.291 59.3718 15.9664 59.2138 15.8665C59.1377 15.8181 59.0708 15.762 59.0047 15.7067L58.9991 15.702C58.9059 15.6241 58.8132 15.5465 58.6956 15.4916L58.6677 15.5349L58.7026 15.6604L58.6685 15.6821C58.1239 15.6163 57.6739 15.387 57.1952 15.1368C57.1936 15.1391 57.1928 15.1407 57.1921 15.143C57.1897 15.1484 57.1874 15.1523 57.1843 15.1562C57.1107 15.2499 57.0317 15.3459 56.9101 15.3653C56.8226 15.2654 56.735 15.1778 56.6343 15.0903C56.5222 15.0857 56.485 15.1142 56.4155 15.1675C56.4023 15.1776 56.388 15.1887 56.3725 15.1995C56.2667 15.2026 56.1928 15.1442 56.1161 15.0836L56.1138 15.0818L56.1125 15.0808C56.0517 15.0323 55.9893 14.9825 55.9093 14.9625C55.8272 14.9416 55.7296 14.9842 55.6591 15.0268C55.6033 15.0601 55.5352 15.0423 55.4631 15.0229C55.3918 15.0036 55.3167 14.9834 55.2454 15.0121L55.1858 15.198C55.0488 15.2413 54.9141 15.1779 54.7826 15.116L54.7797 15.1147C54.6861 15.0709 54.5932 15.0275 54.5026 15.0245C54.3159 15.0183 54.2129 15.0562 54.123 15.0895L54.1223 15.0898C53.9716 15.1454 53.8575 15.1876 53.4452 14.9795C53.4088 15.0051 53.384 15.0252 53.3562 15.0601C53.3395 15.0813 53.1916 15.0618 53.0205 15.0391L53.0091 15.0376C52.8054 15.0098 52.5715 14.978 52.4839 15.0043C52.4661 15.0903 52.4413 15.1616 52.4042 15.2406L52.3275 15.1554L52.3639 15.222C52.3639 15.222 52.3606 15.2194 52.3573 15.217C52.3555 15.2156 52.3536 15.2143 52.3523 15.2135L52.3437 15.2073L52.3375 15.2026C52.2578 15.1422 52.1942 15.0942 52.0835 15.0965C52.0695 15.143 52.0571 15.1895 52.0447 15.2359H52.0401L52.0339 15.2375H52.03L52.0246 15.239C52.0234 15.239 52.0223 15.2391 52.0211 15.2393C52.0192 15.2396 52.0172 15.2401 52.0153 15.2406L52.0052 15.2421H52.0037C51.9324 15.253 51.9014 15.2576 51.8216 15.215L51.841 15.0624C51.6164 14.9795 51.1927 14.9354 50.9556 14.964C50.7651 14.9865 50.6396 15.136 50.5304 15.2778C50.4986 15.318 50.4738 15.3397 50.4258 15.3622C50.2546 15.3661 50.1136 15.2801 49.9726 15.1941L49.9029 15.1523L49.7859 15.2251C49.7007 15.2824 49.5946 15.3095 49.4916 15.2894C49.4448 15.2806 49.4021 15.2656 49.3603 15.2509L49.3529 15.2483L49.3343 15.2414C49.2414 15.2073 49.1523 15.1747 49.04 15.1957L48.8045 15.4017C48.8045 15.4017 48.8034 15.4026 48.8022 15.4035C48.8011 15.4043 48.7998 15.4052 48.7991 15.4056L48.7944 15.4095L48.7906 15.4126L48.7882 15.4141C48.765 15.4327 48.7387 15.4536 48.7123 15.4645C48.6202 15.504 48.5822 15.4559 48.5373 15.3986C48.5095 15.3631 48.479 15.3242 48.4311 15.2995L48.2925 15.3978C48.1817 15.3854 48.0655 15.4017 47.9478 15.4203L47.9245 15.4242C47.8316 15.4389 47.7371 15.4536 47.6441 15.4552H47.6039C47.5473 15.5721 47.483 15.6194 47.3738 15.6875C47.277 15.7015 47.2034 15.6767 47.1282 15.6504C47.0787 15.6333 47.0283 15.6163 46.9694 15.6093C46.8804 15.5985 46.8362 15.6403 46.7905 15.6837L46.7876 15.6864C46.7607 15.7119 46.7334 15.7377 46.6945 15.7542C46.5604 15.8107 46.4946 15.8006 46.4419 15.7921C46.3506 15.7782 46.3001 15.7705 45.9965 16.136C45.9965 16.1329 45.9958 16.1298 45.995 16.1275C45.9926 16.1159 45.9911 16.1051 45.9896 16.0934L45.988 16.0826L45.9879 16.0818C45.9724 15.9837 45.9576 15.8895 45.8819 15.8161C45.6813 15.813 44.8307 16.0222 44.6921 16.1515C44.6562 16.1851 44.6269 16.2288 44.5991 16.2701L44.596 16.2747L44.5921 16.2801C44.5495 16.2824 44.4744 16.2824 44.3845 16.2824C44.0817 16.2824 43.5999 16.2824 43.5239 16.3793C43.4911 16.4211 43.4726 16.4889 43.4567 16.5472L43.455 16.5536V16.5567L43.4519 16.566L43.4504 16.5729C43.448 16.5799 43.4465 16.5869 43.4442 16.5938C43.3866 16.5836 43.3338 16.5542 43.2813 16.525L43.2714 16.5195C43.2079 16.4831 43.1459 16.4482 43.0801 16.4459C42.6959 16.4343 41.3566 16.9804 40.9638 17.164C40.9545 17.2252 40.9592 17.2639 40.9731 17.3243C40.8701 17.3638 40.7632 17.3444 40.6548 17.3243C40.6253 17.3189 40.5959 17.3135 40.5665 17.3096H40.5541L40.5378 17.3073L40.5361 17.3072C40.3947 17.2979 40.3281 17.2936 40.1861 17.3615C40.0986 17.4823 40.0723 17.583 40.0436 17.7256C39.6935 17.7294 39.4758 17.9223 39.3364 18.0463C39.269 18.1067 39.2194 18.15 39.1822 18.1485C39.13 18.1462 39.0968 18.1073 39.0653 18.0704L39.0645 18.0695C39.0164 18.0129 38.9723 17.961 38.8716 18.0563C38.8375 18.0889 38.8081 18.126 38.7802 18.1632L38.7798 18.1638C38.7249 18.2349 38.6707 18.3051 38.5811 18.3352C38.2666 18.298 37.9715 18.2786 37.6802 18.4219C37.6051 18.5087 37.5927 18.5955 37.578 18.7L37.5757 18.7147L37.5741 18.7264C37.5741 18.7282 37.5738 18.7302 37.5734 18.7324C37.573 18.7347 37.5726 18.7371 37.5726 18.7395L37.5114 18.8108C37.4637 18.8025 37.4203 18.7887 37.3786 18.7753L37.3634 18.7705C37.2635 18.738 37.1736 18.7093 37.0613 18.7504C37.022 18.8553 36.999 18.9316 36.9813 18.9899L36.98 18.9944L36.9758 19.0081C36.958 19.0664 36.9458 19.1063 36.925 19.1416C36.8832 19.2144 36.808 19.2686 36.5896 19.4258L36.5718 19.4382L36.5354 19.4344L36.5927 19.3352L36.5415 19.3197C36.3232 19.4901 36.2759 19.8857 36.2418 20.1707L36.2363 20.2144L36.2348 20.2283C36.2348 20.2323 36.2342 20.2362 36.2335 20.2403C36.2331 20.2427 36.2328 20.2452 36.2325 20.2477L36.2309 20.2617L36.2294 20.2748C36.228 20.2841 36.2267 20.2935 36.2254 20.3032L36.2243 20.3122C36.2232 20.3207 36.2221 20.3294 36.2209 20.3383V20.3414C36.1852 20.5947 36.1295 20.9929 36.2178 21.1641L36.437 21.1834C36.5261 21.2911 36.5772 21.4236 36.6283 21.556C36.6663 21.6552 36.7042 21.7536 36.7584 21.8419C36.821 21.9447 36.9114 22.0212 37.0026 22.0985L37.007 22.1022C37.0933 22.1755 37.18 22.2492 37.2418 22.3461C37.3882 22.5739 37.5005 22.8272 37.6128 23.082L37.6147 23.0862C37.7248 23.3358 37.836 23.5876 37.9816 23.8171C38.0819 23.9754 38.2323 24.0845 38.3783 24.1903L38.3797 24.1913L38.3824 24.1932C38.527 24.2979 38.6668 24.399 38.75 24.5422C38.7337 24.6468 38.7066 24.725 38.6594 24.8195C38.7164 24.8919 38.7902 24.9383 38.8627 24.9837L38.8638 24.9845C38.9513 25.0394 39.0367 25.0931 39.0877 25.1882V25.1913C39.0188 25.3795 38.9917 25.4555 39.0807 25.6406C39.1791 25.8466 39.3193 26.0263 39.4595 26.206L39.4658 26.2141C39.5737 26.3524 39.6812 26.4902 39.7694 26.6414C39.97 26.5818 40.1668 26.5461 40.3736 26.5159L40.5881 26.7026L40.5912 26.6972L40.6098 26.722L40.6137 26.7251H40.6129L40.6555 26.7816C40.6617 26.8413 40.6703 26.9102 40.6803 26.9846C40.7183 27.2704 40.7663 27.6321 40.6772 27.8459C40.6083 27.832 40.5672 27.7816 40.5254 27.7297C40.5234 27.7278 40.5218 27.7255 40.5201 27.7231C40.5191 27.7217 40.518 27.7203 40.5169 27.7189L40.513 27.7142L40.5099 27.7104L40.506 27.7057C40.506 27.7057 40.5052 27.7047 40.5042 27.7035C40.5032 27.7023 40.5021 27.701 40.5014 27.7003L40.451 27.7282C40.472 27.9172 40.5657 28.0435 40.7167 28.1628C40.7733 28.2069 40.7834 28.2061 40.8407 28.2015C40.8455 28.2015 40.8507 28.2009 40.8562 28.2002C40.8594 28.1998 40.8628 28.1994 40.8662 28.1992C40.876 28.1852 40.8852 28.1716 40.894 28.1584C40.8985 28.1518 40.9029 28.1452 40.9073 28.1387L40.9079 28.1378C40.9611 28.0577 41.0014 27.9968 41.1071 27.9567C41.1087 27.9567 41.111 27.9583 41.1133 27.9583C41.1149 27.9583 41.1172 27.959 41.1188 27.9598H41.1226L41.1257 27.9613C41.1273 27.9613 41.1288 27.9621 41.1312 27.9629L41.1366 27.9644L41.1435 27.966L41.1445 27.9662C41.1844 27.9754 41.2189 27.9834 41.2411 28.0256C41.2752 28.0892 41.2721 28.1527 41.269 28.2146C41.2652 28.2905 41.2614 28.365 41.3264 28.4362C41.4094 28.4527 41.5033 28.4489 41.5969 28.4451L41.6068 28.4447C41.7485 28.4385 41.8887 28.4331 41.9925 28.4912C41.9949 28.5175 41.9964 28.5423 41.9972 28.5655C42.001 28.657 42.0041 28.7259 42.0839 28.7995C42.1947 28.7716 42.2474 28.7058 42.2977 28.6422C42.3666 28.5556 42.4319 28.4734 42.6401 28.4997L42.6633 28.5555C42.6525 28.5686 42.6432 28.581 42.6339 28.5919L42.6334 28.5926C42.5625 28.6796 42.534 28.7146 42.5317 28.8522C42.6493 28.8986 42.8072 28.8205 42.9543 28.7477L42.9563 28.7468C43.0865 28.6828 43.2082 28.623 43.2854 28.6577C43.3033 28.6656 43.34 28.7156 43.3693 28.7555L43.376 28.7646C43.3876 28.7809 43.3977 28.7948 43.4039 28.8026C43.4585 28.7749 43.4749 28.7404 43.4978 28.6922L43.4984 28.691C43.4987 28.6903 43.4991 28.6896 43.4994 28.6889C43.5 28.6877 43.5005 28.6865 43.501 28.6853C43.5021 28.6827 43.5032 28.6801 43.5046 28.6779L43.5092 28.6686C43.5145 28.667 43.52 28.6654 43.5256 28.6638C43.5339 28.6614 43.5426 28.659 43.5518 28.6562C43.5673 28.6515 43.5828 28.6469 43.5999 28.6422L43.604 28.641C43.8251 28.5766 44.1765 28.4743 44.3512 28.4974C44.4016 28.5044 44.5155 28.571 44.6014 28.6221C44.6123 28.6284 44.6227 28.6345 44.6325 28.6402C44.654 28.6529 44.6728 28.664 44.6866 28.6709L44.7269 28.5772L44.7184 28.6856C44.8145 28.6693 44.8671 28.6205 44.9198 28.5717L44.9207 28.5709C44.987 28.5092 45.053 28.4479 45.2056 28.4579C45.2467 28.4602 45.3257 28.4749 45.4163 28.492L45.4194 28.4925C45.6188 28.5288 45.8743 28.5754 45.9136 28.5315C46.1143 28.3068 46.3296 28.2511 46.6232 28.2379C46.7704 28.2317 46.9059 28.2371 47.0353 28.2425L47.0388 28.2427C47.362 28.2558 47.6485 28.2674 47.9881 28.083L48.0268 28.0225C48.0407 28.0218 48.0547 28.021 48.0686 28.021C48.2724 28.021 48.4009 28.1062 48.4947 28.1689L48.5086 28.1782C48.5768 28.2239 48.6263 28.2526 48.6751 28.217L48.8827 28.1527L49.1856 28.193L49.7124 28.148L50.3104 28.2418L50.5497 28.1527L50.6938 28.217L51.0199 27.77C51.1865 27.8622 51.7953 27.7592 51.9952 27.708C52.0152 27.7029 52.0231 27.6991 52.0367 27.6927L52.0385 27.6918H52.0393L52.0455 27.6887C52.1354 27.6778 52.219 27.6864 52.3019 27.6957L52.303 27.6958C52.3808 27.7043 52.458 27.7127 52.5397 27.7034C52.5744 27.6996 52.6327 27.6231 52.6722 27.5712L52.6753 27.5671C52.676 27.5663 52.6768 27.5647 52.6776 27.564C52.683 27.557 52.6877 27.5508 52.6915 27.5454H52.6923C52.6923 27.5454 52.6946 27.5415 52.6954 27.5407L52.697 27.5384V27.5369L52.7001 27.5345L52.7659 27.5431C52.7717 27.553 52.7778 27.5633 52.784 27.5739C52.787 27.5791 52.79 27.5843 52.793 27.5895C52.824 27.6437 52.8581 27.7034 52.8976 27.7437C52.9735 27.8211 53.0548 27.7785 53.1493 27.729C53.216 27.6941 53.2888 27.6561 53.3717 27.6531L53.3802 27.6608L53.3879 27.6678L53.4003 27.6786C53.4871 27.7545 53.5614 27.8196 53.6861 27.8304L53.7768 27.7522L53.8945 27.7057C53.9774 27.7321 54.068 27.6957 54.1579 27.6593C54.2377 27.6267 54.3175 27.595 54.391 27.6073C54.4453 27.6159 54.5096 27.6546 54.5754 27.6949L54.5776 27.6962C54.6777 27.7562 54.7828 27.8194 54.8651 27.7871C54.9325 27.7607 54.9635 27.708 54.9945 27.6538L54.9952 27.6526C55.0329 27.5879 55.0718 27.5212 55.1757 27.495L55.2757 27.6267C55.3778 27.6098 55.4274 27.5533 55.4879 27.4844L55.4895 27.4826V27.4811L55.4987 27.471L55.5057 27.4633C55.5077 27.461 55.5097 27.4588 55.5117 27.4567L55.5139 27.4544C55.5166 27.4515 55.5193 27.4486 55.522 27.4455C55.5576 27.4059 55.5878 27.3812 55.6374 27.3579V27.3602C55.6382 27.3614 55.6388 27.3624 55.6393 27.3633C55.6399 27.3643 55.6405 27.3653 55.6413 27.3664L55.6444 27.3726L55.6459 27.375C55.6485 27.3793 55.6511 27.3835 55.6537 27.3878C55.6559 27.3915 55.6581 27.3951 55.6603 27.3988C55.6661 27.4084 55.672 27.4179 55.6785 27.4269C55.7593 27.5393 55.958 27.4956 56.1506 27.4532L56.1541 27.4524C56.2803 27.4245 56.4035 27.3974 56.4879 27.4152C56.5193 27.4221 56.565 27.503 56.5952 27.5564L56.5964 27.5585C56.6034 27.5717 56.6096 27.5826 56.615 27.5903C56.8102 27.7158 57.0395 27.6995 57.2649 27.6833L57.2846 27.6819C57.3678 27.6761 57.4509 27.6703 57.5306 27.6732C57.7045 27.6786 57.7581 27.7326 57.8622 27.8375L57.8629 27.8382L57.8892 27.8645C58.0805 27.9172 58.2618 27.7995 58.4353 27.6864L58.444 27.6808C58.5246 27.6285 58.6031 27.5776 58.6801 27.5469C58.7328 27.5252 58.8017 27.5415 58.8753 27.5593L58.8761 27.5616ZM55.8793 25.5824C55.8899 25.6016 55.8998 25.6194 55.9077 25.6352L55.9016 25.639L55.883 25.6514C55.8342 25.684 55.783 25.7181 55.7404 25.7583C55.6754 25.8188 55.6637 25.8707 55.6575 25.9574C55.6513 26.0434 55.639 26.1139 55.6149 26.196C55.6119 26.1991 55.6087 26.2023 55.6059 26.2051C55.6025 26.2086 55.5993 26.212 55.5964 26.2154L55.5886 26.2231L55.5869 26.2249C55.5346 26.2787 55.5078 26.3062 55.419 26.3285L55.5359 26.048L55.5034 26.0442C55.3709 26.1983 55.2377 26.337 55.0836 26.4702H53.7868L52.4003 26.8591H51.4738L50.6923 27.1441L50.3088 26.8769L49.1841 26.8978L47.7727 27.0884L46.3273 26.7878C46.1615 26.5655 46.098 26.3192 46.036 26.0767C45.9508 25.7421 45.8672 25.4167 45.5178 25.1781C45.5289 25.1713 45.5403 25.1647 45.5517 25.1581L45.5555 25.1559C45.5635 25.1512 45.5717 25.1466 45.5798 25.1417C45.6875 25.0798 45.7959 25.017 45.8517 24.9032C45.806 24.7715 45.7634 24.6359 45.823 24.5004C45.8641 24.4074 45.8981 24.3958 45.9725 24.371C45.9865 24.3663 46.0012 24.3617 46.0182 24.3555C46.0182 24.2957 45.9138 24.207 45.8223 24.1292L45.816 24.1239L45.8078 24.117C45.7668 24.0825 45.7293 24.0509 45.7068 24.0255L45.7223 23.9357C45.8122 23.907 45.8943 23.8962 45.988 23.8876C46.0608 23.7645 46.0748 23.6065 46.0887 23.4469L46.0888 23.4458C46.1035 23.2819 46.1183 23.1166 46.1964 22.9844C46.232 22.9256 46.3095 22.8799 46.3846 22.8365C46.4627 22.7908 46.5372 22.7473 46.5574 22.6924L46.5682 22.6614C46.5512 22.6529 46.5357 22.646 46.5203 22.639L46.5168 22.6374C46.4549 22.6088 46.4072 22.5866 46.3683 22.5181C46.3992 22.5065 46.433 22.4954 46.4683 22.4839L46.4822 22.4794L46.4891 22.4771C46.6027 22.4398 46.7287 22.3984 46.8122 22.3369C46.844 22.3136 47.6372 21.326 47.6906 21.2415C47.7216 21.1927 47.7324 21.1424 47.7379 21.0851C47.7392 21.0722 47.7398 21.0637 47.7402 21.0577C47.7404 21.0552 47.7405 21.0532 47.7406 21.0515C47.7407 21.0504 47.7408 21.0495 47.741 21.0487V21.0425C47.741 21.0386 47.7425 21.0339 47.7448 21.0192V21.0177C47.7464 21.0115 47.7479 21.0037 47.7495 20.9937L47.7719 20.869C47.8424 20.8395 47.9013 20.8271 47.9772 20.8186L48.0043 20.8155C48.0663 20.703 48.0625 20.5784 48.0587 20.4522L48.0586 20.4476L48.0584 20.4428C48.0546 20.3243 48.0507 20.2052 48.1019 20.0951L48.2615 20.2136L48.3537 20.1943C48.4397 20.0827 48.4265 19.9805 48.4102 19.855C48.4064 19.8271 48.4025 19.7977 48.4002 19.7667C48.4706 19.6946 48.5512 19.6931 48.6341 19.6923C48.71 19.6915 48.7882 19.69 48.8642 19.6358L48.8781 19.4274C48.9215 19.3763 48.9563 19.3484 49.0183 19.322C49.3196 19.1958 49.9114 19.054 50.2159 19.1818C50.2236 19.1818 50.2314 19.1818 50.2391 19.1826C50.244 19.1826 50.2489 19.1826 50.2538 19.1827C50.2582 19.1828 50.2626 19.183 50.267 19.1834H50.2685C50.2771 19.1834 50.2856 19.1834 50.2941 19.1842C50.4227 19.1896 50.5428 19.1981 50.6566 19.2756L50.6845 19.3213C51.0517 19.3267 51.5466 19.4003 51.8518 19.621C51.9239 19.6056 52.006 19.58 52.0904 19.5537L52.0935 19.5527C52.2817 19.4941 52.4879 19.4298 52.6497 19.4545H52.652C52.652 19.4545 52.6575 19.4561 52.6606 19.4561H52.6637L52.6668 19.4568H52.6722L52.6807 19.4592H52.6815L52.6869 19.4607H52.6908L52.6939 19.4622H52.697L52.6683 19.4382L52.7837 19.4289L52.7582 19.4437L52.7636 19.4661L52.5188 19.5188C52.5242 19.6014 52.6473 19.7302 52.7486 19.8361L52.7496 19.8372L52.7609 19.8491C52.7966 19.8868 52.8286 19.9206 52.8503 19.9479C52.9898 19.8705 53.0734 19.817 53.1625 19.6799C53.3058 19.7984 53.4344 19.9332 53.563 20.0688L53.5702 20.0763C53.7111 20.2241 53.8524 20.3722 54.0138 20.4979C54.1506 20.6045 54.1871 20.5809 54.248 20.5416C54.2837 20.5184 54.3275 20.4902 54.4042 20.4793C54.4693 20.5421 54.4677 20.5754 54.4654 20.618L54.4653 20.6209C54.4646 20.6481 54.4637 20.6792 54.4794 20.7233C54.5033 20.7914 54.631 20.9214 54.7989 21.0924L54.801 21.0946C55.1302 21.43 55.6129 21.9218 55.7745 22.4135C55.8404 22.6134 55.9124 22.9442 55.8132 23.1378C55.7443 23.1355 55.687 23.1363 55.6188 23.1494C55.5685 23.3547 55.6273 23.4213 55.6978 23.5003L55.6989 23.5015C55.7419 23.55 55.7887 23.6025 55.8171 23.6948L55.6823 23.7381C55.6095 23.8435 55.6281 24.0062 55.6475 24.1719L55.6481 24.1771C55.6634 24.3117 55.6788 24.4476 55.6459 24.5577L55.6506 24.5608L55.6599 24.5677L55.673 24.577L55.6765 24.5794C55.8042 24.6684 55.9894 24.7975 56.027 24.9388C56.0061 25.017 55.955 25.0813 55.9047 25.1441L55.9009 25.1488C55.8534 25.2091 55.8074 25.2675 55.7916 25.3362C55.7761 25.4036 55.8311 25.5027 55.8744 25.5794L55.8768 25.5779L55.8793 25.5824Z" fill="black"/>
<path d="M40.5621 26.7467L40.5862 26.7034L40.6086 26.7227L40.611 26.7258L40.5621 26.7467Z" fill="black"/>
</svg>
