<svg width="24" height="24" viewBox="0 0 24 24" fill="none" xmlns="http://www.w3.org/2000/svg">
<path d="M5.79994 17.5795L5.02275 15.5067L4.76947 14.5403L4.30443 14.3905L2.91891 14.8829L1.56647 15.253L0.67542 15.4322L0.528242 15.217L0.87006 14.6492L1.54982 13.8782L1.72164 13.6755L2.53921 12.8023L2.58211 12.4192L1.3732 10.9269L0.944903 10.4471L0.214035 9.11325L0.0260128 8.75403L0 8.57966L0.161781 8.51014L2.32449 8.82218L2.68936 8.93934L4.4523 9.25685L5.05949 9.29286L5.1519 8.64485L5.23245 7.2759L5.50308 5.92882L5.66417 5.28309L5.98637 5L6.19926 5.15203L6.79961 6.34024L7.66533 8.47573L7.9031 9.25685L8.78502 8.84931L11.0452 7.95126L11.3525 7.89564L12.1957 7.97519L13.4098 8.55322L14.6324 9.11279L15.5253 9.50438L16.0905 9.54951L16.1882 9.45218L16.1612 8.96213L16.1861 7.40627L16.5517 5.92996L16.747 5.75081L16.967 5.92084L17.2091 6.31904L17.2702 6.40816L17.7227 7.08147L18.1857 8.1083L18.7812 9.02664L19.0544 9.12282L19.681 8.79665L20.9932 8.30227L22.3779 8.10511L22.4593 8.05223L22.8189 8.04311L23.0065 8.29452L22.8853 8.7244L22.8004 8.91586L21.9986 9.8399L21.6408 10.5153L20.7066 11.6303L20.3888 11.7247L20.4333 12.0531L20.6174 12.111L21.3485 12.596L21.4462 12.7212L22.2245 13.2443L23.0918 13.7501L23.6842 14.3019L24 14.5945L23.9128 14.8747L23.7262 14.9045L22.4372 14.9665L21.4574 14.9738L20.9764 14.9889L20.4572 14.8674L20.0842 14.68L19.396 14.4769L19.1721 14.7261L18.7589 15.8963L18.1426 17.8271L17.2775 18.3324L17.0897 18.1576L16.7262 17.3915L16.543 16.9641L16.4923 16.4663L16.3531 15.5448L16.0435 14.1421L15.7603 13.9716L14.8627 14.1959L13.9504 14.4879L12.7476 14.8471L12.6696 14.9647L11.7242 15.3285L10.6573 15.0732L9.83923 14.6502L8.24355 14.1323L7.69294 14.4512L7.32625 15.9261L7.11108 17.4412L6.8473 18.2955L6.28506 18.4441L6.14883 18.2852L6.06349 17.931L5.80063 17.5809L5.79994 17.5795ZM12.1055 9.26984L11.1627 9.62313L10.2235 10.3831L9.23682 11.238L9.19393 11.4391L9.89171 12.0353L11.6998 13.5937L11.9709 13.6682L13.1187 13.0227L14.0348 12.2409L14.6254 11.6743L14.6648 11.2107L13.1116 9.72092L12.1055 9.27007V9.26984Z" fill="#0D0F11"/>
</svg>
