<svg width="83" height="36" viewBox="0 0 83 36" fill="none" xmlns="http://www.w3.org/2000/svg">
<path fill-rule="evenodd" clip-rule="evenodd" d="M36.8935 24.1735C37.1196 24.3323 37.9857 25.9504 38.0895 26.2487L38.098 26.2417L38.1057 26.2642L38.1062 26.2656C38.3188 26.8756 38.3751 27.0369 38.0988 27.6569C37.8381 27.8905 37.504 28.0152 37.1683 28.1405L37.1669 28.1411C36.8718 28.2511 36.5759 28.3618 36.3272 28.547C36.3078 28.5609 36.2869 28.5725 36.266 28.5841L36.2575 28.5896H36.2567C36.2544 28.5911 36.2498 28.5934 36.2498 28.5934L35.9538 28.3634C35.9533 28.3636 35.9526 28.3638 35.952 28.3641C35.9514 28.3643 35.9508 28.3646 35.9503 28.3648C35.9492 28.3653 35.9484 28.3657 35.9484 28.3657L35.9453 28.3672C35.9415 28.3688 35.9376 28.3696 35.9337 28.3711C35.9043 28.3812 35.9019 28.382 35.8733 28.423L35.8702 28.4269L35.8681 28.4299C35.7988 28.529 35.7512 28.5969 35.627 28.6329C35.5422 28.6047 35.4958 28.5674 35.4567 28.5359L35.455 28.5346C35.3768 28.471 35.328 28.4315 35.0638 28.5346C34.9569 28.4896 34.8849 28.4354 34.7997 28.3572C34.668 28.3587 34.5456 28.4331 34.4232 28.5075C34.2652 28.6043 34.1072 28.7003 33.9282 28.6368L33.8291 28.4842L33.771 28.4858L33.7663 28.5113C33.7659 28.5131 33.7656 28.5149 33.7653 28.5168C33.7651 28.5177 33.765 28.5186 33.7648 28.5196L33.7644 28.5222C33.7641 28.524 33.7638 28.5259 33.7635 28.5277C33.7632 28.5295 33.7628 28.5313 33.7625 28.533L33.7601 28.5446L33.7592 28.5496C33.7371 28.6685 33.7169 28.7774 33.6161 28.8607L33.4913 28.8831C33.369 28.7646 33.2628 28.6376 33.1559 28.5059L33.1157 28.5152C33.1151 28.5169 33.1146 28.5185 33.1141 28.5202L33.1122 28.5264C33.1115 28.5286 33.1108 28.5308 33.1101 28.533C33.1096 28.5345 33.1092 28.5361 33.1087 28.5377L33.1033 28.557L33.1019 28.5616C33.0567 28.7132 33.0147 28.8542 32.9143 28.9823C32.8066 29.0187 32.7524 29.0272 32.6393 28.9823C32.5773 28.9575 32.5107 28.8971 32.4417 28.8343L32.4406 28.8333C32.3286 28.7322 32.2121 28.6269 32.1009 28.6593C31.9011 28.7174 31.7926 28.8979 31.6911 29.0675L31.6772 29.09L31.6718 29.0985C31.2488 29.1302 30.3743 29.1883 29.9978 29.0962L29.9289 28.8971L29.8499 28.8677C29.7694 28.9383 29.7157 29.0341 29.6626 29.1291L29.6593 29.1349C29.5958 29.2495 29.5331 29.3626 29.4262 29.43C29.3657 29.3835 29.3433 29.3278 29.3177 29.2612L29.3107 29.2449L29.3084 29.2379C29.2043 29.2318 29.0897 29.2756 28.948 29.3297L28.9409 29.3324C28.6777 29.433 28.3233 29.5685 27.7778 29.4912C27.7763 29.4947 27.775 29.4981 27.7737 29.5014C27.7715 29.5069 27.7693 29.5122 27.7669 29.5176C27.7646 29.523 27.763 29.5276 27.7607 29.533L27.7576 29.5416L27.7568 29.5436C27.7109 29.6538 27.6887 29.707 27.5647 29.7817L27.0922 29.7949C27.0899 29.798 27.086 29.8042 27.086 29.8042L27.0837 29.8088L27.0814 29.8127L27.0783 29.8173C27.076 29.8212 27.0729 29.8259 27.0705 29.8297C27.045 29.8716 27.0194 29.9134 26.9706 29.925C26.8935 29.9427 26.7773 29.916 26.6502 29.8867L26.6484 29.8863C26.502 29.8514 26.3401 29.8142 26.2045 29.8375C26.113 29.8527 26.0289 29.9033 25.9428 29.9552L25.9359 29.9593C25.8508 30.0107 25.7626 30.0639 25.6623 30.0861C25.6189 30.0877 25.5639 30.0915 25.5027 30.0962L25.5003 30.0964C25.2183 30.1165 24.792 30.147 24.6437 30.0234L24.5499 29.8166C24.495 29.8328 24.4849 29.8514 24.4655 29.887L24.4649 29.8882C24.4596 29.898 24.4536 29.9092 24.4454 29.9219C24.2426 29.9581 24.0406 29.811 23.8532 29.6745L23.8505 29.6725C23.7761 29.6183 23.7041 29.5664 23.6359 29.5276L23.5879 29.3309C23.4531 29.334 23.3322 29.32 23.2099 29.2596C23.0146 29.1636 22.9689 29.0373 22.9047 28.8413L22.9643 28.7367L22.9364 28.6438C22.5737 28.3244 22.6403 28.1093 22.7099 27.8843L22.7102 27.8831C22.7474 27.7631 22.7853 27.6405 22.7598 27.4981C22.6773 27.3932 22.5909 27.3536 22.4884 27.3066L22.4736 27.2998C22.4477 27.2879 22.421 27.2756 22.3926 27.2611C22.3718 27.0135 22.3203 26.9395 22.2655 26.8609L22.2648 26.8598C22.2254 26.8042 22.1834 26.7449 22.1502 26.6182L22.2826 26.6964C22.3694 26.4756 22.2896 25.4919 22.2315 25.2293C22.1873 25.0283 22.1321 24.8477 22.0781 24.6705L22.0727 24.653L22.072 24.6506C21.9762 24.3377 21.8836 24.0354 21.8566 23.6576C21.8496 23.56 21.8992 23.4825 21.9488 23.4051C21.9867 23.3462 22.0247 23.2873 22.0371 23.2191C22.0595 23.0983 22.0348 22.9627 22.0092 22.8249C21.9852 22.694 21.9612 22.5599 21.9759 22.4345C21.996 22.2625 22.0518 22.2199 22.1688 22.1316L22.1695 22.13H22.1703C22.1764 22.1254 22.1829 22.1205 22.1895 22.1155L22.1997 22.1076C22.229 21.9943 22.1755 21.9094 22.1178 21.8177L22.1169 21.8163C22.0642 21.7334 22.0084 21.6443 22.0084 21.5251L22.0487 21.4987C22.0781 21.4794 22.1509 21.4313 22.1664 21.4011C22.1974 21.3399 22.2005 21.082 22.2036 20.8047C22.2067 20.5119 22.2106 20.1958 22.2478 20.0649C22.3252 19.7899 22.7009 19.5784 22.9294 19.4514C22.9728 19.3817 22.9844 19.3228 22.9992 19.2423L23.0046 19.2105C23.0882 19.195 23.1471 19.2345 23.2091 19.2763C23.2625 19.3128 23.3183 19.3499 23.3934 19.3546C23.4854 19.2877 23.5266 19.1963 23.5655 19.1102L23.5677 19.1052L23.571 19.098C23.6038 19.0255 23.6347 18.9573 23.694 18.9115C23.7691 18.8534 23.8505 18.8464 23.9341 18.8402L23.9348 18.8402C24.043 18.8317 24.1543 18.8229 24.261 18.7L24.3811 18.5629L24.4152 18.6001C24.3849 18.7147 24.3586 18.8302 24.3361 18.9464C24.3764 18.9642 24.4183 18.9285 24.4779 18.8766C24.5678 18.7984 24.7002 18.6838 24.9365 18.6597C24.9008 18.5916 24.8613 18.5296 24.818 18.4661C24.835 18.3491 24.9125 18.2895 24.9992 18.2236C25.0232 18.2058 25.0465 18.1872 25.0705 18.1663H25.0751L25.0813 18.1648L25.0844 18.1632H25.0883C25.1046 18.1593 25.1162 18.1555 25.1363 18.1431C25.1534 18.1322 25.1704 18.1206 25.1874 18.1074C25.3075 18.016 25.426 17.8743 25.4601 17.7434C25.4551 17.7426 25.45 17.7416 25.445 17.7407C25.44 17.7397 25.4349 17.7387 25.4299 17.738L25.4273 17.7373C25.4257 17.7369 25.4241 17.7365 25.4225 17.7362C25.421 17.7358 25.4195 17.7355 25.418 17.7352C25.4158 17.7347 25.4136 17.7344 25.4113 17.7341L25.4005 17.7318L25.3904 17.7294H25.3888L25.3881 17.7293C25.2963 17.7108 25.2282 17.697 25.1301 17.748L25.0821 17.8263C25.0039 17.8851 24.9171 17.8921 24.8365 17.8983L24.835 17.8984C24.7271 17.9077 24.6302 17.916 24.5755 18.0455C24.4237 17.9022 23.9496 17.7356 23.7366 17.7395C23.6622 17.7411 23.6088 17.8007 23.5654 17.8565C23.5406 17.889 23.522 17.9355 23.5034 17.9827C23.4701 18.0672 23.4353 18.1547 23.3601 18.1648C23.2257 18.1829 23.0773 18.151 22.9264 18.1185L22.9078 18.1145C22.7699 18.0847 22.6313 18.0549 22.5011 18.0617C22.3586 18.0694 22.2389 18.1119 22.1202 18.154L22.1161 18.1555L22.1149 18.1559C21.9503 18.2146 21.7863 18.2731 21.5622 18.2399L21.5529 18.226C21.5491 18.2198 21.5452 18.2136 21.5413 18.2081L21.5406 18.207C21.4838 18.1203 21.4595 18.0832 21.3531 18.0331L21.2446 18.0432C21.1989 18.1191 21.1989 18.1911 21.1989 18.2748V18.3096L21.1517 18.3855C21.0425 18.3879 20.9859 18.3499 20.9309 18.3119C20.8597 18.2632 20.7907 18.2159 20.6126 18.26L20.5483 18.2895C20.3345 18.3871 20.0874 18.4994 19.8596 18.5203L19.6908 18.6334C19.6853 18.6323 19.6801 18.6311 19.6749 18.6299C19.6697 18.6288 19.6644 18.6276 19.659 18.6264C19.4181 18.5807 19.0432 18.5536 18.8038 18.6032C18.716 18.6215 18.6025 18.6768 18.4865 18.7333L18.4727 18.74C18.3144 18.8168 18.1535 18.895 18.0463 18.8844C17.9743 18.8776 17.9172 18.8478 17.8619 18.819L17.857 18.8165C17.7652 18.7686 17.6786 18.7235 17.5358 18.7876L17.6171 18.9115C17.6132 18.92 17.6094 18.9301 17.6063 18.9394C17.6001 18.9588 17.5931 18.9781 17.5807 18.9936C17.5572 19.0231 17.4568 19.0682 17.3605 19.1114L17.3537 19.1144C17.2856 19.1447 17.2197 19.1741 17.1857 19.1958C16.796 19.4429 16.3289 19.7489 15.9989 20.0672C15.954 20.3678 15.9656 20.5583 16.0299 20.8535C16.04 20.8999 16.0346 20.9294 16.0199 20.9735C15.9323 20.9351 15.8844 20.8717 15.83 20.7996L15.8285 20.7977L15.8208 20.7876C15.8161 20.7822 15.8123 20.776 15.8076 20.7706L15.7317 20.7504C15.7209 20.862 15.724 20.9139 15.7774 21.0138L15.9649 21.1261C15.9911 21.2702 15.9422 21.3744 15.8837 21.499L15.8827 21.501C15.8758 21.5165 15.868 21.5328 15.8603 21.5491L15.8913 21.5932C15.9556 21.6823 16.0965 21.8124 16.2391 21.9434L16.2447 21.9486C16.4226 22.1126 16.6003 22.2766 16.6279 22.3624C16.6479 22.4246 16.642 22.4708 16.6374 22.507L16.6372 22.508C16.6279 22.5747 16.6233 22.6111 16.7945 22.6645L16.4622 23.0495C16.4684 23.0588 16.4746 23.0673 16.4808 23.0758C16.4826 23.0785 16.4845 23.0812 16.4863 23.0838C16.4887 23.0873 16.4911 23.0907 16.4935 23.094C16.4978 23.1 16.5021 23.106 16.5063 23.1122L16.511 23.1184C16.6117 23.2625 16.7139 23.4081 16.8549 23.5135C16.7457 23.57 16.6814 23.6049 16.6318 23.7203V23.7288L16.6326 23.7381C16.6403 23.8272 16.6419 23.8419 16.7248 23.9078C16.8171 23.9809 16.9347 23.9752 17.0471 23.9699L17.0493 23.9697L17.0625 23.9682H17.0888C17.0493 24.0193 16.9781 24.0348 16.9107 24.0488C16.906 24.0498 16.9014 24.0508 16.8968 24.0518C16.8933 24.0526 16.8897 24.0534 16.8862 24.0542C16.8771 24.0562 16.8682 24.0583 16.8595 24.0604C16.9066 24.2663 17.0758 24.4638 17.2462 24.6628L17.2484 24.6654C17.4582 24.91 17.669 25.1558 17.6605 25.4229C17.6602 25.4258 17.6601 25.4288 17.6599 25.4318C17.6595 25.4377 17.6592 25.4436 17.6582 25.4493V25.4648C17.751 25.5591 17.8416 25.5828 17.9554 25.6126L17.9587 25.6135C17.9851 25.6197 18.0122 25.6267 18.0401 25.6352C18.0974 25.7095 18.0966 25.8125 18.0958 25.9178C18.0951 26.003 18.0943 26.0891 18.1245 26.1635C18.4272 26.2463 18.4722 26.4591 18.5202 26.686L18.5208 26.6884C18.5524 26.8373 18.5851 26.9913 18.6938 27.1186C18.7665 27.2036 18.8553 27.2092 18.9534 27.2154L18.9541 27.2154C18.9611 27.2159 18.9682 27.2164 18.9753 27.2168C18.9887 27.2177 19.0024 27.2185 19.0161 27.22C19.0703 27.2936 19.068 27.3936 19.0649 27.4974C19.0626 27.5833 19.0602 27.6709 19.0897 27.7491C19.2206 27.7173 19.3453 27.6988 19.4785 27.6864C19.5382 27.7367 19.5475 27.818 19.5568 27.9033C19.5661 27.9854 19.5761 28.0729 19.6311 28.1418L19.7953 28.0264C19.965 28.014 20.1044 28.0954 20.2485 28.1868C20.4631 28.3223 20.5537 28.4602 20.6102 28.7042L20.6219 28.7553L20.68 28.7832L20.7195 28.6872L20.7675 28.6732C20.7954 28.7259 20.8194 28.7809 20.8318 28.8398C21.0075 29.6667 20.6973 29.7917 20.4742 29.8815C20.3774 29.9202 20.2965 29.9529 20.2787 30.0327C20.2665 30.087 20.2648 30.1285 20.2633 30.1669L20.2632 30.1682C20.2609 30.2341 20.2586 30.2906 20.2028 30.3844C20.006 30.4835 19.8852 30.4308 19.7636 30.3774C19.6729 30.3371 19.5815 30.2976 19.4592 30.3216C19.4599 30.327 19.4607 30.3325 19.4607 30.3386C19.4607 30.34 19.4608 30.3414 19.461 30.3429C19.461 30.3436 19.4611 30.3443 19.4612 30.345C19.4613 30.3457 19.4614 30.3464 19.4615 30.3472C19.4616 30.3484 19.4618 30.3497 19.462 30.351C19.4621 30.3526 19.4623 30.3542 19.4623 30.3557C19.4624 30.3571 19.4625 30.3586 19.4627 30.36C19.4629 30.362 19.4632 30.364 19.4635 30.366L19.4643 30.3721C19.4647 30.3751 19.4651 30.3782 19.4654 30.3813C19.4662 30.3862 19.4668 30.3913 19.4674 30.3965C19.4678 30.3998 19.4682 30.4031 19.4686 30.4065L19.469 30.4094L19.4692 30.4107C19.4855 30.5439 19.5064 30.7151 19.4522 30.805C19.3406 30.8483 19.2353 30.8693 19.1183 30.8894C19.0842 30.9467 19.0502 31.0025 19.0138 31.0583C19.0112 31.0562 19.009 31.0542 19.0069 31.0521C19.0058 31.0511 19.0047 31.05 19.0037 31.049C18.9905 31.0358 18.9773 31.0234 18.9626 31.0118C18.8519 30.9266 18.7721 30.9119 18.6412 30.9227C18.5939 31.0079 18.5436 31.0753 18.4769 31.1458C18.3336 31.1961 18.1516 31.2318 18.0091 31.1582C17.848 31.0745 17.7868 30.8739 17.7341 30.6996C17.7248 30.6671 17.7155 30.6361 17.7054 30.6067C17.624 30.5391 17.5525 30.5476 17.463 30.5584L17.4606 30.5586C17.4366 30.5617 17.4118 30.5641 17.3847 30.5664C17.2461 30.4416 17.1151 29.8175 17.023 29.3787L17.0214 29.3712V29.3704L17.0126 29.3288L17.0125 29.3281C16.9839 29.1932 16.9598 29.0796 16.9409 29.0094C16.8595 28.9598 16.7805 28.9273 16.6914 28.8948C16.6256 28.7631 16.6225 28.6074 16.6202 28.4525L16.62 28.4419C16.6177 28.3354 16.6155 28.2292 16.5915 28.1318C16.5512 27.9691 15.9377 26.7832 15.8208 26.6135C15.7779 26.5514 15.7012 26.4682 15.6155 26.3752L15.6031 26.3618C15.4141 26.158 15.1895 25.9148 15.1895 25.7669L15.308 25.6886L15.3188 25.6158C15.2925 25.5895 15.2669 25.5631 15.2414 25.5368C15.2088 25.5035 15.1755 25.4694 15.1422 25.4369C15.0115 25.3092 14.925 25.1556 14.8389 25.0026L14.837 24.9992L14.83 24.9869C14.7588 24.8608 14.6874 24.7345 14.5899 24.6235C14.4169 24.4258 14.4064 24.2243 14.394 23.9882L14.3939 23.986C14.3916 23.9434 14.3893 23.9008 14.3862 23.8559C14.2127 23.6336 14.0516 23.4755 13.8261 23.3059L13.8271 23.2994C13.8299 23.2808 13.8326 23.2626 13.8347 23.2432C13.8393 23.2098 13.844 23.1758 13.8494 23.1425C13.8502 23.1378 13.8509 23.1339 13.8525 23.1301V23.1262C13.8526 23.1257 13.8527 23.1252 13.8528 23.1247C13.853 23.1237 13.8532 23.1226 13.8534 23.1215C13.8538 23.1191 13.854 23.1169 13.854 23.1169L13.8563 23.1053L13.8579 23.0991L13.8595 23.0903C13.8675 23.046 13.8756 23.0016 13.8734 22.9565C13.8633 22.718 13.7084 22.6235 13.5426 22.5228C13.4559 22.4701 13.3676 22.4159 13.2948 22.3392L13.3436 22.295H13.3513C13.4179 22.2857 13.4822 22.2772 13.5488 22.285C13.5558 22.2857 13.562 22.2865 13.5682 22.2888H13.5767L13.5953 22.2912C13.5908 22.2603 13.5389 22.1872 13.47 22.0902L13.4636 22.0812C13.3304 21.8945 13.1375 21.6227 13.0848 21.3972C13.0585 21.2843 13.1134 21.1968 13.1706 21.1055L13.1736 21.1006L13.1764 21.096L13.1812 21.0881L13.1859 21.0806C13.1976 21.0616 13.2093 21.0426 13.2196 21.0231C13.1796 20.9862 13.1068 20.9989 13.0276 21.0127L13.026 21.013C12.9632 21.0247 12.8966 21.0363 12.8408 21.0247L12.8393 21.0223C12.8099 20.9868 12.7765 20.9463 12.7595 20.903C12.7177 20.7985 12.7076 20.7303 12.7595 20.635C12.8602 20.6211 12.9601 20.6133 13.0616 20.6079L13.0833 20.5459C12.9902 20.5013 12.8876 20.4899 12.7854 20.4786L12.7781 20.4778L12.7595 20.4747H12.7494L12.7394 20.4731C12.7301 20.4724 12.7215 20.4708 12.7122 20.47C12.6163 20.3533 12.5728 20.2061 12.529 20.058L12.5268 20.0505C12.4977 19.9517 12.4685 19.8523 12.4233 19.762C12.3753 19.666 12.3032 19.5823 12.2312 19.4994L12.2219 19.4886C12.1777 19.4372 12.1333 19.3856 12.0956 19.3306C12.0252 19.2283 12.0298 19.1509 12.053 19.0393L12.2382 18.9285L12.208 18.9192C12.2018 18.9169 12.1963 18.9154 12.1901 18.9138C12.1829 18.9118 12.1754 18.9097 12.1679 18.9076L12.1636 18.9064L12.1568 18.9045L12.1506 18.9022H12.1499C12.0654 18.8782 11.9864 18.855 11.9128 18.824C11.7912 18.7721 11.6866 18.6977 11.6076 18.556C11.6015 18.5324 11.5949 18.5084 11.5882 18.484L11.5875 18.4814C11.5852 18.473 11.5828 18.4645 11.5805 18.456C11.524 18.2531 11.4643 18.0377 11.5534 17.8402C11.5864 17.7665 11.4039 17.596 11.2407 17.4436L11.2305 17.434C11.1275 17.3379 11.034 17.2505 11.0104 17.2011C11.0054 17.1897 11.0077 17.1321 11.0099 17.0757L11.0104 17.0617C11.0127 17.0199 11.0143 16.9796 11.0127 16.9633C10.9097 16.9107 10.8106 16.882 10.6998 16.8533L10.6293 16.7325C10.6014 16.5753 10.6572 16.4281 10.713 16.2817L10.7215 16.2584C10.7226 16.2557 10.7236 16.2528 10.7246 16.2499C10.7255 16.247 10.7265 16.2441 10.7277 16.2414L10.7323 16.2275C10.7346 16.2228 10.7362 16.2182 10.7377 16.2135L10.7401 16.2065L10.6959 16.1438H10.6541C10.5588 16.1446 10.4279 16.1453 10.369 16.0749C10.3218 16.0183 10.2799 15.9292 10.2412 15.8463L10.2401 15.8439C10.2212 15.8038 10.2029 15.7651 10.1854 15.7325C9.94996 15.301 9.69201 14.9269 9.27294 14.6527C9.18412 14.4637 9.11871 14.2697 9.05325 14.0755L9.04753 14.0585C9.04237 14.0434 9.03722 14.0283 9.03207 14.0132C8.99236 13.8964 8.95249 13.7793 8.90655 13.6627L8.9019 13.6658L8.8957 13.6697C8.88021 13.6797 8.86472 13.6898 8.84845 13.6968C8.73381 13.7495 8.65015 13.7409 8.53938 13.6991L8.49135 13.5837C8.51149 13.5388 8.53163 13.4962 8.55642 13.4543L8.57966 13.4156C8.5417 13.3428 8.49368 13.2971 8.44565 13.2514L8.44044 13.2464C8.40803 13.2155 8.37513 13.1841 8.34572 13.1437C8.29856 13.0788 8.30542 12.9683 8.31238 12.8562C8.32167 12.7175 8.33023 12.5775 8.2365 12.5232C8.18305 12.493 8.0963 12.4752 8.01264 12.4582L8.00227 12.4561C7.94862 12.4452 7.89692 12.4348 7.85617 12.4202C7.80814 12.4039 7.70589 12.3513 7.6904 12.2963C7.67258 12.2312 7.67645 12.1723 7.68033 12.1142L7.68038 12.1135C7.68578 12.0308 7.69099 11.9513 7.63308 11.8609L7.40379 11.8346C7.324 11.6812 7.30386 11.5488 7.2845 11.3791C7.21866 11.2637 7.06915 11.1917 6.93902 11.1297C6.91113 11.1165 6.88325 11.1034 6.85768 11.0902C6.82205 10.7772 6.73684 10.4852 6.65009 10.1901L6.63266 10.1296C6.60271 10.0258 6.57262 9.92151 6.54474 9.81517C6.08539 9.34498 5.60978 8.77176 5.31775 8.17763C5.33091 7.90806 5.29838 7.72371 5.16205 7.48977C5.07374 7.47893 5.00325 7.45956 4.92192 7.42393C4.8144 7.30797 4.79064 7.12882 4.7691 6.96648L4.76854 6.96226C4.76666 6.94908 4.76491 6.93603 4.76317 6.92317C4.76063 6.90427 4.75814 6.88571 4.75537 6.86775L4.73136 6.84064C4.55432 6.63973 4.44611 6.45871 4.3239 6.25425L4.32159 6.25038C4.28441 6.18842 4.24568 6.12412 4.20385 6.05596C4.0772 5.85131 4.02215 5.8376 3.80613 5.78379L3.79175 5.78019C3.78091 5.73526 3.81731 5.69653 3.85759 5.65393C3.88858 5.6214 3.92111 5.58654 3.9366 5.54548C3.85527 5.43239 3.73443 5.36345 3.61204 5.29373C3.51676 5.23951 3.42071 5.18451 3.3417 5.10782C3.48017 4.90592 3.074 4.46685 2.76817 4.13624L2.76693 4.13491C2.61975 3.97611 2.49582 3.8421 2.4687 3.77316C2.45341 3.73456 2.44633 3.67678 2.43975 3.623L2.43849 3.61281C2.4354 3.58648 2.4323 3.56091 2.42842 3.54C2.30913 3.64225 2.22702 3.70112 2.06978 3.70499C1.98099 3.6193 1.96146 3.49975 1.94216 3.38162L1.94196 3.38043C1.93809 3.35719 1.93422 3.33395 1.93035 3.31149C1.6786 3.14804 1.45163 2.97221 1.21925 2.78397C1.19368 2.84284 1.18129 2.86531 1.12629 2.89862C0.940496 2.83823 0.93729 2.78481 0.932647 2.70742L0.932525 2.70541C0.929457 2.65465 0.925743 2.59321 0.86912 2.51363C0.675466 2.42765 0.504276 2.32308 0.326888 2.20766C0.324259 2.20591 0.321568 2.20415 0.31885 2.20238C0.311958 2.19789 0.304894 2.19329 0.298228 2.18829H0.296678L0.283406 2.17999C0.223192 2.14234 0.161167 2.10356 0.109221 2.05738C0.0180713 1.97705 0.0101139 1.80197 0.00392501 1.66579L0.00387309 1.66465C0.00309847 1.63754 0.00154923 1.61198 0 1.58951C0.0201376 1.57402 0.0410496 1.56008 0.0619617 1.54614C0.181253 1.46558 0.289707 1.39121 0.309072 1.22932C0.316044 1.17045 0.31372 1.12165 0.311396 1.07749L0.311352 1.07652C0.306725 0.973986 0.303269 0.897392 0.428363 0.773842C0.491882 0.711098 0.601877 0.675466 0.708 0.641383C0.82097 0.605016 0.92958 0.570052 0.969046 0.50505L0.875317 0.379562C0.880711 0.374168 0.886105 0.368689 0.891527 0.363182C0.902454 0.352082 0.913505 0.340857 0.924893 0.329987C0.977567 0.278088 1.03024 0.225414 1.07284 0.167317L1.14333 0.224639L1.11235 0.18126C1.40825 0.299777 1.54459 0.258722 1.81803 0.175063H1.8188C1.82491 0.173205 1.8311 0.171256 1.83739 0.169278C1.84945 0.165484 1.86184 0.161586 1.87457 0.158022C1.87845 0.156473 1.88232 0.154923 1.88619 0.1526C1.89394 0.147952 1.90091 0.144079 1.90788 0.147952C1.92647 0.158796 1.93499 0.179711 1.94274 0.2014C1.94661 0.212245 1.95049 0.22309 1.95591 0.232385L1.95358 0.350901C2.03414 0.399702 2.15189 0.403575 2.24329 0.38421C2.32714 0.366677 2.42675 0.32814 2.53103 0.287792L2.53816 0.285035C2.72967 0.210901 2.93399 0.13181 3.076 0.166543C3.10621 0.262595 3.1372 0.357873 3.17283 0.452376C3.237 0.419526 3.2635 0.385922 3.30583 0.332245L3.30761 0.329987L3.30916 0.327663L3.70654 0.40435L3.76386 0.358648L3.78013 0.187457C3.84597 0.140206 3.90639 0.107672 3.98076 0.0766871L4.02878 0V0.00154923L4.03188 0.00697155C4.03498 0.0131685 4.03808 0.0193654 4.04195 0.0247877C4.11786 0.148726 4.303 0.256398 4.44708 0.280411C4.5563 0.298228 4.71819 0.254074 4.85995 0.215344C4.91804 0.199077 4.97227 0.184359 5.01874 0.175063L5.04895 0.21302L4.94283 0.346254C5.05515 0.402801 5.22402 0.377238 5.42232 0.346254C5.73526 0.297453 6.11947 0.238582 6.46185 0.476389C6.70896 0.453151 6.93282 0.420617 7.16986 0.34393C7.17993 0.340831 7.19077 0.336184 7.20161 0.331536C7.23802 0.316044 7.2783 0.299002 7.30774 0.323015C7.34647 0.354 7.36351 0.389632 7.38287 0.431462L7.3852 0.436884L7.3883 0.443856L7.39217 0.451602C7.56723 0.473291 7.74694 0.458573 7.92588 0.443856C8.01264 0.436884 8.10017 0.429912 8.18615 0.426814C8.36819 0.518993 8.49368 0.514346 8.61219 0.509698L8.61322 0.509659C8.71354 0.505799 8.80858 0.502143 8.92824 0.558499C8.96461 0.549228 8.99901 0.536017 9.03265 0.523098L9.04133 0.519768C9.13196 0.484136 9.21407 0.452376 9.30857 0.502726C9.37287 0.53681 9.41702 0.584836 9.45962 0.631313C9.51927 0.696381 9.57659 0.75835 9.68116 0.776941L9.75785 0.704901C9.72093 0.633373 9.68554 0.616829 9.62666 0.589301L9.62539 0.588709C9.61954 0.585784 9.61334 0.582858 9.6068 0.57977C9.59949 0.57632 9.59173 0.572654 9.58356 0.568569C9.62771 0.561597 9.67342 0.553851 9.72067 0.54533L9.72471 0.544617C9.91649 0.510723 10.1263 0.473653 10.3016 0.52519L10.304 0.527514L10.3066 0.52981C10.3548 0.571164 10.3882 0.59987 10.4186 0.659199C10.4922 0.804827 10.8431 1.00158 11.0732 1.13017L11.0987 1.14441C11.1425 1.16871 11.1811 1.19019 11.211 1.2084L11.2707 1.20066L11.2753 1.18904L11.3853 1.15728L11.3458 1.11855C11.4361 1.16174 11.4848 1.23411 11.5326 1.30508L11.5333 1.306C11.5743 1.36797 11.6154 1.42839 11.6812 1.46712C11.7866 1.52832 11.9345 1.46945 12.0716 1.41445C12.1747 1.3734 12.2707 1.33544 12.3389 1.35093C12.476 1.38269 12.6185 1.49424 12.7595 1.60501L12.762 1.60696C12.8998 1.71474 13.036 1.8213 13.1646 1.85056C13.2769 1.87535 13.4202 1.83972 13.5659 1.80253L13.5667 1.80233C13.7663 1.75205 13.9712 1.70042 14.112 1.80253C14.0988 1.87922 14.0756 1.92647 14.0392 1.99309C14.0709 2.02014 14.2097 2.03948 14.3927 2.06496L14.3939 2.06513C14.7239 2.11006 15.1941 2.1759 15.4273 2.34012C15.4389 2.32695 15.4497 2.31378 15.4606 2.29984C15.504 2.24639 15.5481 2.19217 15.6209 2.18907C15.8331 2.18055 16.0523 2.37414 16.2049 2.50892L16.2205 2.52293C16.2894 2.52808 16.3626 2.53109 16.4379 2.53419C16.4531 2.53481 16.4685 2.53544 16.4839 2.5361C16.7286 2.54539 16.992 2.55624 17.2019 2.61666C17.255 2.63141 17.3159 2.67639 17.3778 2.72213L17.3871 2.72898C17.4699 2.79094 17.5536 2.85291 17.6187 2.84749C17.6597 2.84439 17.7542 2.77081 17.7844 2.74524C17.8185 2.71658 17.8511 2.68715 17.8836 2.65694L17.8913 2.64996C18.0796 2.6337 18.1919 2.72355 18.3321 2.84207C18.4034 2.90172 18.4568 2.97298 18.5102 3.04812L19.2423 3.0791C19.4305 3.20537 19.6822 3.48965 19.8364 3.66394L19.8448 3.6735C19.9101 3.74749 19.9563 3.79988 19.9712 3.80879C20.0661 3.86623 20.1944 3.89565 20.3246 3.92551L20.329 3.92653C20.5095 3.96759 20.6939 4.01019 20.8023 4.12793C20.8889 4.22211 20.9171 4.34505 20.9454 4.46832L20.9464 4.47264C20.9743 4.59813 21.003 4.72361 21.0913 4.82122C21.106 4.80792 21.1257 4.78619 21.147 4.76271L21.1501 4.75925C21.2051 4.69805 21.2733 4.62291 21.3167 4.62291C21.3382 4.62291 21.4095 4.65706 21.5109 4.70559L21.5243 4.71199C21.7582 4.82431 22.1378 5.00635 22.4298 5.03733C22.7637 5.35648 23.1703 5.64463 23.6188 5.77632C23.7234 5.75928 23.7986 5.72752 23.8907 5.67717C23.9923 5.73976 24.0765 5.83395 24.1605 5.92786L24.1642 5.93202C24.3074 6.09301 24.4494 6.25271 24.6723 6.25116C24.7537 6.18609 24.7769 6.11947 24.8087 6.02652L24.8125 6.01645L24.8156 6.00715C24.9698 5.98547 25.2115 6.14194 25.4299 6.28447L25.4408 6.29156C25.556 6.36639 25.6642 6.43665 25.7498 6.4727C25.8149 6.33947 25.8676 6.25813 25.9822 6.1613L26.0333 6.18377C26.0361 6.20461 26.0381 6.2275 26.0402 6.25124C26.041 6.25998 26.0418 6.26936 26.0426 6.27827C26.0519 6.39446 26.0635 6.52537 26.1364 6.59664C26.1852 6.56798 26.2363 6.52925 26.289 6.48897L26.2907 6.48764C26.4312 6.3811 26.584 6.26526 26.746 6.30306C26.8219 6.3201 26.8459 6.33559 26.8854 6.40608C26.9148 6.45953 26.9288 6.52228 26.9412 6.58192L26.9435 6.59122C26.9439 6.59276 26.9442 6.5943 26.9445 6.59584C26.9449 6.5974 26.9452 6.59897 26.9454 6.60053L26.9459 6.60277C26.9463 6.60512 26.9468 6.60746 26.9474 6.60981C27.0078 6.5899 27.0543 6.56788 27.0967 6.54777L27.1031 6.54474C27.1836 6.50601 27.2518 6.47347 27.3835 6.46573C27.4029 6.46728 27.423 6.46883 27.4439 6.46883C27.4489 6.46883 27.4542 6.46902 27.4594 6.46921C27.4646 6.46941 27.4699 6.4696 27.4749 6.4696C27.5477 6.4727 27.6197 6.48199 27.6647 6.53622C27.6648 6.53631 27.6646 6.53611 27.6647 6.53622L27.6653 6.53697L27.6659 6.53793C27.6661 6.53812 27.6665 6.53876 27.6667 6.53893C27.6668 6.53907 27.6665 6.53881 27.6667 6.53893C27.6682 6.54048 27.6693 6.54319 27.6709 6.54474L27.6717 6.54602C27.6723 6.54684 27.6729 6.54771 27.6736 6.54858C27.6745 6.54994 27.6755 6.55132 27.6763 6.55248C27.7034 6.59199 27.7204 6.64157 27.7359 6.68882C27.7367 6.69115 27.7374 6.69353 27.7382 6.69593C27.7389 6.6982 27.7397 6.70048 27.7405 6.70274L27.7428 6.70951C27.7439 6.71275 27.745 6.71603 27.746 6.71903L27.887 6.76241L28.0419 6.77325L28.0977 6.88247C28.1281 6.8757 28.1602 6.8677 28.1937 6.85937L28.214 6.85432L28.2317 6.84994C28.3874 6.81043 28.5632 6.76705 28.7034 6.77712C28.9273 6.79417 29.2379 6.93127 29.554 7.07148C29.8328 7.19542 30.1156 7.3209 30.3464 7.36583C30.4489 7.38649 30.5726 7.36407 30.6951 7.34186L30.6996 7.34105L30.702 7.34063C30.8615 7.31211 31.0185 7.28404 31.1233 7.34957C31.1949 7.39417 31.261 7.45406 31.3257 7.51253L31.3271 7.51378C31.3358 7.52148 31.3445 7.52925 31.3532 7.53703C31.3708 7.5527 31.3885 7.56852 31.4061 7.5835C31.5277 7.59125 31.6524 7.57963 31.7763 7.56801C31.9173 7.55484 32.0568 7.54245 32.1884 7.55794C32.4572 7.5897 32.7028 7.71518 32.9468 7.84067C33.1358 7.9375 33.3248 8.03433 33.5239 8.087L33.5332 8.08932L33.5363 8.09087H33.5386L33.544 8.09242L33.5487 8.09397C33.5843 8.10559 33.6176 8.11566 33.6517 8.09707C33.7175 8.06066 33.7679 8.03665 33.843 8.02503C33.9127 8.11256 33.984 8.19932 34.056 8.2853C34.1549 8.28684 34.2159 8.2459 34.2697 8.20977L34.2714 8.20862C34.3597 8.14897 34.4263 8.10404 34.6029 8.28608C34.6664 8.35189 34.7229 8.4239 34.7795 8.49591C34.8616 8.60049 34.9445 8.70592 35.0491 8.79113C35.1241 8.78494 35.1814 8.7579 35.2371 8.7316C35.3029 8.69984 35.3682 8.66951 35.4604 8.67416C35.4751 8.70763 35.4828 8.74613 35.4904 8.78399L35.493 8.79655L35.4931 8.79722C35.5093 8.88064 35.5249 8.96085 35.5944 8.99175C35.6843 8.9468 35.739 8.89209 35.7858 8.84534L35.7881 8.84303C35.8733 8.75627 35.9337 8.69585 36.1367 8.76247C36.1955 8.78183 36.2753 8.81669 36.3621 8.85542L36.3635 8.85607C36.5561 8.94114 36.7846 9.04206 36.909 9.02506L36.8578 8.84303C36.9638 8.77777 37.1138 8.79621 37.2454 8.81238L37.249 8.81282C37.28 8.81669 37.3094 8.82056 37.3373 8.82289C37.5054 8.83761 37.5999 8.91584 37.7239 9.01887L37.7285 9.02274C37.902 9.01344 38.0399 8.9933 38.1662 8.97471C38.4318 8.93598 38.6464 8.905 39.0268 8.99253C39.105 8.89957 39.1166 8.82289 39.1321 8.71754C39.1339 8.70472 39.136 8.69137 39.1382 8.67731C39.1398 8.66758 39.1414 8.65751 39.1429 8.64705H39.2204C39.2537 8.71289 39.2452 8.76789 39.2344 8.83373L39.232 8.84535C39.2313 8.85077 39.2297 8.85542 39.2297 8.86007L39.2336 8.86239L39.2343 8.86287C39.3067 8.90753 39.354 8.93667 39.4427 8.91274C39.5055 8.8957 39.5744 8.8562 39.6364 8.81979L39.6416 8.81665C39.6589 8.80624 39.6752 8.79647 39.6914 8.78803C39.7131 8.81514 39.7293 8.83838 39.7433 8.85852C39.7867 8.92204 39.8091 8.9538 39.9222 8.96852C39.9238 8.96697 39.9276 8.96542 39.9276 8.96542L39.9307 8.96387L39.9331 8.96232L39.9362 8.96077C39.9385 8.95922 39.9431 8.9569 39.9431 8.9569L39.9486 8.9538L39.9547 8.94992C39.9586 8.9476 39.9633 8.94528 39.9671 8.94295L39.9681 8.94239C40.022 8.91158 40.0767 8.88034 40.1345 8.90112C40.1998 8.92494 40.2414 8.97086 40.2867 9.02074L40.2878 9.02196L40.2971 9.03281C40.3591 9.02351 40.3854 8.99408 40.411 8.96542L40.4119 8.96442C40.4402 8.93302 40.4676 8.9027 40.5442 8.905C40.748 8.91042 41.16 9.11569 41.5659 9.31864C42.0501 9.56032 42.5265 9.79813 42.6372 9.69123L42.6613 9.60835C42.6628 9.60929 42.665 9.61048 42.6671 9.61156C42.668 9.61206 42.6689 9.61253 42.6697 9.61294L42.6711 9.61363L42.6729 9.61455L42.6768 9.6161L42.6806 9.61842L42.683 9.61997C42.6849 9.62092 42.6868 9.62175 42.6886 9.62255C42.6913 9.6237 42.6938 9.6248 42.6961 9.62616L42.6974 9.6268C42.7362 9.64582 42.7637 9.65927 42.779 9.71137C42.7945 9.76405 42.7984 9.81052 42.8007 9.86552C42.8936 9.92904 43.0021 9.98171 43.1098 10.0336C43.2438 10.0987 43.3778 10.1638 43.4831 10.2505C43.7009 10.4299 43.9011 10.7148 44.0937 10.9887L44.0997 10.9972C44.2097 11.1545 44.3174 11.3079 44.4243 11.4357L44.4297 11.4961L44.2345 11.4643C44.2655 11.6247 44.3507 11.7819 44.432 11.9307L44.4491 11.9624C44.4521 11.9678 44.455 11.9731 44.4579 11.9784L44.4586 11.9798C44.4613 11.9848 44.464 11.9899 44.4669 11.9949L44.4925 12.0437L44.4878 12.0499L44.4868 12.0513C44.0948 12.5609 43.5174 13.3119 42.8348 13.3986C42.803 13.4032 42.7713 13.4032 42.7395 13.4032C42.7248 13.3815 42.7108 13.3606 42.6984 13.3397C42.6465 13.2576 42.6024 13.1879 42.5009 13.1483C42.352 13.2572 42.3214 13.4075 42.2906 13.5596L42.2902 13.5612C42.2678 13.6735 42.2445 13.7866 42.174 13.885C42.1508 13.8788 42.1275 13.8718 42.1043 13.8649C41.9788 13.8277 41.8479 13.7897 41.7302 13.8486C41.7227 13.8651 41.7155 13.8823 41.7082 13.8997C41.7042 13.9092 41.7002 13.9188 41.6961 13.9284C41.6457 14.05 41.59 14.1825 41.4792 14.246C41.3374 14.2382 41.3003 14.2073 41.2011 14.0973C41.1763 14.0701 41.1531 14.0423 41.1298 14.0136L41.1275 14.0105C41.0958 14.0477 41.081 14.0949 41.0679 14.1406C41.0454 14.2158 41.0245 14.2855 40.9284 14.294C40.8703 14.2987 40.8045 14.2909 40.7387 14.2824C40.6294 14.2684 40.5187 14.2553 40.4342 14.301L40.3978 14.4257C40.2504 14.488 40.0716 14.5041 39.9025 14.5193L39.8928 14.5202C39.8859 14.5208 39.8791 14.5214 39.8723 14.5221L39.8518 14.5239C39.8158 14.5271 39.7807 14.5302 39.7464 14.5341C39.7236 14.5589 39.7005 14.5836 39.6775 14.6084L39.6767 14.6093C39.6539 14.6338 39.6311 14.6583 39.6085 14.6829L39.5943 14.6981C39.4843 14.8163 39.3734 14.9355 39.2568 15.0454C39.0477 15.0795 38.8889 15.1569 38.727 15.2359C38.6131 15.2917 38.4985 15.3475 38.3645 15.3893C38.2116 15.4367 38.0602 15.4637 37.9104 15.4905L37.9043 15.4916C37.6572 15.5349 37.414 15.5783 37.1708 15.7108L37.0755 15.8216H37.0739L37.0717 15.821C36.9224 15.7856 36.7966 15.7558 36.6417 15.7728C36.2317 15.7943 35.837 15.8953 35.4401 15.9968L35.4318 15.9989C35.1637 16.0679 34.8949 16.1368 34.6207 16.1817L34.6138 16.3212C34.52 16.3909 34.4317 16.4134 34.314 16.3948C34.2623 16.3873 34.2049 16.3581 34.1556 16.3331L34.1505 16.3305C34.1428 16.3266 34.1351 16.3227 34.1281 16.3189C33.935 16.3358 33.7381 16.4749 33.5647 16.5975L33.5611 16.6C33.5169 16.6318 33.4743 16.662 33.4332 16.6891C33.3674 16.7364 33.3008 16.7774 33.2318 16.8185L33.2267 16.8215L33.2236 16.8233C33.2199 16.8255 33.2162 16.8278 33.2124 16.83C33.2091 16.8319 33.2057 16.8337 33.2024 16.8355C33.1993 16.8344 33.1963 16.8334 33.1932 16.8324L33.1913 16.8318L33.1895 16.8313L33.1877 16.8307C33.1864 16.8303 33.1851 16.8298 33.1838 16.8293L33.1559 16.82L33.15 16.818L33.1432 16.8157L33.1375 16.8137C33.1324 16.812 33.1272 16.8102 33.1218 16.8084L33.0924 16.7983C33.0909 16.7978 33.0894 16.7973 33.0879 16.7968L33.0861 16.7962L33.0831 16.7953C33.08 16.7943 33.0769 16.7933 33.0738 16.7921L33.0529 16.7852C33.0476 16.7835 33.0424 16.7819 33.0371 16.7802C33.0334 16.779 33.0297 16.7777 33.026 16.7765C33.0226 16.7753 33.0191 16.7741 33.0157 16.7728L33.0069 16.7698C33.0037 16.7688 33.0004 16.7677 32.9972 16.7665C32.9894 16.7639 32.9817 16.7611 32.9739 16.7581L32.9638 16.7542C32.8662 16.7186 32.7795 16.7325 32.6865 16.7542C32.6795 16.7565 32.6726 16.7581 32.6656 16.7596L32.647 16.7643L32.63 16.7689C32.6285 16.7693 32.6271 16.7697 32.6257 16.77C32.6244 16.7703 32.6232 16.7706 32.6219 16.7708C32.6211 16.771 32.6201 16.7712 32.6193 16.7714C32.6186 16.7715 32.6179 16.7717 32.6172 16.7719C32.6161 16.7721 32.6149 16.7724 32.6137 16.7728L32.6075 16.7712L32.6036 16.7697L32.5943 16.7666H32.5928L32.5819 16.7635L32.5781 16.7619H32.5765C32.4898 16.7364 32.4642 16.7286 32.4131 16.6256C32.3844 16.5675 32.3844 16.5164 32.3883 16.4529C32.4355 16.3979 32.4673 16.37 32.5339 16.3359L32.4991 16.3026C32.3165 16.3365 32.2174 16.4493 32.1394 16.5381L32.1381 16.5396C32.0583 16.631 32.0002 16.6969 31.8956 16.6256C31.8755 16.6117 31.8561 16.5969 31.8383 16.5822L31.8349 16.5796C31.7859 16.5411 31.7414 16.5062 31.6725 16.5001L31.6601 16.5249C31.6268 16.5931 31.5966 16.6434 31.544 16.6984C31.5029 16.6837 31.4526 16.6636 31.3968 16.6411H31.396C31.1574 16.5443 30.8166 16.4064 30.647 16.4862C30.592 16.5125 30.5277 16.5505 30.461 16.5907C30.3402 16.6636 30.2093 16.7418 30.1063 16.7619C30.0466 16.7739 29.992 16.765 29.9368 16.756L29.9304 16.755L29.9273 16.7545C29.8563 16.743 29.7844 16.7314 29.7027 16.7612C29.6694 16.7728 29.6539 16.7968 29.6368 16.8239C29.6152 16.8588 29.5904 16.8975 29.523 16.9184C29.4231 16.875 29.3394 16.8317 29.2534 16.7635C29.2426 16.7736 29.2315 16.7836 29.2205 16.7937C29.2095 16.8037 29.1984 16.8139 29.1876 16.8239C29.1427 16.8649 29.0977 16.906 29.0543 16.9486C28.8971 17.1043 28.0249 17.3809 27.7816 17.3824C27.7669 17.3824 27.746 17.3793 27.7297 17.3762L27.7235 17.3747H27.7189L27.6329 17.2724L27.5826 17.3042V17.3344C27.5833 17.4008 27.548 17.4879 27.5139 17.5719L27.5113 17.5784C27.4702 17.6783 27.4323 17.772 27.4594 17.8162C27.4834 17.8224 27.519 17.8286 27.5593 17.8356L27.5639 17.8364C27.6631 17.8541 27.7877 17.8763 27.832 17.9045C27.8889 17.9407 27.9219 17.9727 27.947 17.9971L27.9505 18.0005C28.0117 18.061 28.028 18.0765 28.2518 18.0091C28.2425 17.9378 28.1992 17.889 28.1566 17.8418C28.093 17.7713 28.0318 17.7023 28.0845 17.5629C28.1395 17.614 28.172 17.6644 28.21 17.7279C28.313 17.7426 28.4114 17.7596 28.5121 17.7868C28.5431 17.8518 28.5377 17.8983 28.5299 17.9641L28.5284 17.9758L28.5958 18.0238L28.6562 17.9967L28.6515 17.8317C28.8164 17.8402 28.9727 17.9307 29.1252 18.0189L29.1289 18.021C29.2865 18.1118 29.4404 18.2004 29.5966 18.1942C29.6485 18.1206 29.6539 18.037 29.6593 17.951C29.6597 17.9478 29.66 17.9445 29.6603 17.9411C29.6606 17.9371 29.6609 17.9331 29.6609 17.9293C29.6609 17.9254 29.6612 17.9217 29.6616 17.9181C29.662 17.9144 29.6624 17.9107 29.6624 17.9068C29.815 17.9076 30.0544 18.1578 30.207 18.3181H30.2077C30.2356 18.3476 30.2612 18.3739 30.2821 18.3948C30.2829 18.3879 30.2835 18.3807 30.284 18.3735C30.2846 18.3664 30.2852 18.3592 30.286 18.3522C30.286 18.3498 30.2861 18.3474 30.2863 18.3451C30.2864 18.3445 30.2865 18.3439 30.2866 18.3434L30.2868 18.3417C30.2872 18.3393 30.2877 18.3369 30.2883 18.3344V18.322C30.2991 18.1951 30.3101 18.067 30.3766 17.9572C30.4407 17.9989 30.4949 18.0499 30.5482 18.1001C30.6233 18.1714 30.6988 18.2422 30.8026 18.2856C30.9103 18.3311 31.0425 18.338 31.173 18.3448L31.1814 18.3453L31.1861 18.3455C31.3356 18.3532 31.4815 18.3606 31.585 18.4235C31.8306 18.5714 33.1598 19.8651 33.2287 20.0812C33.2385 20.1104 33.2185 20.1367 33.1997 20.1616L33.1978 20.1641C33.1823 20.1834 33.1683 20.2012 33.1699 20.2183C33.1707 20.2206 33.2125 20.2632 33.2156 20.2655C33.2768 20.3252 33.348 20.3724 33.4185 20.4189C33.4712 20.4538 33.5239 20.4886 33.5727 20.5289C33.7347 20.6632 33.8453 20.9043 33.9434 21.1182L33.9445 21.1207C33.9732 21.185 34.0018 21.2462 34.0297 21.302C34.5564 21.398 35.029 22.0332 35.4077 22.5437L35.4103 22.5471C35.5116 22.6837 35.606 22.811 35.6936 22.9163C35.74 22.9728 35.8004 23.0223 35.8608 23.0719C35.9313 23.13 36.0019 23.1882 36.0484 23.2556C36.0755 23.2951 36.0941 23.3423 36.1111 23.3872L36.1126 23.3903C36.1337 23.4039 36.1567 23.4171 36.1806 23.4308C36.1936 23.4383 36.2069 23.4459 36.2203 23.4539H36.2211C36.3559 23.5298 36.5085 23.6165 36.5596 23.7389C36.4984 23.8644 36.3799 23.9488 36.266 24.0247L36.2745 24.0294L36.2846 24.0348L36.2869 24.0364L36.2931 24.0395C36.2941 24.0399 36.2952 24.0403 36.2963 24.0408C36.2974 24.0413 36.2985 24.0419 36.2995 24.0423L36.3019 24.0435L36.3032 24.0441L36.3086 24.0472L36.3125 24.0495C36.4036 24.0947 36.5385 24.1104 36.6575 24.1242L36.6619 24.1247L36.6639 24.1249C36.7661 24.1364 36.8558 24.1465 36.8935 24.1735ZM17.126 15.2026C17.1237 15.1523 17.0904 15.1321 17.0516 15.1089L17.0509 15.1066C17.0199 15.088 16.985 15.0671 16.9602 15.026L16.9618 15.0245C16.985 15.0051 17.0083 14.985 17.0307 14.9641C17.1283 14.8711 17.1431 14.8331 17.1461 14.7046C17.03 14.4551 16.8626 14.2692 16.6326 14.1197C16.5381 14.1104 16.5117 14.1523 16.4815 14.2011C16.4575 14.2398 16.4304 14.2832 16.3653 14.3095C16.3367 14.2932 16.3103 14.277 16.284 14.2568C16.1294 14.1385 16.1144 13.9855 16.0974 13.8117L16.0973 13.8106C16.095 13.7866 16.0927 13.7626 16.0896 13.7378C16.0129 13.7495 15.9943 13.7928 15.9726 13.844L15.9709 13.8478C15.9551 13.8832 15.9378 13.9219 15.8982 13.9563C15.7676 13.9586 15.7132 13.9205 15.6238 13.8578L15.6217 13.8563C15.6138 13.8511 15.6058 13.8455 15.5975 13.8397C15.5886 13.8335 15.5794 13.8271 15.5698 13.8207C15.4838 13.8432 15.4799 13.8486 15.4381 13.9113L15.4368 13.9134L15.4344 13.9172C15.4324 13.9202 15.4304 13.9233 15.4284 13.9264L15.4249 13.9315C15.1429 13.5806 14.8346 13.4673 14.4986 13.3437L14.4884 13.3399C14.3142 13.2757 14.1324 13.2088 13.9423 13.1042C13.8556 13.0562 13.7804 12.9927 13.7061 12.9291L13.702 12.9257C13.6166 12.8533 13.5317 12.7812 13.4303 12.7355C13.3386 12.7852 13.3019 12.8417 13.2459 12.928L13.2436 12.9315V12.9338C13.2425 12.938 13.2413 12.9421 13.2401 12.9462C13.239 12.9502 13.2378 12.9543 13.2367 12.9586C13.215 13.036 13.1902 13.091 13.1491 13.16C13.091 13.2568 13.0562 13.4133 13.0903 13.5256C13.1209 13.6268 13.2093 13.7273 13.2991 13.8293L13.3017 13.8323C13.3784 13.9191 13.4551 14.0059 13.4977 14.0942C13.5 14.1158 13.5016 14.1391 13.5031 14.1623C13.5101 14.2677 13.5178 14.3823 13.5891 14.4567C13.6092 14.4505 13.6278 14.4435 13.6449 14.4365L13.6468 14.4358C13.7171 14.4091 13.768 14.3897 13.8494 14.4334C14.0252 14.5279 14.1375 14.7905 14.2522 15.0601C14.3924 15.3885 14.5372 15.727 14.806 15.7813C14.8725 15.7563 14.9257 15.7086 14.9772 15.6624L14.9811 15.6589L14.9826 15.6575C15.044 15.6022 15.1025 15.5496 15.1778 15.538C15.2013 15.579 15.2012 15.6553 15.2011 15.7256L15.2011 15.7379L15.2011 15.7388C15.2003 15.8097 15.1996 15.8719 15.222 15.8789C15.3514 15.7728 15.4807 15.6659 15.6062 15.5543C15.6357 15.5517 15.669 15.5474 15.7043 15.5429L15.7285 15.5398C15.9044 15.5174 16.1279 15.489 16.2569 15.5489C16.2871 15.5628 16.3142 15.5822 16.3405 15.6016C16.3692 15.6225 16.3979 15.6426 16.4304 15.6566C16.5799 15.5597 16.7077 15.4993 16.8797 15.4513C16.9293 15.3304 16.9843 15.2871 17.0912 15.2228L17.126 15.2026ZM26.2494 17.7093C26.3037 17.5947 26.4013 17.5668 26.5089 17.5366V17.5358L26.5181 17.5332C26.54 17.5271 26.5624 17.5208 26.5849 17.5133L26.5678 17.4645C26.3749 17.4157 26.2611 17.4823 26.1247 17.5621L26.1234 17.5629C25.9881 17.6417 25.831 17.7333 25.5531 17.7387C25.5523 17.827 25.574 17.8991 25.5957 17.9711L25.5965 17.974C25.6133 18.0303 25.6298 18.086 25.6352 18.1485C25.6468 18.1539 25.6576 18.1601 25.6677 18.1663L25.6886 18.1779L25.6896 18.1785C25.7743 18.227 25.8401 18.2647 25.952 18.2639C26.1154 18.1531 26.1456 18.0416 26.1805 17.9115C26.1968 17.8487 26.2154 17.7821 26.2494 17.7093ZM29.7995 25.4191C29.8065 25.3393 29.8127 25.2587 29.8189 25.1774V25.1789L29.824 25.1146C29.8369 24.9519 29.8498 24.7896 29.8669 24.6274C29.8535 24.6118 29.8395 24.5959 29.8254 24.5798L29.8116 24.5641C29.805 24.5566 29.7984 24.549 29.7918 24.5414C29.6911 24.4275 29.5842 24.3052 29.5183 24.1773C29.4719 24.0867 29.4378 23.9814 29.4037 23.876C29.358 23.7343 29.3115 23.5917 29.234 23.4817C29.2087 23.4457 29.1721 23.4294 29.1375 23.414L29.1364 23.4136C29.0825 23.3897 29.0342 23.3683 29.0489 23.2772C29.059 23.2153 29.0876 23.1471 29.1148 23.0836L29.1202 23.0704L29.1248 23.0588L29.1264 23.0565V23.0541C29.1282 23.0499 29.1302 23.0452 29.132 23.041C29.1347 23.0347 29.1372 23.0284 29.1395 23.0224C29.1256 23.0069 29.1117 22.9906 29.0977 22.9744C29.0365 22.9046 28.9746 22.8342 28.8971 22.7846L28.8738 22.9256L28.9312 23.0038L28.9103 23.0611C28.8192 23.0673 28.7412 23.0312 28.6678 22.9972L28.667 22.9968L28.6658 22.9962C28.5501 22.9423 28.4474 22.8943 28.3231 23.0317C28.2836 23.1835 28.3572 23.333 28.4246 23.4693L28.4323 23.4856C28.4354 23.491 28.4385 23.4972 28.4416 23.5034C28.3975 23.5848 28.3518 23.6537 28.2968 23.7281C28.1559 23.9176 28.1759 24.1907 28.1937 24.4345L28.1937 24.4353C28.1976 24.4864 28.2007 24.536 28.203 24.5832C28.461 24.7436 28.6353 24.8644 28.7073 25.1704C28.7089 25.1774 28.7096 25.1836 28.712 25.1905V25.1929L28.7135 25.1991C28.7863 25.2386 28.8235 25.2471 28.9064 25.2494C29.2519 25.2324 29.4819 25.2951 29.7995 25.4191Z" fill="#372D35"/>
<path d="M82.9042 15.5001L82.8943 15.4878C82.8163 15.3904 82.7379 15.2927 82.671 15.1879L82.8213 15.2003C82.8686 15.1562 82.8887 15.129 82.9073 15.0655C83.001 14.7379 82.9677 14.2049 82.7942 13.9082C82.7658 13.7854 82.6256 13.6657 82.5145 13.5708L82.5115 13.5682V13.5666C82.4944 13.5535 82.4797 13.5403 82.4658 13.5279H82.4642C82.4642 13.5279 82.4596 13.5225 82.4572 13.5202L82.441 13.5062C82.4425 13.5023 82.4441 13.4985 82.4456 13.4962L82.4472 13.4923L82.4484 13.4885L82.4495 13.4855C82.4506 13.4822 82.4516 13.4794 82.4526 13.476C82.4531 13.4741 82.4535 13.4723 82.454 13.4701C82.4543 13.4686 82.4546 13.467 82.4549 13.4652C82.4557 13.4636 82.4557 13.4621 82.4557 13.4605C82.4558 13.4602 82.4559 13.46 82.456 13.4597C82.4561 13.4592 82.4564 13.4582 82.4565 13.4577C82.4567 13.457 82.4569 13.4561 82.4572 13.4551V13.4535C82.4921 13.2754 82.4634 13.0678 82.3651 12.9152C82.2721 12.8424 82.1637 12.8424 82.0537 12.8432C81.9785 12.8432 81.9018 12.8431 81.829 12.8207C81.7634 12.7996 81.7191 12.7483 81.6753 12.6977L81.6718 12.6936C81.6191 12.6309 81.5664 12.5697 81.4789 12.5643C81.4719 12.6046 81.4704 12.6394 81.4735 12.6805L81.4766 12.727C81.4595 12.7285 81.4409 12.7293 81.4223 12.7301C81.3627 12.7324 81.2984 12.7355 81.2442 12.7502C81.1365 12.7796 81.0955 12.8579 81.0498 12.9454L81.0479 12.9492L81.0468 12.9513L81.0448 12.9555C81.0425 12.9602 81.0401 12.9649 81.0374 12.9694C81.0319 12.9795 81.0265 12.9903 81.0203 13.0004C81.0056 12.9268 80.9948 12.8997 80.9398 12.8478C80.7562 12.7897 80.6989 12.7804 80.5153 12.8664C80.4258 12.908 80.3111 12.8392 80.2031 12.7744L80.2016 12.7734L80.1912 12.7673C80.1338 12.7331 80.0794 12.7006 80.0319 12.6882C80.0211 12.6975 80.0102 12.7076 79.9994 12.7177L79.9854 12.7308L79.9777 12.737L79.9771 12.7376C79.9161 12.7939 79.8543 12.851 79.7871 12.895C79.7196 12.9388 79.5928 12.8586 79.4677 12.7796L79.4641 12.7773L79.462 12.776C79.3806 12.7245 79.3009 12.6741 79.2395 12.6588C79.1953 12.7595 79.1496 12.8602 79.1039 12.9609C78.7677 12.7974 78.7143 12.8602 78.6298 12.9601L78.629 12.9612C78.5741 13.026 78.5066 13.106 78.3394 13.1491L78.3382 13.1495L78.3368 13.1499C78.3355 13.1503 78.3342 13.1506 78.3329 13.1509C78.3307 13.1514 78.3286 13.1518 78.3262 13.1522H78.3208L78.32 13.1538H78.313C78.3471 13.0531 78.3471 12.9834 78.3316 12.8772C78.3262 12.8726 78.3208 12.8679 78.3161 12.8641C78.2712 12.8253 78.248 12.806 78.1775 12.8075C77.9474 12.8114 77.7739 12.971 77.6159 13.1181V13.1197L77.6147 13.1211L77.6134 13.1227C77.6126 13.1236 77.6118 13.1245 77.6112 13.1251L77.6081 13.129L77.6043 13.1352L77.5996 13.1422L77.5903 13.1545L77.5849 13.1623L77.5836 13.1641C77.531 13.2396 77.5027 13.2803 77.392 13.3102C77.3084 13.2599 77.2262 13.2119 77.1379 13.1693C76.9741 13.2152 76.8158 13.2697 76.6586 13.3239L76.6375 13.3312C76.3974 13.414 76.1573 13.4969 75.9024 13.5512C75.8226 13.6836 75.7281 13.7967 75.6282 13.9144L75.5864 13.9199C75.464 13.9338 75.3889 13.9354 75.2758 13.8749V13.8292C75.2778 13.8292 75.2798 13.8288 75.2818 13.8284L75.2831 13.8281C75.2837 13.828 75.2842 13.8279 75.2847 13.8278C75.2854 13.8277 75.286 13.8277 75.2866 13.8277L75.2959 13.8261C75.3052 13.8246 75.3137 13.823 75.323 13.8215C75.3873 13.8114 75.4516 13.8006 75.512 13.7742C75.2734 13.727 74.9551 13.7123 74.7389 13.8502L74.7211 13.8618L74.7025 13.8742L74.6561 13.9044C74.3547 14.0996 74.2641 14.1577 73.828 14.1492C73.8102 14.1492 73.7923 14.1485 73.7742 14.1478L73.7627 14.1474C73.7571 14.1472 73.7515 14.147 73.7459 14.1468L73.7427 14.1467C73.6035 14.1413 73.4615 14.1358 73.3485 14.2165C73.347 14.2437 73.3462 14.2692 73.3454 14.2948C73.3454 14.3072 73.3446 14.3196 73.3439 14.3312C73.34 14.4156 73.3315 14.4908 73.2757 14.5682L73.1951 14.6054L73.1215 14.4877C73.0185 14.4977 72.9225 14.5705 72.8256 14.6441L72.8245 14.645C72.6622 14.7679 72.4967 14.8932 72.2904 14.7293C72.2664 14.71 72.2571 14.6991 72.2416 14.6805L72.2369 14.6743L72.2323 14.6689C72.1688 14.7177 72.1138 14.8293 72.0603 14.9377C71.9976 15.0654 71.9371 15.1887 71.8674 15.1964C71.8621 15.1785 71.8579 15.1617 71.8539 15.1455L71.852 15.1376C71.8295 15.0501 71.8124 14.9834 71.7342 14.9129C71.6199 14.9444 71.5428 15.023 71.4645 15.1028L71.4606 15.1067C71.3736 15.1953 71.2848 15.2857 71.1424 15.3157C70.9433 15.3576 70.845 15.3901 70.6885 15.521C70.6568 15.5478 70.6227 15.5728 70.5889 15.5976L70.5762 15.607L70.563 15.6171L70.5514 15.6256L70.5452 15.6302C70.5374 15.6364 70.5297 15.6418 70.5212 15.648C70.4894 15.6519 70.4545 15.6535 70.4181 15.6558C70.2764 15.6643 70.1106 15.6744 70.0246 15.7735C69.9374 15.8738 69.8849 16.0799 69.8426 16.2461L69.841 16.2522V16.2553C69.8372 16.2701 69.8333 16.2848 69.8302 16.2987C69.8291 16.3036 69.8277 16.3085 69.8264 16.3134L69.825 16.3188L69.8239 16.3231L69.823 16.3265L69.8225 16.3289L69.8194 16.3413L69.817 16.3483C69.8163 16.3522 69.8147 16.356 69.8139 16.3599C69.8124 16.3646 69.8116 16.3692 69.8101 16.3739L69.666 16.2065C69.5557 16.2251 69.5014 16.2974 69.4367 16.3837L69.4359 16.3847C69.4313 16.3917 69.4266 16.3979 69.422 16.4048C69.1044 16.827 68.8743 16.92 68.6264 17.0191C68.4653 17.0834 68.2965 17.1516 68.092 17.315C67.9959 17.3917 67.927 17.4955 67.8581 17.5993C67.7899 17.7023 67.7209 17.8053 67.6256 17.8813L67.5998 17.8813C67.5982 17.8813 67.5966 17.8812 67.5951 17.8812C67.5941 17.8812 67.5931 17.8812 67.5921 17.8811C67.5893 17.881 67.5866 17.8808 67.5838 17.8805H67.5768L67.5683 17.8797H67.5613L67.5595 17.8795C67.554 17.8788 67.5491 17.8782 67.5435 17.8782H67.5389L67.5377 17.8781C67.4017 17.8688 67.2581 17.859 67.1454 17.9347C67.144 17.937 67.1429 17.9395 67.1418 17.9422C67.141 17.944 67.1401 17.946 67.1392 17.9479C67.1376 17.9518 67.1361 17.9564 67.1338 17.9603L67.1314 17.9665L67.1276 17.9765C67.1051 18.0354 67.0772 18.1082 67.0199 18.1198C66.9695 18.1307 66.9254 18.133 66.8843 18.1346L66.8824 18.1347C66.8081 18.1385 66.7403 18.142 66.6504 18.195C66.6148 18.2531 66.5939 18.3298 66.5729 18.408C66.535 18.5474 66.4955 18.6923 66.37 18.745C66.3668 18.7446 66.3638 18.7439 66.3609 18.7433C66.3583 18.7428 66.3554 18.7422 66.3529 18.7419L66.3429 18.7403L66.3305 18.738L66.3243 18.7364H66.3235L66.3226 18.7363C66.2295 18.7178 66.1915 18.7103 66.0896 18.7574C66.0885 18.7587 66.0875 18.7601 66.0865 18.7616L66.0853 18.7635C66.0844 18.765 66.0834 18.7666 66.0824 18.7679L66.0817 18.7689L66.0811 18.7697L66.0787 18.7728L66.0764 18.7767L66.0733 18.7821L66.071 18.786C66.0687 18.7895 66.0665 18.7928 66.0644 18.7961C66.0623 18.7994 66.0601 18.8027 66.0578 18.8062L66.0454 18.8255L66.0444 18.8271C65.9719 18.9405 65.8977 19.0566 65.772 19.1083L65.583 19.092C65.5342 19.2121 65.5458 19.288 65.5559 19.3476C65.5752 19.4713 65.5841 19.5283 65.0276 19.7651C64.9315 19.8062 64.8502 19.8317 64.7441 19.8317C64.6835 19.7512 64.6608 19.6555 64.6378 19.5581L64.6372 19.5552C64.617 19.4677 64.5961 19.3794 64.5481 19.3004C64.4319 19.2415 64.3165 19.1818 64.2018 19.1199L64.2305 19.061L64.4536 19.023C64.5047 18.9417 64.5094 18.8859 64.4799 18.7899C64.466 18.7434 64.4381 18.6969 64.4118 18.6536L64.4071 18.6466L64.4032 18.6396L64.4001 18.6342C64.4497 18.549 64.4884 18.5087 64.5713 18.4545C64.6232 18.487 64.6558 18.5149 64.6945 18.5621C64.703 18.5211 64.7084 18.4816 64.7123 18.4398C64.7196 18.3681 64.7476 18.2524 64.7787 18.1238L64.7843 18.1005C64.8486 17.8379 64.9246 17.5273 64.8796 17.4126C64.8702 17.3887 64.848 17.3608 64.8255 17.3326L64.8208 17.3266L64.8201 17.3258C64.7908 17.2896 64.7611 17.2528 64.7557 17.2236C64.7544 17.2179 64.7861 17.1875 64.8324 17.1433C64.8423 17.1338 64.853 17.1236 64.8641 17.1128C64.9873 16.9966 65.174 16.82 65.1988 16.7395C65.2241 16.6587 65.18 16.5718 65.1301 16.4736L65.129 16.4715C65.0655 16.3475 64.9935 16.2065 65.0376 16.0361C65.0826 16.0129 65.1151 16.0206 65.1453 16.0284L65.1461 16.0286C65.1791 16.0362 65.2107 16.0436 65.2538 16.009C65.1956 15.9715 65.1404 15.965 65.0756 15.9574L65.0733 15.9571H65.0663L65.0547 15.9548C65.0508 15.9463 65.0469 15.9377 65.0423 15.93L65.0417 15.9289C65.028 15.9029 65.0138 15.8762 65.0245 15.8479C65.064 15.7449 65.1554 15.6643 65.2452 15.5853C65.3459 15.4962 65.4435 15.4095 65.4621 15.2971C65.4 15.2562 65.3266 15.2538 65.256 15.2516L65.2514 15.2514C65.1693 15.2491 65.0926 15.2468 65.0454 15.1871L65.2073 15.0748C65.205 15.0338 65.2026 14.9857 65.2011 14.9331V14.9315C65.1926 14.7053 65.1802 14.3978 65.0957 14.253C65.0889 14.2535 65.0822 14.2542 65.0755 14.2551C65.0735 14.2553 65.0715 14.2556 65.0695 14.2558C65.0653 14.2564 65.0612 14.257 65.057 14.2575C65.051 14.2584 65.0451 14.2592 65.0392 14.2599C64.9679 14.27 64.9075 14.2785 64.8448 14.222C64.7594 14.1459 64.6932 14.0316 64.6263 13.9164L64.6248 13.9137C64.5202 13.7332 64.4133 13.5488 64.2289 13.4931L64.1089 13.5852C64.0353 13.5512 63.9966 13.4807 63.9594 13.4117V13.4102L63.9578 13.4094C63.9563 13.4063 63.954 13.4024 63.9524 13.3993C63.9511 13.3968 63.9499 13.3943 63.9485 13.3919C63.9477 13.3904 63.9468 13.3889 63.9459 13.3873C63.9447 13.3854 63.9436 13.3835 63.9423 13.3815L63.9408 13.3784C63.9408 13.3784 63.9392 13.3753 63.9377 13.3738C63.8292 13.4226 63.7223 13.4721 63.6147 13.5225C63.5674 13.4931 63.5481 13.4512 63.531 13.414C63.5109 13.3699 63.4938 13.3327 63.4365 13.3319C63.2676 13.5225 63.1553 13.6488 62.8943 13.7022C62.8021 13.8068 62.7688 13.8502 62.7781 13.9981C62.7812 14.0454 62.7897 14.0942 62.799 14.143C62.8191 14.2491 62.8393 14.3568 62.7951 14.4482L62.5937 14.4776C62.5845 14.5764 62.6575 14.6752 62.7362 14.7816L62.737 14.7828C62.8393 14.9199 62.9501 15.0694 62.9059 15.2476C62.8074 15.2804 62.7232 15.2779 62.6222 15.2748L62.6177 15.2747H62.61L62.5651 15.3312C62.5891 15.4009 62.6224 15.4249 62.6549 15.4482C62.6921 15.4745 62.727 15.5001 62.7432 15.5915C62.7362 15.6034 62.723 15.6221 62.7068 15.645L62.7014 15.6527C62.6534 15.7208 62.5867 15.8154 62.5837 15.8479C62.5721 15.9869 62.6132 16.1282 62.6546 16.271L62.6557 16.2747C62.7122 16.4668 62.7688 16.6612 62.7006 16.8557C62.7192 16.9781 62.6735 17.085 62.6278 17.1919C62.5813 17.2995 62.5356 17.4072 62.5573 17.5288C62.5744 17.6256 62.6378 17.6899 62.6982 17.751C62.7818 17.8355 62.861 17.9153 62.8114 18.071C62.753 18.0331 62.7235 17.981 62.691 17.9236L62.689 17.92L62.6828 17.9091C62.6805 17.9053 62.6782 17.9006 62.6758 17.896L62.6603 17.8999C62.5403 17.9316 62.5302 17.9347 62.4535 18.0432L62.4497 18.1578L62.744 18.2151L62.7487 18.226C62.7764 18.2952 62.7834 18.3129 62.7525 18.3886C62.7276 18.4496 62.6782 18.5036 62.6323 18.5539L62.6247 18.5621L62.617 18.5707L62.6084 18.58L62.6038 18.5846L62.6007 18.5885L62.5976 18.5916C62.6394 18.8023 62.6549 19.0339 62.6696 19.267C62.6898 19.5823 62.7107 19.8991 62.799 20.1679C62.8191 20.2296 62.8598 20.3097 62.9038 20.396L62.9044 20.3972C63.0065 20.5985 63.1274 20.8365 63.0562 20.9635L62.9121 21.0518C62.9059 21.1814 62.9313 21.3387 62.9575 21.5014L62.9578 21.5034C63.002 21.7768 63.0484 22.0657 62.9532 22.264L62.799 22.9535H62.7982L62.8083 22.9635L62.8106 22.9658L62.8118 22.9671C62.8125 22.9678 62.8134 22.9687 62.8144 22.9697C62.8161 22.9716 62.8181 22.9737 62.8191 22.9751C62.8563 23.0851 62.8788 23.1796 62.8648 23.2966C62.8464 23.4533 62.8013 23.6116 62.756 23.7706L62.7549 23.7745C62.7138 23.9171 62.6727 24.0604 62.6503 24.2045C62.6425 24.2556 62.6402 24.3129 62.6379 24.3718L62.6378 24.3736C62.6332 24.4861 62.6283 24.6039 62.5837 24.6917C62.538 24.7808 62.4775 24.8637 62.4171 24.9434L62.4411 25.0077L62.6681 25.0883C62.6735 25.1792 62.6482 25.2157 62.6068 25.2756L62.6061 25.2765C62.6049 25.278 62.6037 25.2796 62.6025 25.2813C62.6015 25.2828 62.6004 25.2844 62.5994 25.2859L62.599 25.2866L62.5975 25.2889C62.5968 25.2899 62.596 25.291 62.5953 25.292C62.5945 25.293 62.5938 25.294 62.5931 25.2951C62.5923 25.2962 62.5915 25.2973 62.5908 25.2985C62.5887 25.3015 62.5867 25.3046 62.5846 25.3077C62.5818 25.312 62.5789 25.3163 62.5759 25.3207C62.5274 25.3427 62.4819 25.3565 62.4393 25.3694L62.4365 25.3703C62.3265 25.4028 62.2382 25.4291 62.1894 25.5686C62.1886 25.5703 62.188 25.5721 62.1873 25.574C62.1868 25.5755 62.1864 25.5769 62.1859 25.5784C62.1853 25.5802 62.1847 25.582 62.1841 25.5838C62.1838 25.5847 62.1835 25.5855 62.1832 25.5864C62.1793 25.598 62.1762 25.6096 62.1731 25.6212L62.1708 25.6298L62.1685 25.6375C62.1832 25.6654 62.2002 25.6948 62.2188 25.7266L62.2207 25.7299C62.3134 25.8921 62.4293 26.0949 62.3962 26.2556C62.364 26.3113 62.3228 26.3669 62.281 26.4233L62.2738 26.433L62.2724 26.4349C62.1768 26.5644 62.0778 26.6986 62.0623 26.8443C62.0577 26.8924 62.0499 26.9404 62.0422 26.9892V26.9908C62.0368 27.0217 62.0321 27.0527 62.0283 27.0845C62.0182 27.2015 61.9631 27.2596 61.8909 27.3356L61.8896 27.337L61.8842 27.3432L61.878 27.3502C61.8733 27.3548 61.8687 27.3595 61.8648 27.3649L61.8563 27.3572C61.9035 27.6445 61.9578 28.0241 61.7773 28.2704C61.7576 28.2981 61.7249 28.3114 61.6927 28.3245L61.6866 28.327L61.675 28.3316C61.6735 28.3316 61.6719 28.3332 61.6696 28.3339L61.6665 28.3355C61.6665 28.3355 61.6603 28.3378 61.6572 28.3394C61.5914 28.3068 61.5526 28.2813 61.5 28.227C61.3735 28.436 61.3269 28.7003 61.2806 28.9625L61.28 28.966C61.225 29.2805 61.17 29.5919 60.9794 29.7987C60.974 29.7979 60.9688 29.7973 60.9638 29.7968C60.9614 29.7966 60.959 29.7963 60.9566 29.7961L60.9508 29.7956L60.9495 29.7955C60.919 29.7925 60.8931 29.7899 60.8679 29.7662C60.8632 29.7623 60.8594 29.7585 60.8555 29.7546L60.8549 29.754C60.8149 29.7163 60.7839 29.6872 60.7254 29.6779L60.6975 29.7259L60.8749 30.0265C60.8129 30.1016 60.7215 30.1574 60.6308 30.2124C60.486 30.3007 60.3419 30.389 60.314 30.5571L60.3845 30.6555C60.3351 30.8363 60.204 31.0024 60.0795 31.1601L60.0785 31.1613C60.0321 31.2202 59.9864 31.2783 59.9461 31.3356C59.9492 31.3379 59.9523 31.341 59.9554 31.3441C59.9567 31.3454 59.9581 31.3467 59.9594 31.3479L59.9612 31.3495C59.9631 31.3512 59.9651 31.3531 59.967 31.3549L59.9701 31.358L59.9712 31.3591C60.024 31.4088 60.0562 31.4391 60.0724 31.5153C60.0266 31.5819 59.9693 31.6539 59.9097 31.7283L59.9071 31.7315C59.787 31.8816 59.6591 32.0416 59.6029 32.1931C59.5658 32.2938 59.5355 32.4688 59.5046 32.6517L59.5036 32.6574C59.4589 32.9191 59.4118 33.1953 59.3349 33.2884C59.2923 33.3395 59.2017 33.3813 59.1041 33.4255C59.0003 33.4727 58.8903 33.5231 58.8244 33.592L58.85 33.6354L58.8531 33.6401L58.8551 33.6435C58.9161 33.7472 58.9647 33.8297 58.9662 33.9569C58.9306 34.022 58.8787 34.0627 58.8293 34.1014L58.826 34.1041L58.8242 34.1054C58.7621 34.1537 58.7034 34.1994 58.6827 34.2869C58.6857 34.2894 58.6886 34.2919 58.6914 34.2943L58.6952 34.2977L58.7007 34.3024C58.7062 34.3073 58.7115 34.3119 58.7166 34.3161C58.718 34.3173 58.7193 34.3183 58.7206 34.3194L58.7213 34.32C58.7835 34.3745 58.8055 34.3938 58.9151 34.3938C58.9182 34.3903 58.9211 34.3866 58.924 34.3829C58.9269 34.3792 58.9298 34.3756 58.9329 34.3721C58.9693 34.3279 59.0049 34.2838 59.0336 34.2334C59.0615 34.3039 59.0824 34.3752 59.1025 34.4449C59.1652 34.6578 59.2235 34.8555 59.4635 34.9724C59.5905 35.0344 59.7292 35.0142 59.8562 34.9639C60.1448 34.8486 60.3846 34.5372 60.592 34.2678L60.5929 34.2667C60.6425 34.2024 60.6905 34.1405 60.7362 34.0839C60.7432 34.0026 60.7393 33.9507 60.7223 33.8709C60.6948 33.7452 60.7116 33.5909 60.7284 33.437L60.7294 33.4281C60.7502 33.2387 60.7709 33.051 60.7114 32.9158L60.7141 32.914L60.718 32.9113L60.7267 32.9054L60.73 32.9031L60.7331 32.9011L60.7463 32.8926L60.7579 32.8848L60.7594 32.8838C60.8572 32.8191 60.9519 32.7565 61.0205 32.6579C60.973 32.5889 60.9089 32.5722 60.8356 32.5532L60.833 32.5525C60.8295 32.5516 60.826 32.5507 60.8224 32.5498C60.8078 32.546 60.7919 32.5419 60.7765 32.537C60.7982 32.4324 60.8377 32.3991 60.9275 32.3441C60.9763 32.3139 61.0344 32.3062 61.0917 32.2992L61.1429 32.2922H61.1444C61.2684 32.2713 61.3071 32.2643 61.3969 32.1799L61.445 31.9483C61.4798 31.9258 61.5162 31.9034 61.555 31.8801C61.7068 31.788 61.8764 31.6849 61.9686 31.5486L61.8695 31.5966L61.8766 31.5664C61.9357 31.3134 62.0502 30.824 61.95 30.6028C62.4032 30.3108 62.7951 29.9583 62.9191 29.4114C62.964 29.2155 63.0198 28.7259 62.9748 28.5384C62.9958 28.5229 63.0174 28.5075 63.0407 28.4912C63.05 28.485 63.06 28.478 63.0693 28.471C63.0698 28.4708 63.0702 28.4705 63.0706 28.4702L63.0713 28.4695C63.0719 28.4689 63.0724 28.4683 63.0732 28.4679C63.2297 28.3603 63.4094 28.2363 63.4551 28.0621C63.4218 27.9428 63.4017 27.8227 63.3815 27.7003C63.4899 27.5974 63.6005 27.3111 63.7128 27.0209L63.7131 27.0202L63.7155 27.0138C63.8185 26.7479 63.9223 26.48 64.0275 26.3447C64.0761 26.2824 64.1207 26.2774 64.1829 26.2705L64.184 26.2704C64.1887 26.2704 64.1925 26.2696 64.1972 26.2688C64.2004 26.2686 64.2036 26.2682 64.2069 26.2679C64.211 26.2674 64.2152 26.2668 64.2195 26.2662L64.2282 26.2649C64.2328 26.2192 64.2359 26.1728 64.2382 26.1255C64.2468 25.9737 64.2561 25.8172 64.3343 25.6894C64.4093 25.5664 64.5346 25.55 64.6645 25.533C64.7133 25.5268 64.7627 25.5198 64.8107 25.5081C64.8417 25.4082 64.8029 25.3331 64.7596 25.2494C64.7425 25.2169 64.7247 25.1828 64.7108 25.1456L64.782 25.0929C64.8998 25.0806 64.9672 25.1154 65.064 25.1743L65.0988 25.1952L65.167 25.1216C65.1848 25.0225 65.1469 24.945 65.1074 24.8652L65.1053 24.8611C65.075 24.7988 65.0438 24.7349 65.04 24.6576L65.095 24.6166L65.1918 24.6932C65.3243 24.6545 65.7015 24.3323 65.7441 24.1944C65.7634 24.131 65.7642 24.0745 65.765 24.0204C65.7658 23.9437 65.7666 23.8706 65.82 23.7877C65.8946 23.7777 65.9211 23.8029 65.9519 23.8321L65.9525 23.8326C65.9772 23.8566 66.0045 23.883 66.0625 23.8946C66.1719 23.8052 66.2093 23.6729 66.2463 23.5418L66.2468 23.5398L66.2522 23.5181L66.2553 23.5065L66.2584 23.4965L66.2608 23.4879C66.2623 23.4825 66.2639 23.4779 66.2654 23.4732L66.2763 23.4686L66.2879 23.4639C66.322 23.45 66.3584 23.4353 66.3932 23.4283C66.6146 23.3836 66.7822 23.2659 66.9557 23.144L66.9579 23.1425C67.0424 23.0828 67.1283 23.0224 67.2228 22.9682C67.8201 22.6281 68.7403 22.2648 69.4259 22.2547C69.5297 22.2052 69.6327 22.1231 69.7303 22.0448C69.7682 22.0138 69.8054 21.9844 69.8418 21.9573C70.0703 22.0371 70.3074 22.1021 70.5428 22.1664C70.6288 22.1897 70.714 22.2129 70.7992 22.2369C71.1308 21.972 71.3477 22.0154 71.5932 22.065L71.5975 22.0658C71.7512 22.0966 71.9167 22.1297 72.1285 22.0898C72.1602 22.0045 72.1765 21.9271 72.1897 21.8372C72.2991 21.8112 72.4131 21.8472 72.5294 21.8839L72.5336 21.8853L72.5363 21.8861C72.6253 21.9145 72.7158 21.9434 72.8078 21.9457C72.893 21.8969 72.9232 21.814 72.955 21.7257C72.9682 21.6893 72.9821 21.6513 73.0007 21.6149C73.0495 21.601 73.0805 21.6242 73.1146 21.6505C73.1479 21.6769 73.1851 21.7048 73.2455 21.7009C73.3222 21.6955 73.3841 21.6622 73.4469 21.6281C73.5282 21.5839 73.6111 21.5398 73.7288 21.5537L73.8334 21.7358L73.9148 21.7536C73.9659 21.6924 73.9852 21.6436 74.01 21.5669L74.0186 21.5398C74.1642 21.6103 74.3129 21.8109 74.4771 22.0332L74.4812 22.0387C74.6862 22.3154 74.9151 22.6243 75.1937 22.7536C75.3949 22.8472 75.5172 22.8033 75.655 22.7537C75.8238 22.6925 76.0155 22.6235 76.4036 22.7885C76.5314 22.7459 76.6313 22.6994 76.7468 22.6304C76.8018 22.515 76.7901 22.419 76.7762 22.3043V22.2974L76.7754 22.2927C76.7754 22.2887 76.7748 22.285 76.7741 22.2812L76.7737 22.2789C76.7735 22.2776 76.7733 22.2763 76.7731 22.2749C76.7727 22.2705 76.7722 22.266 76.7717 22.2614C76.771 22.2562 76.7704 22.2508 76.77 22.2455V22.2385L76.7684 22.2315V22.2276L76.7677 22.223V22.2168C76.8467 22.168 76.9722 22.185 77.086 22.2005C77.1294 22.2067 77.1712 22.2121 77.2084 22.2137C77.2177 22.1641 77.162 22.0921 77.1062 22.02L77.1021 22.0148C77.0648 21.9662 77.0282 21.9186 77.0124 21.8783L77.0938 21.8481L77.2231 21.9844H77.2348C77.2377 21.9844 77.2407 21.9844 77.2439 21.9844C77.2608 21.9846 77.2808 21.9847 77.2944 21.9821C77.5779 21.931 78.0961 21.5847 78.2712 21.3585L78.2255 21.2485C78.285 21.1543 78.4022 21.1055 78.5266 21.0538L78.5276 21.0533C78.6763 20.9921 78.8367 20.9255 78.9234 20.7721C78.9289 20.7698 78.9335 20.7667 78.9381 20.7644C79.0032 20.7303 79.0218 20.7171 79.0636 20.6528C79.0667 20.6482 79.0698 20.6435 79.0729 20.6381C79.1075 20.6209 79.1405 20.5978 79.1728 20.5752L79.176 20.5731L79.1845 20.5676L79.1907 20.563L79.2116 20.549C79.4494 20.4956 79.6392 20.4119 79.8522 20.295C80.0226 20.1865 80.2651 20.0068 80.3309 19.8132C80.5594 19.7194 80.7903 19.5994 81.004 19.477C81.1954 19.367 81.4773 19.1741 81.5378 18.951C81.709 18.8836 81.9049 18.6946 82.0157 18.549C82.1048 18.432 82.1164 18.3607 82.0994 18.2205L82.1071 18.2136L82.1107 18.21C82.1485 18.173 82.1901 18.1323 82.2163 18.0865C82.2729 17.9897 82.2767 17.8782 82.2543 17.772C82.4092 17.6845 82.5556 17.6001 82.6919 17.4862L82.6819 17.432C82.6067 17.4095 82.5664 17.3956 82.5076 17.3414C82.6927 17.0625 82.6857 16.8286 82.678 16.576C82.6741 16.4381 82.6702 16.2948 82.6966 16.136V16.1299L82.6966 16.1273C82.6965 16.1206 82.6964 16.1148 82.7012 16.112C82.726 16.0942 82.7446 16.088 82.7632 16.0818L82.7638 16.0816C82.7892 16.0732 82.8131 16.0652 82.8476 16.023L82.795 15.8998C82.8112 15.7658 82.8523 15.7162 82.9251 15.6302L82.9336 15.6202C82.939 15.614 82.9445 15.6078 82.9499 15.6008L82.9545 15.5954L82.9584 15.5907C82.9584 15.5907 82.9638 15.5837 82.9662 15.5806C82.9561 15.5674 82.9456 15.5544 82.935 15.5414L82.9247 15.5288L82.9162 15.5183C82.9119 15.513 82.9076 15.5077 82.9034 15.5024L82.9042 15.5001Z" fill="#372D35"/>
<path d="M61.8555 27.3579L61.8447 27.3479L61.8509 27.3285L61.8555 27.3579Z" fill="#372D35"/>
<path fill-rule="evenodd" clip-rule="evenodd" d="M58.8839 27.5616L58.8866 27.5623C58.9609 27.5799 59.0397 27.5986 59.1132 27.5802L59.1178 27.5477L59.1183 27.5442C59.129 27.472 59.1387 27.4058 59.186 27.3463L59.2642 27.3672L59.2828 27.5322L59.3603 27.5733C59.6198 27.5121 59.6151 27.4362 59.6082 27.3355C59.6035 27.2657 59.5981 27.1844 59.6802 27.0876C59.7499 27.0062 59.8824 26.9303 59.9877 26.9249L60.0017 27.0535L60.0512 27.0481C60.0923 26.9915 60.1326 26.935 60.1721 26.8769C60.2658 26.7375 60.351 26.5686 60.3169 26.3958L60.1945 26.4532L60.1969 26.4439L60.1992 26.4361C60.2016 26.427 60.2036 26.4179 60.2058 26.4085C60.2064 26.4058 60.207 26.4032 60.2077 26.4005C60.2093 26.3958 60.21 26.3912 60.2116 26.3858V26.3827L60.2147 26.3765C60.3301 26.014 60.4874 25.5422 60.8398 25.3664L60.8878 25.3431C60.901 25.2587 60.8739 25.2308 60.8452 25.2022C60.8204 25.1774 60.7949 25.1518 60.7949 25.0875C60.7949 24.9461 60.8277 24.8509 60.8582 24.7625L60.8599 24.7575C60.9103 24.6135 60.9544 24.4864 60.846 24.2068C60.925 24.1588 61.0094 24.1045 61.0792 24.0441C61.1659 23.9682 61.2201 23.9116 61.2271 23.7947C61.1713 23.7668 61.1264 23.7381 61.0768 23.6994C61.0877 23.5886 61.1241 23.5119 61.162 23.4345L61.1641 23.4302C61.1991 23.3572 61.2343 23.2837 61.2465 23.1796C61.2124 23.1386 61.1806 23.1037 61.1373 23.0727L61.0985 23.0456C61.1063 22.6436 61.2736 22.1021 61.4215 21.625L61.4293 21.5999C61.4814 21.431 61.5311 21.2701 61.5695 21.1277C61.5279 21.05 61.4696 21.0212 61.4103 20.9919L61.4091 20.9913C61.3541 20.9642 61.2984 20.9363 61.2534 20.8697L61.2937 20.7907L61.4951 20.7977C61.5312 20.7293 61.4995 20.6609 61.465 20.5864L61.4641 20.5847C61.4324 20.5181 61.3991 20.446 61.4099 20.3647H61.4308L61.4317 20.3647C61.4923 20.3678 61.5195 20.3692 61.5827 20.3376C61.6462 19.8426 61.5958 19.3406 61.5447 18.8433L61.5446 18.8424C61.5299 18.6955 61.5152 18.5487 61.5029 18.4033C61.5555 18.3584 61.6067 18.3119 61.657 18.2639C61.657 18.1099 61.5843 18.0684 61.502 18.0215L61.5006 18.0207C61.4425 17.9882 61.3797 17.9525 61.3325 17.8735C61.3003 17.8199 61.3672 17.7437 61.4383 17.6626L61.4409 17.6597L61.4417 17.6588C61.4957 17.5979 61.551 17.5355 61.5672 17.4792L61.5637 17.4738C61.5597 17.4676 61.5562 17.4622 61.5532 17.4568C61.5409 17.4352 61.5337 17.4227 61.4998 17.4188C61.4875 17.4174 61.4747 17.4164 61.4614 17.4152C61.452 17.4144 61.4423 17.4136 61.4324 17.4126C61.3394 17.4056 61.2302 17.3963 61.1597 17.3568C61.0524 17.2966 60.972 17.0739 60.8848 16.8324L60.884 16.8301L60.8824 16.8258C60.7806 16.5435 60.6701 16.237 60.4966 16.1345L60.4339 16.291C60.2604 16.291 59.3796 15.9664 59.2216 15.8665C59.1455 15.8181 59.0786 15.762 59.0125 15.7067L59.0069 15.702C58.9138 15.6241 58.821 15.5465 58.7034 15.4916L58.6755 15.5349L58.7104 15.6604L58.6763 15.6821C58.1317 15.6163 57.6817 15.387 57.203 15.1368C57.2014 15.1391 57.2007 15.1407 57.1999 15.143C57.1975 15.1484 57.1952 15.1523 57.1921 15.1562C57.1185 15.2499 57.0395 15.3459 56.9179 15.3653C56.8304 15.2654 56.7428 15.1778 56.6422 15.0903C56.53 15.0857 56.4928 15.1142 56.4233 15.1675C56.4101 15.1776 56.3958 15.1887 56.3803 15.1995C56.2745 15.2026 56.2006 15.1442 56.124 15.0836L56.1216 15.0818L56.1203 15.0808C56.0596 15.0323 55.9971 14.9825 55.9171 14.9625C55.835 14.9416 55.7374 14.9842 55.6669 15.0268C55.6111 15.0601 55.543 15.0423 55.4709 15.0229C55.3997 15.0036 55.3245 14.9834 55.2533 15.0121L55.1936 15.198C55.0566 15.2413 54.922 15.178 54.7904 15.116L54.7875 15.1147C54.6939 15.0709 54.601 15.0275 54.5104 15.0245C54.3237 15.0183 54.2207 15.0562 54.1308 15.0895L54.1301 15.0898C53.9794 15.1454 53.8653 15.1876 53.4531 14.9795C53.4166 15.0051 53.3919 15.0252 53.364 15.0601C53.3473 15.0813 53.1994 15.0618 53.0284 15.0391L53.0169 15.0376C52.8132 15.0098 52.5793 14.978 52.4918 15.0043C52.4739 15.0903 52.4491 15.1616 52.412 15.2406L52.3353 15.1554L52.3717 15.222C52.3717 15.222 52.3685 15.2194 52.3651 15.217C52.3633 15.2156 52.3614 15.2143 52.3601 15.2135L52.3516 15.2073L52.3454 15.2026C52.2656 15.1422 52.202 15.0942 52.0913 15.0965C52.0773 15.143 52.0649 15.1895 52.0525 15.2359H52.0479L52.0417 15.2375H52.0378L52.0324 15.239C52.0312 15.239 52.0301 15.2391 52.0289 15.2393C52.027 15.2396 52.025 15.2401 52.0231 15.2406L52.013 15.2421H52.0115C51.9402 15.253 51.9092 15.2576 51.8295 15.215L51.8488 15.0624C51.6242 14.9795 51.2005 14.9354 50.9634 14.964C50.7729 14.9865 50.6474 15.136 50.5382 15.2778C50.5064 15.318 50.4816 15.3397 50.4336 15.3622C50.2624 15.3661 50.1214 15.2801 49.9804 15.1941L49.9107 15.1523L49.7938 15.2251C49.7086 15.2824 49.6024 15.3095 49.4994 15.2894C49.4526 15.2806 49.4099 15.2656 49.3681 15.2509L49.3607 15.2483L49.3422 15.2414C49.2492 15.2073 49.1601 15.1747 49.0478 15.1957L48.8123 15.4017C48.8123 15.4017 48.8112 15.4026 48.81 15.4035C48.8089 15.4043 48.8076 15.4052 48.8069 15.4056L48.8023 15.4095L48.7984 15.4126L48.7961 15.4141C48.7728 15.4327 48.7465 15.4536 48.7201 15.4645C48.628 15.504 48.59 15.4559 48.5451 15.3986C48.5173 15.3631 48.4868 15.3242 48.439 15.2995L48.3003 15.3978C48.1895 15.3854 48.0733 15.4017 47.9556 15.4203L47.9324 15.4242C47.8394 15.4389 47.7449 15.4536 47.6519 15.4552H47.6117C47.5551 15.5721 47.4908 15.6194 47.3816 15.6875C47.2848 15.7015 47.2112 15.6767 47.1361 15.6504C47.0865 15.6333 47.0361 15.6163 46.9773 15.6093C46.8882 15.5985 46.844 15.6403 46.7983 15.6837L46.7954 15.6864C46.7685 15.7119 46.7412 15.7377 46.7023 15.7542C46.5683 15.8107 46.5024 15.8006 46.4497 15.7921C46.3584 15.7782 46.3079 15.7705 46.0043 16.136C46.0043 16.1329 46.0036 16.1298 46.0028 16.1275C46.0005 16.1159 45.9989 16.1051 45.9974 16.0934L45.9958 16.0826L45.9957 16.0818C45.9802 15.9837 45.9654 15.8895 45.8897 15.8161C45.6891 15.813 44.8385 16.0222 44.6999 16.1515C44.664 16.1851 44.6347 16.2288 44.6069 16.2701L44.6038 16.2747L44.6 16.2801C44.5574 16.2824 44.4822 16.2824 44.3924 16.2824C44.0895 16.2824 43.6077 16.2824 43.5318 16.3793C43.4989 16.4211 43.4804 16.4889 43.4646 16.5472L43.4628 16.5536V16.5567L43.4597 16.566L43.4582 16.5729C43.4558 16.5799 43.4543 16.5869 43.452 16.5938C43.3944 16.5836 43.3416 16.5542 43.2891 16.525L43.2792 16.5195C43.2157 16.4831 43.1537 16.4482 43.0879 16.4459C42.7037 16.4343 41.3644 16.9804 40.9716 17.164C40.9624 17.2252 40.967 17.2639 40.9809 17.3243C40.8779 17.3638 40.771 17.3444 40.6626 17.3243C40.6331 17.3189 40.6037 17.3135 40.5743 17.3096H40.5619L40.5456 17.3073L40.544 17.3072C40.4026 17.2979 40.3359 17.2936 40.1939 17.3615C40.1064 17.4823 40.0801 17.583 40.0514 17.7256C39.7013 17.7294 39.4836 17.9223 39.3442 18.0463C39.2768 18.1067 39.2272 18.15 39.19 18.1485C39.1378 18.1462 39.1046 18.1073 39.0731 18.0704L39.0723 18.0695C39.0243 18.0129 38.9801 17.961 38.8794 18.0563C38.8453 18.0889 38.8159 18.126 38.788 18.1632L38.7876 18.1638C38.7327 18.2349 38.6785 18.3051 38.5889 18.3352C38.2744 18.298 37.9793 18.2786 37.688 18.4219C37.6129 18.5087 37.6005 18.5955 37.5858 18.7L37.5835 18.7147L37.5819 18.7264C37.5819 18.7282 37.5816 18.7302 37.5812 18.7324C37.5808 18.7347 37.5804 18.7371 37.5804 18.7395L37.5192 18.8108C37.4715 18.8025 37.4282 18.7887 37.3864 18.7753L37.3712 18.7705C37.2713 18.738 37.1814 18.7093 37.0691 18.7504C37.0299 18.8553 37.0068 18.9316 36.9891 18.9899L36.9878 18.9944L36.9836 19.0081C36.9658 19.0664 36.9537 19.1063 36.9328 19.1416C36.891 19.2144 36.8158 19.2686 36.5974 19.4258L36.5796 19.4382L36.5432 19.4344L36.6005 19.3352L36.5494 19.3197C36.331 19.4901 36.2837 19.8857 36.2496 20.1707L36.2442 20.2144L36.2426 20.2283C36.2426 20.2323 36.242 20.2362 36.2413 20.2403C36.241 20.2427 36.2406 20.2452 36.2403 20.2477L36.2387 20.2617L36.2372 20.2748C36.2358 20.2841 36.2345 20.2935 36.2332 20.3032L36.2321 20.3122C36.231 20.3207 36.2299 20.3294 36.2287 20.3383V20.3414C36.193 20.5947 36.1373 20.9929 36.2256 21.1641L36.4448 21.1834C36.5339 21.2911 36.585 21.4236 36.6361 21.556C36.6741 21.6552 36.712 21.7536 36.7663 21.8419C36.8288 21.9447 36.9192 22.0212 37.0104 22.0985L37.0148 22.1022C37.1011 22.1755 37.1878 22.2492 37.2496 22.3461C37.396 22.5739 37.5083 22.8272 37.6207 23.082L37.6225 23.0862C37.7327 23.3358 37.8438 23.5876 37.9894 23.8171C38.0898 23.9754 38.2402 24.0845 38.3861 24.1903L38.3875 24.1913L38.3902 24.1932C38.5349 24.2979 38.6746 24.399 38.7578 24.5422C38.7415 24.6468 38.7144 24.725 38.6672 24.8195C38.7242 24.8919 38.798 24.9383 38.8705 24.9837L38.8717 24.9845C38.9591 25.0394 39.0445 25.0931 39.0955 25.1882V25.1913C39.0266 25.3795 38.9995 25.4555 39.0886 25.6406C39.1869 25.8466 39.3271 26.0263 39.4673 26.206L39.4736 26.2141C39.5815 26.3524 39.689 26.4902 39.7772 26.6414C39.9778 26.5818 40.1746 26.5461 40.3814 26.5159L40.596 26.7026L40.5991 26.6972L40.6176 26.722L40.6215 26.7251H40.6208L40.6634 26.7816C40.6696 26.8413 40.6781 26.9102 40.6881 26.9846C40.7261 27.2704 40.7741 27.6321 40.685 27.8459C40.6161 27.832 40.575 27.7816 40.5332 27.7297C40.5313 27.7278 40.5296 27.7255 40.5279 27.7231C40.5269 27.7217 40.5258 27.7203 40.5247 27.7189L40.5208 27.7142L40.5177 27.7104L40.5139 27.7057C40.5139 27.7057 40.513 27.7047 40.512 27.7035C40.511 27.7023 40.5099 27.701 40.5092 27.7003L40.4589 27.7282C40.4798 27.9172 40.5735 28.0435 40.7245 28.1628C40.7811 28.2069 40.7912 28.2061 40.8485 28.2015C40.8533 28.2015 40.8585 28.2009 40.864 28.2002C40.8672 28.1998 40.8706 28.1994 40.874 28.1992C40.8839 28.1852 40.893 28.1716 40.9019 28.1584C40.9063 28.1518 40.9107 28.1452 40.9151 28.1387L40.9157 28.1378C40.9689 28.0577 41.0093 27.9968 41.115 27.9567C41.1165 27.9567 41.1188 27.9582 41.1211 27.9582C41.1227 27.9582 41.125 27.959 41.1266 27.9598H41.1304L41.1335 27.9613C41.1351 27.9613 41.1366 27.9621 41.139 27.9629L41.1444 27.9644L41.1514 27.966L41.1523 27.9662C41.1922 27.9754 41.2267 27.9834 41.249 28.0256C41.283 28.0892 41.2799 28.1527 41.2768 28.2146C41.273 28.2905 41.2692 28.365 41.3342 28.4362C41.4172 28.4527 41.5111 28.4489 41.6047 28.4451L41.6146 28.4447C41.7563 28.4385 41.8965 28.4331 42.0003 28.4912C42.0027 28.5175 42.0042 28.5423 42.005 28.5655C42.0089 28.657 42.012 28.7259 42.0917 28.7995C42.2025 28.7716 42.2552 28.7058 42.3055 28.6422C42.3744 28.5556 42.4397 28.4734 42.6479 28.4997L42.6712 28.5555C42.6603 28.5686 42.651 28.581 42.6417 28.5919L42.6412 28.5926C42.5703 28.6796 42.5418 28.7146 42.5395 28.8522C42.6571 28.8986 42.815 28.8205 42.9622 28.7477L42.9641 28.7468C43.0944 28.6828 43.216 28.623 43.2932 28.6577C43.3111 28.6656 43.3478 28.7156 43.3771 28.7555L43.3838 28.7646C43.3954 28.7809 43.4055 28.7948 43.4117 28.8026C43.4663 28.7749 43.4827 28.7404 43.5057 28.6922L43.5062 28.691C43.5066 28.6903 43.5069 28.6896 43.5072 28.6889C43.5078 28.6877 43.5083 28.6865 43.5088 28.6853C43.5099 28.6827 43.511 28.6801 43.5124 28.6779L43.517 28.6686C43.5224 28.667 43.5278 28.6654 43.5334 28.6638C43.5417 28.6614 43.5504 28.659 43.5596 28.6562C43.5751 28.6515 43.5906 28.6469 43.6077 28.6422L43.6119 28.641C43.8329 28.5766 44.1843 28.4743 44.3591 28.4974C44.4094 28.5044 44.5233 28.571 44.6093 28.6221C44.6201 28.6284 44.6305 28.6345 44.6403 28.6402C44.6618 28.6529 44.6806 28.664 44.6945 28.6709L44.7347 28.5772L44.7262 28.6856C44.8223 28.6693 44.8749 28.6205 44.9276 28.5717L44.9286 28.5709C44.9948 28.5092 45.0608 28.4479 45.2135 28.4579C45.2545 28.4602 45.3335 28.4749 45.4242 28.492L45.4272 28.4925C45.6266 28.5288 45.8821 28.5754 45.9215 28.5315C46.1221 28.3068 46.3374 28.2511 46.631 28.2379C46.7782 28.2317 46.9137 28.2371 47.0431 28.2425L47.0467 28.2427C47.3698 28.2558 47.6563 28.2674 47.9959 28.083L48.0346 28.0225C48.0485 28.0218 48.0625 28.021 48.0764 28.021C48.2802 28.021 48.4087 28.1062 48.5025 28.1689L48.5164 28.1782C48.5846 28.2239 48.6342 28.2526 48.683 28.217L48.8906 28.1527L49.1934 28.193L49.7202 28.148L50.3182 28.2418L50.5575 28.1527L50.7016 28.217L51.0277 27.77C51.1943 27.8622 51.8031 27.7592 52.003 27.708C52.023 27.7029 52.0309 27.6991 52.0445 27.6927L52.0463 27.6918H52.0471L52.0533 27.6887C52.1432 27.6778 52.2268 27.6864 52.3097 27.6957L52.3108 27.6958C52.3886 27.7043 52.4658 27.7127 52.5475 27.7034C52.5822 27.6996 52.6405 27.6231 52.68 27.5712L52.6831 27.5671C52.6839 27.5663 52.6846 27.5647 52.6854 27.564C52.6908 27.557 52.6955 27.5508 52.6994 27.5454H52.7001C52.7001 27.5454 52.7024 27.5415 52.7032 27.5407L52.7048 27.5384V27.5369L52.7079 27.5345L52.7737 27.5431C52.7795 27.553 52.7856 27.5633 52.7918 27.5739C52.7948 27.5791 52.7978 27.5843 52.8008 27.5895C52.8318 27.6437 52.8659 27.7034 52.9054 27.7437C52.9813 27.8211 53.0626 27.7785 53.1572 27.729C53.2238 27.6941 53.2966 27.6561 53.3795 27.6531L53.388 27.6608L53.3957 27.6678L53.4081 27.6786C53.4949 27.7545 53.5692 27.8196 53.694 27.8304L53.7846 27.7522L53.9023 27.7057C53.9852 27.7321 54.0758 27.6957 54.1657 27.6592C54.2455 27.6267 54.3253 27.595 54.3989 27.6073C54.4531 27.6159 54.5174 27.6546 54.5832 27.6949L54.5854 27.6962C54.6855 27.7562 54.7907 27.8194 54.8729 27.7871C54.9403 27.7607 54.9713 27.708 55.0023 27.6538L55.003 27.6526C55.0407 27.5879 55.0796 27.5212 55.1835 27.495L55.2835 27.6267C55.3857 27.6098 55.4353 27.5533 55.4958 27.4844L55.4973 27.4826V27.4811L55.5066 27.471L55.5135 27.4633C55.5155 27.461 55.5175 27.4588 55.5195 27.4567L55.5217 27.4544C55.5244 27.4515 55.5271 27.4486 55.5298 27.4455C55.5654 27.4059 55.5956 27.3812 55.6452 27.3579V27.3602C55.646 27.3614 55.6466 27.3624 55.6472 27.3633C55.6477 27.3643 55.6483 27.3653 55.6491 27.3664L55.6522 27.3726L55.6537 27.375C55.6564 27.3793 55.6589 27.3835 55.6615 27.3878C55.6637 27.3915 55.6659 27.3951 55.6681 27.3988C55.6739 27.4084 55.6799 27.4179 55.6863 27.4269C55.7671 27.5393 55.9658 27.4956 56.1584 27.4532L56.1619 27.4524C56.2882 27.4245 56.4113 27.3974 56.4958 27.4152C56.5271 27.4221 56.5728 27.5029 56.603 27.5564L56.6042 27.5585C56.6112 27.5717 56.6174 27.5826 56.6228 27.5903C56.818 27.7158 57.0473 27.6995 57.2727 27.6833L57.2924 27.6819C57.3757 27.6761 57.4587 27.6703 57.5384 27.6732C57.7123 27.6786 57.7659 27.7326 57.87 27.8375L57.8707 27.8382L57.897 27.8645C58.0884 27.9172 58.2696 27.7995 58.4431 27.6864L58.4518 27.6808C58.5324 27.6285 58.6109 27.5776 58.6879 27.5469C58.7406 27.5252 58.8095 27.5415 58.8831 27.5593L58.8839 27.5616ZM55.8871 25.5824C55.8978 25.6016 55.9077 25.6194 55.9156 25.6352L55.9094 25.639L55.8908 25.6514C55.842 25.684 55.7908 25.7181 55.7482 25.7583C55.6832 25.8188 55.6716 25.8707 55.6654 25.9574C55.6592 26.0434 55.6468 26.1139 55.6228 26.196C55.6197 26.1991 55.6165 26.2023 55.6137 26.2051C55.6103 26.2086 55.6071 26.212 55.6042 26.2154L55.5964 26.2231L55.5947 26.2249C55.5424 26.2787 55.5156 26.3062 55.4268 26.3285L55.5437 26.048L55.5112 26.0442C55.3788 26.1983 55.2455 26.337 55.0914 26.4702H53.7947L52.4081 26.8591H51.4816L50.7001 27.1441L50.3166 26.8769L49.1919 26.8978L47.7805 27.0884L46.3351 26.7878C46.1693 26.5655 46.1058 26.3192 46.0438 26.0767C45.9586 25.7421 45.875 25.4167 45.5256 25.1781C45.5367 25.1713 45.5481 25.1647 45.5595 25.1581L45.5633 25.1559C45.5714 25.1512 45.5795 25.1466 45.5876 25.1417C45.6953 25.0798 45.8037 25.017 45.8595 24.9032C45.8138 24.7715 45.7712 24.6359 45.8308 24.5004C45.8719 24.4074 45.906 24.3958 45.9803 24.371C45.9943 24.3663 46.009 24.3617 46.026 24.3555C46.026 24.2957 45.9216 24.207 45.8301 24.1292L45.8239 24.1239L45.8156 24.117C45.7746 24.0825 45.7371 24.0509 45.7146 24.0255L45.7301 23.9357C45.82 23.907 45.9021 23.8962 45.9958 23.8876C46.0686 23.7645 46.0826 23.6065 46.0965 23.4469L46.0966 23.4458C46.1113 23.2819 46.1261 23.1166 46.2042 22.9844C46.2398 22.9256 46.3173 22.8799 46.3924 22.8365C46.4705 22.7908 46.545 22.7473 46.5652 22.6924L46.576 22.6614C46.559 22.6529 46.5436 22.646 46.5281 22.639L46.5247 22.6374C46.4628 22.6088 46.415 22.5866 46.3762 22.5181C46.407 22.5065 46.4408 22.4954 46.4761 22.4839L46.49 22.4794L46.4969 22.4771C46.6105 22.4398 46.7365 22.3984 46.82 22.3369C46.8518 22.3136 47.645 21.326 47.6984 21.2415C47.7294 21.1927 47.7403 21.1424 47.7457 21.0851C47.7471 21.0722 47.7476 21.0637 47.748 21.0577C47.7482 21.0552 47.7483 21.0532 47.7485 21.0515C47.7486 21.0504 47.7487 21.0495 47.7488 21.0487V21.0425C47.7488 21.0386 47.7503 21.0339 47.7526 21.0192V21.0177C47.7542 21.0115 47.7557 21.0037 47.7573 20.9937L47.7798 20.869C47.8502 20.8395 47.9091 20.8271 47.985 20.8186L48.0121 20.8155C48.0741 20.703 48.0703 20.5784 48.0665 20.4522L48.0664 20.4476L48.0662 20.4428C48.0624 20.3243 48.0585 20.2052 48.1097 20.0951L48.2693 20.2136L48.3615 20.1943C48.4475 20.0827 48.4343 19.9805 48.418 19.855C48.4142 19.8271 48.4103 19.7977 48.408 19.7667C48.4785 19.6946 48.559 19.6931 48.6419 19.6923C48.7178 19.6915 48.7961 19.69 48.872 19.6358L48.8859 19.4274C48.9293 19.3763 48.9642 19.3484 49.0261 19.322C49.3274 19.1958 49.9193 19.054 50.2237 19.1818C50.2314 19.1818 50.2392 19.1818 50.2469 19.1826C50.2518 19.1826 50.2567 19.1826 50.2616 19.1827C50.266 19.1828 50.2704 19.183 50.2748 19.1834H50.2763C50.2849 19.1834 50.2934 19.1834 50.3019 19.1842C50.4305 19.1896 50.5506 19.1981 50.6644 19.2756L50.6923 19.3213C51.0595 19.3267 51.5545 19.4003 51.8597 19.621C51.9317 19.6056 52.0138 19.58 52.0982 19.5537L52.1013 19.5527C52.2895 19.4941 52.4957 19.4298 52.6575 19.4545H52.6598C52.6598 19.4545 52.6653 19.4561 52.6684 19.4561H52.6715L52.6746 19.4568H52.68L52.6885 19.4592H52.6893L52.6947 19.4607H52.6986L52.7017 19.4623H52.7048L52.6761 19.4382L52.7915 19.4289L52.766 19.4437L52.7714 19.4661L52.5266 19.5188C52.532 19.6014 52.6551 19.7302 52.7564 19.8361L52.7574 19.8372L52.7687 19.8491C52.8045 19.8868 52.8364 19.9206 52.8581 19.9479C52.9976 19.8705 53.0812 19.817 53.1703 19.6799C53.3136 19.7984 53.4422 19.9332 53.5708 20.0688L53.578 20.0763C53.7189 20.2241 53.8602 20.3722 54.0216 20.4979C54.1584 20.6045 54.1949 20.5809 54.2558 20.5416C54.2915 20.5184 54.3353 20.4902 54.412 20.4793C54.4771 20.5421 54.4755 20.5754 54.4732 20.618L54.4731 20.6209C54.4724 20.6481 54.4715 20.6792 54.4872 20.7233C54.5112 20.7914 54.6388 20.9214 54.8067 21.0924L54.8089 21.0946C55.138 21.43 55.6207 21.9218 55.7823 22.4135C55.8482 22.6134 55.9202 22.9442 55.8211 23.1378C55.7521 23.1355 55.6948 23.1363 55.6266 23.1494C55.5763 23.3547 55.6352 23.4213 55.7056 23.5003L55.7067 23.5015C55.7498 23.55 55.7965 23.6025 55.8249 23.6948L55.6901 23.7381C55.6173 23.8435 55.6359 24.0062 55.6553 24.1719L55.6559 24.1771C55.6712 24.3117 55.6866 24.4476 55.6537 24.5577L55.6584 24.5608L55.6677 24.5677L55.6809 24.577L55.6843 24.5794C55.812 24.6684 55.9972 24.7975 56.0349 24.9388C56.0139 25.017 55.9628 25.0813 55.9125 25.1441L55.9087 25.1488C55.8612 25.2091 55.8152 25.2675 55.7994 25.3362C55.7839 25.4036 55.8389 25.5027 55.8823 25.5794L55.8846 25.5779L55.8871 25.5824Z" fill="#372D35"/>
<path d="M40.57 26.7467L40.594 26.7034L40.6164 26.7227L40.6188 26.7258L40.57 26.7467Z" fill="#372D35"/>
</svg>
